<svg xmlns="http://www.w3.org/2000/svg" xmlns:xlink="http://www.w3.org/1999/xlink" viewBox="0 0 452.32 407.03"><defs><style>.a{fill:#e2e2e2;}.b{fill:url(#a);}.c{fill:#c8c8c8;}.d{opacity:0.5;fill:url(#b);}.e{fill:#ffc629;}.f{fill:url(#c);}.g{fill:url(#d);}.h{fill:#fff;}.i{fill:#995209;}.j{fill:#ff595a;}.k{fill:#003d4c;}.l{fill:#cc6d0c;}</style><linearGradient id="a" x1="-21.76" y1="51.89" x2="217.24" y2="180.89" gradientUnits="userSpaceOnUse"><stop offset="0" stop-color="#fff"/><stop offset="1" stop-color="#fff" stop-opacity="0"/></linearGradient><radialGradient id="b" cx="248.31" cy="178.6" r="170.12" gradientUnits="userSpaceOnUse"><stop offset="0" stop-color="#aaa"/><stop offset="1" stop-color="#aaa" stop-opacity="0"/></radialGradient><linearGradient id="c" x1="241.31" y1="184.7" x2="241.31" y2="264.66" gradientUnits="userSpaceOnUse"><stop offset="0" stop-color="#f5a503"/><stop offset="1" stop-color="#f5a503" stop-opacity="0"/></linearGradient><linearGradient id="d" x1="235.15" y1="289.48" x2="235.15" y2="314.18" xlink:href="#c"/></defs><title>10x10</title><polygon points="452.32 297.33 443.8 298.5 446.56 300.08 368.65 345.06 369.15 345.93 447.06 300.95 447.05 304.13 452.32 297.33"/><polygon points="337.98 363.92 337.48 363.06 267.57 403.42 267.58 400.24 262.31 407.03 270.83 405.87 268.07 404.28 337.98 363.92"/><polygon points="219.69 406.68 214.43 399.88 214.44 403.06 145.15 363.06 144.65 363.92 213.94 403.93 211.18 405.51 219.69 406.68"/><polygon points="113.97 345.06 35.07 299.5 37.83 297.92 29.31 296.75 34.58 303.55 34.57 300.37 113.47 345.93 113.97 345.06"/><polygon points="29.81 290.39 29.81 228.38 28.81 228.38 28.81 290.39 26.05 288.8 29.31 296.75 32.56 288.8 29.81 290.39"/><polygon points="32.56 130.36 29.31 122.4 26.05 130.36 28.81 128.76 28.81 192.38 29.81 192.38 29.81 128.76 32.56 130.36"/><path d="M7.91,206.86a4,4,0,0,1-.51,2A3.74,3.74,0,0,1,6,210.31a3.82,3.82,0,0,1,1.6,1.51,4.31,4.31,0,0,1,.59,2.24,4.42,4.42,0,0,1-1.13,3.17,3.92,3.92,0,0,1-3,1.19,3.93,3.93,0,0,1-3-1.19A4.42,4.42,0,0,1,0,214.06a4.46,4.46,0,0,1,.57-2.26,3.8,3.8,0,0,1,1.57-1.51A3.56,3.56,0,0,1,.78,208.9a4.16,4.16,0,0,1-.5-2,4.36,4.36,0,0,1,1.05-3.08,3.6,3.6,0,0,1,2.77-1.14,3.57,3.57,0,0,1,2.76,1.13A4.35,4.35,0,0,1,7.91,206.86ZM6.34,214a3.38,3.38,0,0,0-.62-2.12,2,2,0,0,0-1.64-.79,1.91,1.91,0,0,0-1.63.8A3.43,3.43,0,0,0,1.86,214a3.24,3.24,0,0,0,.58,2.06,2,2,0,0,0,1.66.74,2,2,0,0,0,1.66-.74A3.3,3.3,0,0,0,6.34,214Zm-.29-7.13A3.09,3.09,0,0,0,5.5,205a1.67,1.67,0,0,0-1.4-.74,1.65,1.65,0,0,0-1.42.73,3.19,3.19,0,0,0-.53,1.92,3.07,3.07,0,0,0,.54,1.91,1.69,1.69,0,0,0,1.41.7,1.71,1.71,0,0,0,1.43-.71A3.14,3.14,0,0,0,6.05,206.89Z"/><path d="M14.29,212.48H9.94v-1.59h4.35Z"/><path d="M21.59,218.2H19.71v-13l-3.23,1.45v-1.78l4.81-2.1h.3Z"/><path d="M34.9,211.65a10.24,10.24,0,0,1-1,5.08,3.36,3.36,0,0,1-3.11,1.69,3.37,3.37,0,0,1-3.07-1.62A9.45,9.45,0,0,1,26.67,212v-2.64a9.92,9.92,0,0,1,1-5,3.37,3.37,0,0,1,3.11-1.65,3.37,3.37,0,0,1,3.07,1.57,9.42,9.42,0,0,1,1,4.76ZM33,209a9.14,9.14,0,0,0-.53-3.59,1.81,1.81,0,0,0-1.72-1.16,1.78,1.78,0,0,0-1.69,1.13,8.47,8.47,0,0,0-.56,3.43V212a9,9,0,0,0,.56,3.64,1.8,1.8,0,0,0,1.71,1.22,1.74,1.74,0,0,0,1.67-1.15,8.74,8.74,0,0,0,.56-3.51Z"/><path d="M37.76,207.17l-1-.76a5.74,5.74,0,0,0,.86-2.87V202h1.84v1.43a5.35,5.35,0,0,1-.47,2A4.58,4.58,0,0,1,37.76,207.17Z"/><path d="M122.89,362.32H121v-13l-3.23,1.45V349l4.81-2.1h.3Z"/><path d="M136.2,355.77a10.27,10.27,0,0,1-1,5.08,3.73,3.73,0,0,1-6.18.07,9.52,9.52,0,0,1-1.06-4.86v-2.63a9.87,9.87,0,0,1,1-5,3.35,3.35,0,0,1,3.1-1.66,3.39,3.39,0,0,1,3.08,1.57,9.45,9.45,0,0,1,1,4.76Zm-1.87-2.67a9,9,0,0,0-.54-3.59,1.8,1.8,0,0,0-1.72-1.16,1.77,1.77,0,0,0-1.68,1.14,8.38,8.38,0,0,0-.56,3.42v3.16a9,9,0,0,0,.56,3.65,1.81,1.81,0,0,0,1.71,1.22,1.77,1.77,0,0,0,1.67-1.15,8.83,8.83,0,0,0,.56-3.52Z"/><path d="M139.06,351.29l-1.05-.76a5.8,5.8,0,0,0,.86-2.87v-1.54h1.84v1.42a5.31,5.31,0,0,1-.47,2A4.74,4.74,0,0,1,139.06,351.29Z"/><path d="M346.89,362.32H345v-13l-3.22,1.45V349l4.81-2.1h.29Z"/><path d="M360.2,355.77a10.27,10.27,0,0,1-1,5.08,3.35,3.35,0,0,1-3.11,1.68,3.39,3.39,0,0,1-3.07-1.61,9.53,9.53,0,0,1-1-4.86v-2.63a10,10,0,0,1,1-5,3.76,3.76,0,0,1,6.18-.09,9.24,9.24,0,0,1,1.05,4.76Zm-1.87-2.67a9,9,0,0,0-.53-3.59,1.8,1.8,0,0,0-1.72-1.16,1.77,1.77,0,0,0-1.69,1.14,8.59,8.59,0,0,0-.56,3.42v3.16a9.19,9.19,0,0,0,.56,3.65,1.81,1.81,0,0,0,1.71,1.22,1.78,1.78,0,0,0,1.68-1.15,9,9,0,0,0,.55-3.51Z"/><path d="M363.06,351.29l-1-.76a5.86,5.86,0,0,0,.85-2.87v-1.54h1.85v1.42a5.49,5.49,0,0,1-.47,2A4.76,4.76,0,0,1,363.06,351.29Z"/><polygon class="a" points="241.31 0 51.31 109.7 51.31 285.21 241.31 175.52 241.31 0"/><polygon class="b" points="241.31 0 51.31 109.7 51.31 285.21 241.31 175.52 241.31 0"/><polygon class="c" points="431.31 109.69 431.31 285.21 241.31 175.52 241.31 0 431.31 109.69"/><polygon class="d" points="431.31 109.69 431.31 285.21 241.31 175.52 241.31 0 431.31 109.69"/><polygon class="e" points="241.31 394.91 51.31 285.21 241.31 175.51 431.31 285.21 241.31 394.91"/><polygon class="f" points="241.31 394.91 51.31 285.21 241.31 175.51 431.31 285.21 241.31 394.91"/><path class="g" d="M241,285.17v9.29H239.8v6.65H241v22.11h13.2V301.11h1.14v-6.65a6,6,0,0,0,6-6v-3.29Zm-9.52,15.94h.69l-1-6.65h-.84v-9.29H209v3.29a6,6,0,0,0,6,6h.61l1,6.65h1.28l3.79,22.11h13.52Z"/><polygon class="h" points="51.56 285.65 51.06 284.78 241.31 174.94 241.56 175.08 431.56 284.77 431.06 285.64 241.31 176.09 51.56 285.65"/><rect class="h" x="240.81" width="1" height="175.52"/><rect class="h" x="164.81" y="219.39" width="1" height="219.39" transform="translate(-202.34 307.71) rotate(-60)"/><rect class="h" x="183.81" y="208.42" width="1" height="219.39" transform="translate(-183.34 318.68) rotate(-60)"/><rect class="h" x="202.81" y="197.45" width="1" height="219.39" transform="translate(-164.34 329.65) rotate(-60)"/><rect class="h" x="221.81" y="186.48" width="1" height="219.39" transform="translate(-145.34 340.62) rotate(-60)"/><rect class="h" x="240.81" y="175.51" width="1" height="219.39" transform="translate(-126.34 351.59) rotate(-60)"/><rect class="h" x="259.81" y="164.55" width="1" height="219.39" transform="translate(-107.34 362.56) rotate(-60)"/><rect class="h" x="278.81" y="153.58" width="1" height="219.39" transform="translate(-88.34 373.53) rotate(-60)"/><rect class="h" x="297.81" y="142.61" width="1" height="219.39" transform="translate(-69.34 384.5) rotate(-60)"/><rect class="h" x="316.81" y="131.64" width="1" height="219.39" transform="translate(-50.34 395.47) rotate(-60)"/><rect class="h" x="55.62" y="240.83" width="219.39" height="1" transform="translate(-98.51 114.97) rotate(-29.99)"/><rect class="h" x="74.62" y="251.8" width="219.39" height="1" transform="translate(-101.45 125.93) rotate(-29.99)"/><rect class="h" x="93.62" y="262.77" width="219.39" height="1" transform="translate(-104.39 136.9) rotate(-29.99)"/><rect class="h" x="112.62" y="273.74" width="219.39" height="1" transform="translate(-107.32 147.87) rotate(-29.99)"/><rect class="h" x="131.62" y="284.71" width="219.4" height="1" transform="translate(-110.26 158.84) rotate(-29.99)"/><rect class="h" x="150.62" y="295.68" width="219.39" height="1" transform="translate(-113.2 169.8) rotate(-29.99)"/><rect class="h" x="169.62" y="306.65" width="219.39" height="1" transform="translate(-116.14 180.77) rotate(-29.99)"/><rect class="h" x="188.62" y="317.62" width="219.39" height="1" transform="translate(-119.08 191.74) rotate(-29.99)"/><rect class="h" x="207.62" y="328.59" width="219.39" height="1" transform="translate(-122.02 202.71) rotate(-29.99)"/><polygon class="i" points="254.14 211.27 260.74 204.68 256.14 200.09 254.14 200.09 254.14 211.27"/><polygon class="i" points="229.76 211.27 223.17 204.68 227.76 200.09 229.76 200.09 229.76 211.27"/><path class="j" d="M272.1,187.67l-16-16v0H227.76v0l-16,16a4,4,0,0,0,0,5.65l11.36,11.36,4.59-4.6-9.59-9.59,9.59-9.6h0v19.21h28.38V180.88h0l9.59,9.6-9.59,9.59,4.59,4.6,11.36-11.36A4,4,0,0,0,272.1,187.67Z"/><path d="M240.95,275.89h14.34a6,6,0,0,1,6,6v3.28a0,0,0,0,1,0,0H240.95a0,0,0,0,1,0,0v-9.28A0,0,0,0,1,240.95,275.89Z"/><path d="M209,275.89h21.27a0,0,0,0,1,0,0v3.28a6,6,0,0,1-6,6H209a0,0,0,0,1,0,0v-9.28A0,0,0,0,1,209,275.89Z" transform="translate(439.3 561.06) rotate(-180)"/><polygon class="k" points="254.14 269.23 254.14 200.09 229.76 200.09 217.9 269.23 216.63 269.23 215.63 275.89 231.12 275.89 232.12 269.23 231.43 269.23 240.95 213.74 240.95 269.23 239.8 269.23 239.8 275.89 255.29 275.89 255.29 269.23 254.14 269.23"/><path d="M249,161.05h0v-7h-7a7,7,0,0,0-7,7,6.92,6.92,0,0,0,.73,3.08l3.27-7.46,10,4.39h0Z"/><path class="l" d="M249,161.08l-10-4.39-3.27,7.46a7,7,0,0,0,3.27,3.23v4.32l3,3,3-3v-4.32A7,7,0,0,0,249,161.08Z"/></svg>