<svg xmlns="http://www.w3.org/2000/svg" xmlns:xlink="http://www.w3.org/1999/xlink" viewBox="0 0 547.07 462.17"><defs><style>.a{fill:#e2e2e2;}.b{fill:url(#a);}.c{fill:#c8c8c8;}.d{opacity:0.5;fill:url(#b);}.e{fill:#ffc629;}.f{fill:url(#c);}.g{fill:url(#d);}.h{fill:#fff;}.i{fill:#995209;}.j{fill:#ff595a;}.k{fill:#003d4c;}.l{fill:#cc6d0c;}</style><linearGradient id="a" x1="-49.06" y1="123.35" x2="319.94" y2="194.35" gradientUnits="userSpaceOnUse"><stop offset="0" stop-color="#fff"/><stop offset="1" stop-color="#fff" stop-opacity="0"/></linearGradient><radialGradient id="b" cx="341.07" cy="178.6" r="181.16" gradientUnits="userSpaceOnUse"><stop offset="0" stop-color="#aaa"/><stop offset="1" stop-color="#aaa" stop-opacity="0"/></radialGradient><linearGradient id="c" x1="288.57" y1="179.32" x2="288.57" y2="278.65" gradientUnits="userSpaceOnUse"><stop offset="0" stop-color="#f5a503"/><stop offset="1" stop-color="#f5a503" stop-opacity="0"/></linearGradient><linearGradient id="d" x1="285.57" y1="319.53" x2="285.57" y2="344.23" xlink:href="#c"/></defs><title>10x15</title><polygon points="547.07 297.33 538.55 298.5 541.31 300.08 415.9 372.48 416.4 373.35 541.81 300.95 541.8 304.13 547.07 297.33"/><polygon points="385.23 391.35 384.73 390.48 266.82 458.56 266.83 455.38 261.56 462.17 270.08 461.01 267.32 459.43 385.23 391.35"/><polygon points="219.23 462.17 213.97 455.37 213.98 458.55 137.99 414.44 137.49 415.31 213.47 459.41 210.71 460.99 219.23 462.17"/><polygon points="106.81 396.44 33.99 354.63 36.75 353.04 28.23 351.9 33.51 358.68 33.49 355.5 106.31 397.31 106.81 396.44"/><polygon points="28.73 345.54 28.73 283.52 27.73 283.52 27.73 345.54 24.98 343.94 28.23 351.9 31.48 343.94 28.73 345.54"/><polygon points="31.48 185.69 28.23 177.73 24.98 185.69 27.73 184.09 27.73 247.52 28.73 247.52 28.73 184.09 31.48 185.69"/><path d="M7.91,262a4.08,4.08,0,0,1-.51,2.05A3.78,3.78,0,0,1,6,265.45,3.88,3.88,0,0,1,7.62,267a4.33,4.33,0,0,1,.59,2.24,4.41,4.41,0,0,1-1.13,3.17,3.92,3.92,0,0,1-3,1.19,3.93,3.93,0,0,1-3-1.19A4.4,4.4,0,0,1,0,269.2a4.49,4.49,0,0,1,.57-2.26,3.84,3.84,0,0,1,1.57-1.5A3.59,3.59,0,0,1,.78,264a4.11,4.11,0,0,1-.5-2,4.37,4.37,0,0,1,1.05-3.08,3.6,3.6,0,0,1,2.77-1.14,3.6,3.6,0,0,1,2.76,1.13A4.35,4.35,0,0,1,7.91,262Zm-1.57,7.16a3.35,3.35,0,0,0-.62-2.11,2,2,0,0,0-1.64-.8,1.93,1.93,0,0,0-1.63.8,3.45,3.45,0,0,0-.59,2.11,3.25,3.25,0,0,0,.58,2.07A2,2,0,0,0,4.1,272a2,2,0,0,0,1.66-.74A3.31,3.31,0,0,0,6.34,269.16ZM6.05,262a3.11,3.11,0,0,0-.55-1.91,1.66,1.66,0,0,0-1.4-.73,1.66,1.66,0,0,0-1.42.72A3.23,3.23,0,0,0,2.15,262a3.07,3.07,0,0,0,.54,1.91,1.7,1.7,0,0,0,1.41.71,1.69,1.69,0,0,0,1.43-.72A3.14,3.14,0,0,0,6.05,262Z"/><path d="M14.29,267.62H9.94V266h4.35Z"/><path d="M21.59,273.35H19.71v-13l-3.23,1.44V260l4.81-2.1h.3Z"/><path d="M34.9,266.8a10.27,10.27,0,0,1-1,5.08,3.35,3.35,0,0,1-3.11,1.68A3.38,3.38,0,0,1,27.73,272a9.5,9.5,0,0,1-1.06-4.85v-2.64a9.89,9.89,0,0,1,1-5,3.36,3.36,0,0,1,3.11-1.66,3.39,3.39,0,0,1,3.07,1.57,9.45,9.45,0,0,1,1,4.76ZM33,264.13a9.18,9.18,0,0,0-.53-3.59,1.8,1.8,0,0,0-1.72-1.15,1.76,1.76,0,0,0-1.69,1.13,8.42,8.42,0,0,0-.56,3.42v3.16a9,9,0,0,0,.56,3.65A1.81,1.81,0,0,0,30.8,272a1.76,1.76,0,0,0,1.67-1.15,8.81,8.81,0,0,0,.56-3.51Z"/><path d="M37.76,262.32l-1-.76a5.77,5.77,0,0,0,.86-2.87v-1.54h1.84v1.42a5.31,5.31,0,0,1-.47,2.05A4.62,4.62,0,0,1,37.76,262.32Z"/><path d="M394.14,389.74h-1.87v-13L389,378.18v-1.77l4.81-2.1h.29Z"/><path d="M400,382l.66-7.65h6.68v1.8h-5.11l-.35,4.19a3.5,3.5,0,0,1,2-.67,3.3,3.3,0,0,1,2.82,1.4,6.17,6.17,0,0,1,1,3.74,5.73,5.73,0,0,1-1.11,3.74,4.1,4.1,0,0,1-5.87.24,4.94,4.94,0,0,1-1.25-3.13h1.76a3.5,3.5,0,0,0,.75,2,2,2,0,0,0,1.55.67,1.9,1.9,0,0,0,1.7-.94,4.63,4.63,0,0,0,.61-2.55,4.33,4.33,0,0,0-.65-2.46,2.08,2.08,0,0,0-1.78-1A2.21,2.21,0,0,0,402,382l-.49.49Z"/><path d="M410.31,378.71l-1-.76a5.75,5.75,0,0,0,.85-2.87v-1.54H412V375a5.54,5.54,0,0,1-.47,2A4.6,4.6,0,0,1,410.31,378.71Z"/><path d="M115.72,413.7h-1.87v-13l-3.23,1.45v-1.78l4.81-2.1h.29Z"/><path d="M129,407.15a10.24,10.24,0,0,1-1,5.08,3.71,3.71,0,0,1-6.18.07,9.57,9.57,0,0,1-1-4.85v-2.64a10,10,0,0,1,1-5,3.77,3.77,0,0,1,6.18-.08,9.22,9.22,0,0,1,1,4.76Zm-1.86-2.66a8.93,8.93,0,0,0-.54-3.59,1.8,1.8,0,0,0-1.72-1.16,1.78,1.78,0,0,0-1.69,1.13,8.65,8.65,0,0,0-.56,3.43v3.16a9.13,9.13,0,0,0,.56,3.64,1.82,1.82,0,0,0,1.71,1.22,1.76,1.76,0,0,0,1.68-1.15,8.92,8.92,0,0,0,.56-3.51Z"/><path d="M131.89,402.67l-1-.76a5.72,5.72,0,0,0,.85-2.87V397.5h1.85v1.43a5.54,5.54,0,0,1-.47,2.05A4.72,4.72,0,0,1,131.89,402.67Z"/><polygon class="a" points="336.06 0 51.07 164.54 51.07 340.06 336.06 175.52 336.06 0"/><polygon class="b" points="336.06 0 51.07 164.54 51.07 340.06 336.06 175.52 336.06 0"/><polygon class="c" points="526.07 109.69 526.07 285.21 336.06 175.52 336.06 0 526.07 109.69"/><polygon class="d" points="526.07 109.69 526.07 285.21 336.06 175.52 336.06 0 526.07 109.69"/><polygon class="e" points="241.07 449.76 51.07 340.06 336.07 175.51 526.07 285.21 241.07 449.76"/><polygon class="f" points="241.07 449.76 51.07 340.06 336.07 175.51 526.07 285.21 241.07 449.76"/><path class="g" d="M291.37,315.23v9.29h-1.15v6.65h1.15v22.11h13.2V331.17h1.14v-6.65a6,6,0,0,0,6-6v-3.29Zm-9.52,15.94h.69l-1-6.65h-.84v-9.29H259.44v3.29a6,6,0,0,0,6,6h.61l1,6.65h1.28l3.79,22.11h13.52Z"/><polygon class="h" points="51.32 340.49 50.82 339.63 336.06 174.94 336.31 175.08 526.32 284.77 525.82 285.64 336.06 176.09 51.32 340.49"/><rect class="h" x="335.56" width="1" height="175.52"/><rect class="h" x="164.57" y="274.24" width="1" height="219.39" transform="translate(-249.97 334.92) rotate(-60)"/><rect class="h" x="183.57" y="263.27" width="1" height="219.39" transform="translate(-230.97 345.89) rotate(-60)"/><rect class="h" x="202.57" y="252.3" width="1" height="219.39" transform="translate(-211.97 356.86) rotate(-60)"/><rect class="h" x="221.57" y="241.33" width="1" height="219.39" transform="translate(-192.97 367.83) rotate(-60)"/><rect class="h" x="240.57" y="230.36" width="1" height="219.39" transform="translate(-173.97 378.8) rotate(-60)"/><rect class="h" x="259.57" y="219.39" width="1" height="219.39" transform="translate(-154.97 389.77) rotate(-60)"/><rect class="h" x="278.57" y="208.42" width="1" height="219.39" transform="translate(-135.97 400.74) rotate(-60)"/><rect class="h" x="297.57" y="197.45" width="1" height="219.39" transform="translate(-116.97 411.71) rotate(-60)"/><rect class="h" x="316.57" y="186.48" width="1" height="219.39" transform="translate(-97.97 422.68) rotate(-60)"/><rect class="h" x="335.57" y="175.51" width="1" height="219.39" transform="translate(-78.97 433.65) rotate(-60)"/><rect class="h" x="354.57" y="164.55" width="1" height="219.39" transform="translate(-59.97 444.62) rotate(-60)"/><rect class="h" x="373.57" y="153.58" width="1" height="219.39" transform="translate(-40.97 455.59) rotate(-60)"/><rect class="h" x="392.57" y="142.61" width="1" height="219.39" transform="translate(-21.97 466.56) rotate(-60)"/><rect class="h" x="411.57" y="131.64" width="1" height="219.39" transform="translate(-2.97 477.53) rotate(-60)"/><rect class="h" x="48.02" y="268.26" width="329.09" height="1" transform="translate(-105.89 142.26) rotate(-29.99)"/><rect class="h" x="67.02" y="279.23" width="329.09" height="1" transform="translate(-108.83 153.23) rotate(-29.99)"/><rect class="h" x="86.02" y="290.2" width="329.09" height="1" transform="translate(-111.77 164.2) rotate(-29.99)"/><rect class="h" x="105.02" y="301.17" width="329.09" height="1" transform="translate(-114.71 175.16) rotate(-29.99)"/><rect class="h" x="124.02" y="312.14" width="329.09" height="1" transform="translate(-117.65 186.13) rotate(-29.99)"/><rect class="h" x="143.02" y="323.11" width="329.09" height="1" transform="translate(-120.58 197.1) rotate(-29.99)"/><rect class="h" x="162.02" y="334.07" width="329.09" height="1" transform="translate(-123.52 208.07) rotate(-29.99)"/><rect class="h" x="181.02" y="345.04" width="329.09" height="1" transform="translate(-126.46 219.03) rotate(-29.99)"/><rect class="h" x="200.02" y="356.01" width="329.09" height="1" transform="translate(-129.4 230) rotate(-29.99)"/><polygon class="i" points="304.56 241.33 311.16 234.73 306.56 230.14 304.56 230.14 304.56 241.33"/><polygon class="i" points="280.18 241.33 273.59 234.73 278.18 230.14 280.18 230.14 280.18 241.33"/><path class="j" d="M322.52,217.72l-15.95-16v0H278.18l-15.95,16a4,4,0,0,0,0,5.65l11.36,11.37,4.59-4.6-9.59-9.59,9.59-9.6v19.19h28.38V211l9.59,9.6-9.59,9.59,4.59,4.6,11.36-11.37A4,4,0,0,0,322.52,217.72Z"/><path d="M291.37,305.94h14.34a6,6,0,0,1,6,6v3.28a0,0,0,0,1,0,0H291.37a0,0,0,0,1,0,0v-9.28A0,0,0,0,1,291.37,305.94Z"/><path d="M259.44,305.94H280.7a0,0,0,0,1,0,0v3.28a6,6,0,0,1-6,6H259.44a0,0,0,0,1,0,0v-9.28A0,0,0,0,1,259.44,305.94Z" transform="translate(540.14 621.17) rotate(-180)"/><polygon class="k" points="304.56 299.29 304.56 230.14 280.18 230.14 268.32 299.29 267.05 299.29 266.05 305.94 281.54 305.94 282.54 299.29 281.85 299.29 291.37 243.79 291.37 299.29 290.22 299.29 290.22 305.94 305.71 305.94 305.71 299.29 304.56 299.29"/><path d="M299.37,191.11h0v-7h-7a7,7,0,0,0-6.27,10.09l3.27-7.47,10,4.39h0Z"/><path class="l" d="M299.37,191.13l-10-4.39-3.27,7.47a7,7,0,0,0,3.27,3.23v4.32l3,3,3-3v-4.32A7,7,0,0,0,299.37,191.13Z"/></svg>