<svg xmlns="http://www.w3.org/2000/svg" xmlns:xlink="http://www.w3.org/1999/xlink" viewBox="0 0 641.74 516.73"><defs><style>.a{fill:#c8c8c8;}.b,.f{opacity:0.5;}.b{fill:url(#a);}.c{fill:#ffc629;}.d{fill:url(#b);}.e{fill:#e2e2e2;}.f{fill:url(#c);}.g{fill:url(#d);}.h{fill:#fff;}.i{fill:#995209;}.j{fill:#ff595a;}.k{fill:#003d4c;}.l{fill:#cc6d0c;}</style><radialGradient id="a" cx="438.75" cy="178.6" r="170.87" gradientUnits="userSpaceOnUse"><stop offset="0" stop-color="#aaa"/><stop offset="1" stop-color="#aaa" stop-opacity="0"/></radialGradient><linearGradient id="b" x1="335.74" y1="183.62" x2="335.74" y2="311.62" gradientUnits="userSpaceOnUse"><stop offset="0" stop-color="#f5a503"/><stop offset="1" stop-color="#f5a503" stop-opacity="0"/></linearGradient><linearGradient id="c" x1="-23.44" y1="159.85" x2="408.54" y2="221.34" gradientUnits="userSpaceOnUse"><stop offset="0" stop-color="#fff"/><stop offset="1" stop-color="#fff" stop-opacity="0"/></linearGradient><linearGradient id="d" x1="331.77" y1="344.76" x2="331.77" y2="369.46" xlink:href="#b"/></defs><title>10x20</title><polygon points="641.74 297.33 633.23 298.5 635.99 300.08 463.08 399.91 463.58 400.77 636.49 300.95 636.48 304.13 641.74 297.33"/><polygon points="432.41 418.77 431.91 417.9 267 513.12 267.01 509.93 261.74 516.73 270.26 515.57 267.5 513.98 432.41 418.77"/><polygon points="219.9 516.73 214.63 509.93 214.64 513.12 144.74 472.76 144.24 473.62 214.14 513.98 211.38 515.57 219.9 516.73"/><polygon points="113.15 454.52 34.66 409.2 37.42 407.62 28.9 406.46 34.17 413.25 34.16 410.07 112.65 455.39 113.15 454.52"/><polygon points="29.4 400.1 29.4 338.41 28.4 338.41 28.4 400.09 25.65 398.5 28.9 406.46 32.15 398.5 29.4 400.1"/><polygon points="32.15 239.96 28.9 232 25.65 239.96 28.4 238.37 28.4 302.08 29.4 302.08 29.4 238.37 32.15 239.96"/><path d="M444.35,417.17h-8.59v-1.41l4.38-5.8a12.7,12.7,0,0,0,1.38-2.2,4.5,4.5,0,0,0,.38-1.82,3.23,3.23,0,0,0-.57-2,1.8,1.8,0,0,0-1.5-.76,2.15,2.15,0,0,0-1.8.81,3.64,3.64,0,0,0-.64,2.32h-1.87a5,5,0,0,1,1.16-3.42,4,4,0,0,1,3.15-1.31,3.75,3.75,0,0,1,2.89,1.12,4.17,4.17,0,0,1,1.06,3q0,2.28-2.37,5.39L438,415.57h6.36Z"/><path d="M454.63,410.62a10.22,10.22,0,0,1-1,5.07,3.71,3.71,0,0,1-6.18.07,9.46,9.46,0,0,1-1-4.85v-2.63a10,10,0,0,1,1-5,3.76,3.76,0,0,1,6.18-.09,9.22,9.22,0,0,1,1.05,4.76ZM452.76,408a9,9,0,0,0-.53-3.59,1.81,1.81,0,0,0-1.72-1.16,1.77,1.77,0,0,0-1.69,1.14,8.56,8.56,0,0,0-.56,3.42v3.16a9.22,9.22,0,0,0,.56,3.65,1.8,1.8,0,0,0,1.71,1.21,1.77,1.77,0,0,0,1.68-1.14,9,9,0,0,0,.55-3.52Z"/><path d="M457.49,406.13l-1-.75a5.89,5.89,0,0,0,.85-2.87V401h1.85v1.42a5.49,5.49,0,0,1-.47,2.05A4.72,4.72,0,0,1,457.49,406.13Z"/><path d="M7.91,316.56a4,4,0,0,1-.51,2A3.74,3.74,0,0,1,6,320a3.82,3.82,0,0,1,1.6,1.51,4.31,4.31,0,0,1,.59,2.24,4.42,4.42,0,0,1-1.13,3.17,3.92,3.92,0,0,1-3,1.19,3.93,3.93,0,0,1-3-1.19A4.42,4.42,0,0,1,0,323.76a4.46,4.46,0,0,1,.57-2.26A3.8,3.8,0,0,1,2.14,320,3.56,3.56,0,0,1,.78,318.6a4.16,4.16,0,0,1-.5-2,4.36,4.36,0,0,1,1.05-3.08,3.6,3.6,0,0,1,2.77-1.14,3.57,3.57,0,0,1,2.76,1.13A4.35,4.35,0,0,1,7.91,316.56Zm-1.57,7.16a3.38,3.38,0,0,0-.62-2.12,2,2,0,0,0-1.64-.79,1.91,1.91,0,0,0-1.63.8,3.43,3.43,0,0,0-.59,2.11,3.24,3.24,0,0,0,.58,2.06,2,2,0,0,0,1.66.74,2,2,0,0,0,1.66-.74A3.3,3.3,0,0,0,6.34,323.72Zm-.29-7.13a3.09,3.09,0,0,0-.55-1.91,1.67,1.67,0,0,0-1.4-.74,1.65,1.65,0,0,0-1.42.73,3.19,3.19,0,0,0-.53,1.92,3.07,3.07,0,0,0,.54,1.91,1.69,1.69,0,0,0,1.41.7,1.71,1.71,0,0,0,1.43-.71A3.14,3.14,0,0,0,6.05,316.59Z"/><path d="M14.29,322.18H9.94v-1.59h4.35Z"/><path d="M21.59,327.9H19.71v-13l-3.23,1.45v-1.78l4.81-2.09h.3Z"/><path d="M34.9,321.36a10.22,10.22,0,0,1-1,5.07,3.34,3.34,0,0,1-3.11,1.69,3.37,3.37,0,0,1-3.07-1.62,9.45,9.45,0,0,1-1.06-4.85V319a9.92,9.92,0,0,1,1-5,3.37,3.37,0,0,1,3.11-1.65,3.37,3.37,0,0,1,3.07,1.57,9.42,9.42,0,0,1,1,4.76ZM33,318.69a9.14,9.14,0,0,0-.53-3.59,1.81,1.81,0,0,0-1.72-1.16,1.78,1.78,0,0,0-1.69,1.13,8.47,8.47,0,0,0-.56,3.43v3.16a9,9,0,0,0,.56,3.65,1.8,1.8,0,0,0,1.71,1.21,1.74,1.74,0,0,0,1.67-1.15,8.74,8.74,0,0,0,.56-3.51Z"/><path d="M37.76,316.87l-1-.76a5.74,5.74,0,0,0,.86-2.87V311.7h1.84v1.43a5.35,5.35,0,0,1-.47,2.05A4.58,4.58,0,0,1,37.76,316.87Z"/><path d="M122.48,472H120.6V459l-3.23,1.45v-1.77l4.81-2.1h.3Z"/><path d="M135.79,465.47a10.29,10.29,0,0,1-1,5.08,3.72,3.72,0,0,1-6.18.06,9.45,9.45,0,0,1-1.06-4.85v-2.63a9.87,9.87,0,0,1,1-5,3.35,3.35,0,0,1,3.1-1.66,3.39,3.39,0,0,1,3.08,1.57,9.42,9.42,0,0,1,1,4.76Zm-1.87-2.67a9,9,0,0,0-.54-3.59,1.8,1.8,0,0,0-1.72-1.16,1.76,1.76,0,0,0-1.68,1.14,8.38,8.38,0,0,0-.56,3.42v3.16a9,9,0,0,0,.56,3.65,1.81,1.81,0,0,0,1.71,1.22,1.77,1.77,0,0,0,1.67-1.15,8.83,8.83,0,0,0,.56-3.52Z"/><path d="M138.65,461l-1.05-.76a5.8,5.8,0,0,0,.86-2.87v-1.54h1.84v1.42a5.31,5.31,0,0,1-.47,2.05A4.74,4.74,0,0,1,138.65,461Z"/><polygon class="a" points="620.74 109.69 620.74 285.21 430.74 175.52 430.74 0 620.74 109.69"/><polygon class="b" points="620.74 109.69 620.74 285.21 430.74 175.52 430.74 0 620.74 109.69"/><polygon class="c" points="240.74 504.6 50.74 394.91 430.74 175.51 620.74 285.21 240.74 504.6"/><polygon class="d" points="240.74 504.6 50.74 394.91 430.74 175.51 620.74 285.21 240.74 504.6"/><polygon class="e" points="430.74 0 430.74 175.52 50.74 394.91 50.74 219.39 430.74 0"/><polygon class="f" points="430.74 0 430.74 175.52 50.74 394.91 50.74 219.39 430.74 0"/><path class="g" d="M337.56,340.46v9.29h-1.15v6.64h1.15V378.5h13.2V356.39h1.14v-6.64a6,6,0,0,0,6-6v-3.29ZM328,356.39h.69l-1-6.64h-.84v-9.29H305.63v3.29a6,6,0,0,0,6,6h.61l1,6.64h1.28l3.79,22.11h13.52Z"/><rect class="h" x="164.24" y="329.09" width="1" height="219.39" transform="translate(-297.63 362.06) rotate(-60)"/><rect class="h" x="183.24" y="318.12" width="1" height="219.39" transform="translate(-278.63 373.03) rotate(-60)"/><rect class="h" x="202.24" y="307.15" width="1" height="219.39" transform="translate(-259.63 384) rotate(-60)"/><rect class="h" x="221.24" y="296.18" width="1" height="219.39" transform="translate(-240.63 394.97) rotate(-60)"/><rect class="h" x="240.24" y="285.21" width="1" height="219.39" transform="translate(-221.63 405.94) rotate(-60)"/><rect class="h" x="259.24" y="274.24" width="1" height="219.39" transform="translate(-202.63 416.91) rotate(-60)"/><rect class="h" x="278.24" y="263.27" width="1" height="219.39" transform="translate(-183.63 427.88) rotate(-60)"/><rect class="h" x="297.24" y="252.3" width="1" height="219.39" transform="translate(-164.63 438.85) rotate(-60)"/><rect class="h" x="316.24" y="241.33" width="1" height="219.39" transform="translate(-145.63 449.82) rotate(-60)"/><rect class="h" x="335.24" y="230.36" width="1" height="219.39" transform="translate(-126.63 460.79) rotate(-60)"/><rect class="h" x="354.24" y="219.39" width="1" height="219.39" transform="translate(-107.63 471.76) rotate(-60)"/><rect class="h" x="373.24" y="208.42" width="1" height="219.39" transform="translate(-88.63 482.73) rotate(-60)"/><rect class="h" x="392.24" y="197.45" width="1" height="219.39" transform="translate(-69.63 493.7) rotate(-60)"/><rect class="h" x="411.24" y="186.48" width="1" height="219.39" transform="translate(-50.63 504.67) rotate(-60)"/><rect class="h" x="430.24" y="175.51" width="1" height="219.39" transform="translate(-31.63 515.64) rotate(-60)"/><rect class="h" x="449.24" y="164.54" width="1" height="219.39" transform="translate(-12.63 526.61) rotate(-60)"/><rect class="h" x="468.24" y="153.58" width="1" height="219.39" transform="translate(6.37 537.58) rotate(-60)"/><rect class="h" x="487.24" y="142.61" width="1" height="219.39" transform="translate(25.37 548.55) rotate(-60)"/><rect class="h" x="506.24" y="131.64" width="1" height="219.39" transform="translate(44.37 559.52) rotate(-60)"/><rect class="h" x="40.35" y="295.68" width="438.79" height="1" transform="translate(-113.28 169.52) rotate(-29.99)"/><rect class="h" x="59.35" y="306.65" width="438.79" height="1" transform="translate(-116.22 180.49) rotate(-29.99)"/><rect class="h" x="78.35" y="317.62" width="438.79" height="1" transform="translate(-119.16 191.45) rotate(-29.99)"/><rect class="h" x="97.35" y="328.59" width="438.79" height="1" transform="translate(-122.1 202.42) rotate(-29.99)"/><rect class="h" x="116.35" y="339.56" width="438.79" height="1" transform="translate(-125.04 213.39) rotate(-29.99)"/><rect class="h" x="135.35" y="350.53" width="438.79" height="1" transform="translate(-127.98 224.36) rotate(-29.99)"/><rect class="h" x="154.35" y="361.5" width="438.79" height="1" transform="translate(-130.92 235.32) rotate(-29.99)"/><rect class="h" x="173.35" y="372.47" width="438.79" height="1" transform="translate(-133.85 246.29) rotate(-29.99)"/><rect class="h" x="192.35" y="383.44" width="438.79" height="1" transform="translate(-136.79 257.26) rotate(-29.99)"/><polygon class="h" points="50.99 395.34 50.49 394.48 430.74 174.94 430.99 175.08 620.99 284.77 620.49 285.64 430.74 176.09 50.99 395.34"/><rect class="h" x="430.24" width="1" height="175.52"/><polygon class="i" points="350.76 266.56 357.35 259.96 352.76 255.37 350.76 255.37 350.76 266.56"/><polygon class="i" points="326.37 266.56 319.78 259.96 324.37 255.37 326.37 255.37 326.37 266.56"/><path class="j" d="M368.71,243l-15.95-16v0H324.37l-15.95,16a4,4,0,0,0,0,5.65L319.78,260l4.59-4.6-9.59-9.59,9.59-9.6v19.19h28.39V236.18l9.59,9.6-9.59,9.59,4.59,4.6,11.36-11.37A4,4,0,0,0,368.71,243Z"/><path d="M337.56,331.17H351.9a6,6,0,0,1,6,6v3.28a0,0,0,0,1,0,0H337.56a0,0,0,0,1,0,0v-9.28A0,0,0,0,1,337.56,331.17Z"/><path d="M305.63,331.17h21.27a0,0,0,0,1,0,0v3.28a6,6,0,0,1-6,6H305.63a0,0,0,0,1,0,0v-9.28A0,0,0,0,1,305.63,331.17Z" transform="translate(632.52 671.63) rotate(-180)"/><polygon class="k" points="350.76 324.52 350.76 255.37 326.37 255.37 314.51 324.52 313.24 324.52 312.24 331.17 327.73 331.17 328.73 324.52 328.04 324.52 337.56 269.02 337.56 324.52 336.41 324.52 336.41 331.17 351.9 331.17 351.9 324.52 350.76 324.52"/><path d="M345.56,216.34h0v-7h-7a7,7,0,0,0-6.27,10.09l3.27-7.47,10,4.39h0Z"/><path class="l" d="M345.56,216.36l-10-4.39-3.27,7.47a7,7,0,0,0,3.27,3.22V227l3,3,3-3v-4.32A7,7,0,0,0,345.56,216.36Z"/></svg>