<svg xmlns="http://www.w3.org/2000/svg" xmlns:xlink="http://www.w3.org/1999/xlink" viewBox="0 0 253.39 295.89"><defs><style>.a{fill:#e2e2e2;}.b{fill:url(#a);}.c{fill:#c8c8c8;}.d{opacity:0.5;fill:url(#b);}.e{fill:#ffc629;}.f{fill:url(#c);}.g{fill:url(#d);}.h{fill:#fff;}.i{fill:#995209;}.j{fill:#ff595a;}.k{fill:#003d4c;}.l{fill:#cc6d0c;}</style><linearGradient id="a" x1="-13.32" y1="-12.89" x2="139.68" y2="171.6" gradientUnits="userSpaceOnUse"><stop offset="0" stop-color="#fff"/><stop offset="1" stop-color="#fff" stop-opacity="0"/></linearGradient><radialGradient id="b" cx="144.4" cy="176.68" r="160.69" gradientUnits="userSpaceOnUse"><stop offset="0" stop-color="#aaa"/><stop offset="1" stop-color="#aaa" stop-opacity="0"/></radialGradient><linearGradient id="c" x1="140.4" y1="181.74" x2="140.4" y2="238.75" gradientUnits="userSpaceOnUse"><stop offset="0" stop-color="#f5a503"/><stop offset="1" stop-color="#f5a503" stop-opacity="0"/></linearGradient><linearGradient id="d" x1="133.59" y1="235.08" x2="133.59" y2="259.78" xlink:href="#c"/></defs><title>5x5</title><polygon points="253.4 241.33 244.88 242.51 247.64 244.09 221.23 259.39 221.73 260.25 248.14 244.95 248.14 248.14 253.4 241.33"/><polygon points="190.55 278.25 190.06 277.39 164.16 292.29 164.18 289.11 158.9 295.89 167.42 294.74 164.66 293.15 190.55 278.25"/><polygon points="121.65 295.75 116.37 288.96 116.38 292.14 90.73 277.39 90.23 278.25 115.88 293.01 113.13 294.6 121.65 295.75"/><polygon points="59.55 259.39 34.15 244.67 36.91 243.09 28.4 241.91 33.65 248.72 33.65 245.53 59.05 260.25 59.55 259.39"/><polygon points="28.9 235.55 28.9 175.53 27.9 175.53 27.9 235.55 25.14 233.95 28.4 241.91 31.65 233.95 28.9 235.55"/><polygon points="31.65 72.62 28.4 64.66 25.14 72.62 27.9 71.02 27.9 139.53 28.9 139.53 28.9 71.02 31.65 72.62"/><path d="M7.91,154a4.08,4.08,0,0,1-.51,2.05A3.78,3.78,0,0,1,6,157.46,3.82,3.82,0,0,1,7.62,159a4.33,4.33,0,0,1,.59,2.24,4.41,4.41,0,0,1-1.13,3.17,3.92,3.92,0,0,1-3,1.19,3.92,3.92,0,0,1-3-1.19A4.4,4.4,0,0,1,0,161.21,4.49,4.49,0,0,1,.57,159a3.84,3.84,0,0,1,1.57-1.5,3.59,3.59,0,0,1-1.36-1.4,4.11,4.11,0,0,1-.5-2,4.37,4.37,0,0,1,1.05-3.08,3.6,3.6,0,0,1,2.77-1.14,3.6,3.6,0,0,1,2.76,1.13A4.35,4.35,0,0,1,7.91,154Zm-1.57,7.16a3.35,3.35,0,0,0-.62-2.11,2,2,0,0,0-1.64-.8,1.93,1.93,0,0,0-1.63.8,3.45,3.45,0,0,0-.59,2.11,3.25,3.25,0,0,0,.58,2.07A2,2,0,0,0,4.1,164a2,2,0,0,0,1.66-.74A3.25,3.25,0,0,0,6.34,161.17ZM6.05,154a3.17,3.17,0,0,0-.54-1.91,1.69,1.69,0,0,0-1.41-.73,1.66,1.66,0,0,0-1.42.72A3.23,3.23,0,0,0,2.15,154,3.07,3.07,0,0,0,2.69,156a1.7,1.7,0,0,0,1.41.71,1.69,1.69,0,0,0,1.43-.72A3.14,3.14,0,0,0,6.05,154Z"/><path d="M14.29,159.63H9.94V158h4.35Z"/><path d="M21.59,165.36H19.71v-13l-3.23,1.44V152l4.81-2.1h.3Z"/><path d="M34.9,158.81a10.27,10.27,0,0,1-1,5.08,3.35,3.35,0,0,1-3.11,1.68A3.38,3.38,0,0,1,27.73,164a9.5,9.5,0,0,1-1.06-4.85v-2.64a10,10,0,0,1,1-5,3.36,3.36,0,0,1,3.11-1.66,3.39,3.39,0,0,1,3.07,1.57,9.35,9.35,0,0,1,1,4.76ZM33,156.14a9.18,9.18,0,0,0-.53-3.59,1.8,1.8,0,0,0-1.72-1.15,1.76,1.76,0,0,0-1.69,1.13,8.42,8.42,0,0,0-.56,3.42v3.16a9.19,9.19,0,0,0,.56,3.65A1.81,1.81,0,0,0,30.8,164a1.76,1.76,0,0,0,1.67-1.15,8.81,8.81,0,0,0,.56-3.51Z"/><path d="M37.76,154.33l-1-.76a5.77,5.77,0,0,0,.86-2.87v-1.54h1.84v1.42a5.31,5.31,0,0,1-.47,2A4.62,4.62,0,0,1,37.76,154.33Z"/><path d="M200,269l.66-7.66h6.68v1.81h-5.1l-.36,4.18a3.49,3.49,0,0,1,2-.66,3.3,3.3,0,0,1,2.82,1.39,6.22,6.22,0,0,1,1,3.75,5.77,5.77,0,0,1-1.11,3.74,4.09,4.09,0,0,1-5.87.23,4.88,4.88,0,0,1-1.24-3.12h1.75a3.53,3.53,0,0,0,.75,2,2,2,0,0,0,1.56.67,1.91,1.91,0,0,0,1.69-.95,4.59,4.59,0,0,0,.62-2.54,4.21,4.21,0,0,0-.66-2.46,2.07,2.07,0,0,0-1.78-.95,2.18,2.18,0,0,0-1.49.49l-.49.49Z"/><path d="M210.3,265.62l-1-.76a5.75,5.75,0,0,0,.85-2.87v-1.54H212v1.42a5.31,5.31,0,0,1-.47,2.05A4.64,4.64,0,0,1,210.3,265.62Z"/><path d="M69,269l.67-7.66h6.67v1.81h-5.1l-.36,4.18a3.49,3.49,0,0,1,2-.66A3.3,3.3,0,0,1,75.74,268a6.22,6.22,0,0,1,1,3.75,5.77,5.77,0,0,1-1.11,3.74,4.09,4.09,0,0,1-5.87.23,4.88,4.88,0,0,1-1.24-3.12h1.75a3.53,3.53,0,0,0,.75,2,2,2,0,0,0,1.56.67,1.93,1.93,0,0,0,1.7-.95,4.68,4.68,0,0,0,.61-2.54,4.21,4.21,0,0,0-.66-2.46,2.07,2.07,0,0,0-1.78-.95,2.18,2.18,0,0,0-1.49.49l-.49.49Z"/><path d="M79.31,265.62l-1-.76a5.87,5.87,0,0,0,.86-2.87v-1.54H81v1.42a5.31,5.31,0,0,1-.47,2.05A4.74,4.74,0,0,1,79.31,265.62Z"/><polygon class="a" points="140.39 0 45.4 54.85 45.4 230.37 140.39 175.52 140.39 0"/><polygon class="b" points="140.39 0 45.4 54.85 45.4 230.37 140.39 175.52 140.39 0"/><polygon class="c" points="235.39 54.84 235.39 230.36 140.39 175.52 140.39 0 235.39 54.84"/><polygon class="d" points="235.39 54.84 235.39 230.36 140.39 175.52 140.39 0 235.39 54.84"/><polygon class="e" points="140.4 285.21 45.4 230.36 140.4 175.51 235.4 230.36 140.4 285.21"/><polygon class="f" points="140.4 285.21 45.4 230.36 140.4 175.51 235.4 230.36 140.4 285.21"/><path class="g" d="M139.39,230.77v9.29h-1.15v6.65h1.15v22.11h13.2V246.71h1.14v-6.65a6,6,0,0,0,6-6v-3.29Zm-9.52,15.94h.69l-1-6.65h-.84v-9.29H107.46v3.29a6,6,0,0,0,6,6h.61l1,6.65h1.28l3.79,22.11h13.52Z"/><rect class="h" x="111.4" y="191.97" width="1" height="109.7" transform="translate(-157.8 220.31) rotate(-60)"/><rect class="h" x="130.4" y="181" width="1" height="109.7" transform="translate(-138.8 231.28) rotate(-60)"/><rect class="h" x="149.4" y="170.03" width="1" height="109.7" transform="translate(-119.8 242.25) rotate(-60)"/><rect class="h" x="168.4" y="159.06" width="1" height="109.69" transform="translate(-100.8 253.22) rotate(-60)"/><rect class="h" x="57.05" y="213.41" width="109.7" height="1" transform="translate(-91.95 84.59) rotate(-29.99)"/><rect class="h" x="76.04" y="224.38" width="109.7" height="1" transform="translate(-94.89 95.55) rotate(-29.99)"/><rect class="h" x="95.05" y="235.35" width="109.7" height="1" transform="translate(-97.83 106.52) rotate(-29.99)"/><rect class="h" x="114.05" y="246.32" width="109.7" height="1" transform="translate(-100.77 117.49) rotate(-29.99)"/><polygon class="h" points="45.65 230.8 45.15 229.93 140.39 174.94 140.64 175.08 235.65 229.93 235.15 230.8 140.39 176.09 45.65 230.8"/><rect class="h" x="139.89" width="1" height="175.52"/><polygon class="i" points="152.58 156.66 159.18 150.06 154.58 145.47 152.58 145.47 152.58 156.66"/><polygon class="i" points="128.2 156.66 121.61 150.06 126.2 145.47 128.2 145.47 128.2 156.66"/><path class="j" d="M170.54,133.05l-15.95-16v0H126.2l-16,16a4,4,0,0,0,0,5.65l11.37,11.37,4.59-4.6-9.59-9.59,9.59-9.6v19.19h28.38V126.28l9.59,9.6-9.59,9.59,4.59,4.6,11.36-11.37A4,4,0,0,0,170.54,133.05Z"/><path d="M139.39,221.27h14.34a6,6,0,0,1,6,6v3.28a0,0,0,0,1,0,0H139.39a0,0,0,0,1,0,0v-9.28A0,0,0,0,1,139.39,221.27Z"/><path d="M107.45,221.27h21.27a0,0,0,0,1,0,0v3.28a6,6,0,0,1-6,6H107.45a0,0,0,0,1,0,0v-9.28A0,0,0,0,1,107.45,221.27Z" transform="translate(236.18 451.83) rotate(-180)"/><polygon class="k" points="152.58 214.62 152.58 145.47 128.2 145.47 116.34 214.62 115.07 214.62 114.07 221.27 129.56 221.27 130.56 214.62 129.87 214.62 139.39 159.12 139.39 214.62 138.24 214.62 138.24 221.27 153.73 221.27 153.73 214.62 152.58 214.62"/><path d="M147.39,106.44h0v-7h-7a7,7,0,0,0-7,7,6.92,6.92,0,0,0,.73,3.08l3.27-7.46,10,4.39h0Z"/><path class="l" d="M147.39,106.46l-10-4.39-3.27,7.46a6.92,6.92,0,0,0,3.27,3.23v4.33l3,3,3-3v-4.32A7,7,0,0,0,147.39,106.46Z"/></svg>