<svg xmlns="http://www.w3.org/2000/svg" xmlns:xlink="http://www.w3.org/1999/xlink" viewBox="0 0 737.57 571.57"><defs><style>.a{fill:#e2e2e2;}.b,.d{opacity:0.5;}.b{fill:url(#a);}.c{fill:#c8c8c8;}.d{fill:url(#b);}.e{fill:#ffc629;}.f{fill:url(#c);}.g{fill:#fff;}.h{fill:url(#d);}.i{fill:#995209;}.j{fill:#ff595a;}.k{fill:#003d4c;}.l{fill:#cc6d0c;}</style><linearGradient id="a" x1="-42.55" y1="87.5" x2="401.45" y2="271.5" gradientUnits="userSpaceOnUse"><stop offset="0" stop-color="#fff"/><stop offset="1" stop-color="#fff" stop-opacity="0"/></linearGradient><radialGradient id="b" cx="489.47" cy="243.1" r="231.33" gradientUnits="userSpaceOnUse"><stop offset="0" stop-color="#aaa"/><stop offset="1" stop-color="#aaa" stop-opacity="0"/></radialGradient><linearGradient id="c" x1="383.96" y1="184.97" x2="383.96" y2="334.3" gradientUnits="userSpaceOnUse"><stop offset="0" stop-color="#f5a503"/><stop offset="1" stop-color="#f5a503" stop-opacity="0"/></linearGradient><linearGradient id="d" x1="386.35" y1="378" x2="386.35" y2="402.71" xlink:href="#c"/></defs><title>10x25</title><polygon points="737.57 297.27 729.05 298.43 731.81 300.01 510.69 427.68 511.19 428.55 732.31 300.88 732.3 304.06 737.57 297.27"/><polygon points="473.24 450.46 472.74 449.59 267.72 567.96 267.73 564.78 262.46 571.57 270.98 570.41 268.22 568.83 473.24 450.46"/><polygon points="219.9 571.35 214.63 564.56 214.64 567.74 144.74 527.38 144.24 528.25 214.14 568.6 211.38 570.19 219.9 571.35"/><polygon points="113.15 509.14 34.66 463.83 37.42 462.24 28.9 461.08 34.17 467.88 34.16 464.69 112.65 510.01 113.15 509.14"/><polygon points="29.4 454.72 29.4 394.03 28.4 394.03 28.4 454.72 25.65 453.12 28.9 461.08 32.15 453.12 29.4 454.72"/><polygon points="32.15 295.22 28.9 287.26 25.65 295.22 28.4 293.63 28.4 357.7 29.4 357.7 29.4 293.63 32.15 295.22"/><path d="M490.62,449.75H482v-1.4l4.38-5.8a12.3,12.3,0,0,0,1.37-2.2,4.35,4.35,0,0,0,.39-1.82,3.23,3.23,0,0,0-.57-2,1.78,1.78,0,0,0-1.5-.76,2.18,2.18,0,0,0-1.81.81,3.68,3.68,0,0,0-.64,2.32H481.8a5,5,0,0,1,1.16-3.43,4,4,0,0,1,3.15-1.3,3.77,3.77,0,0,1,2.89,1.12,4.22,4.22,0,0,1,1.06,3c0,1.52-.8,3.31-2.38,5.39l-3.42,4.47h6.36Z"/><path d="M493.46,442.05l.67-7.65h6.67v1.8h-5.1l-.36,4.19a3.44,3.44,0,0,1,2.05-.67,3.3,3.3,0,0,1,2.81,1.4,6.17,6.17,0,0,1,1,3.74,5.73,5.73,0,0,1-1.11,3.74,3.72,3.72,0,0,1-3.05,1.36,3.76,3.76,0,0,1-2.82-1.12,4.93,4.93,0,0,1-1.24-3.13h1.75a3.57,3.57,0,0,0,.75,2,2,2,0,0,0,1.56.67,1.92,1.92,0,0,0,1.7-.94,4.71,4.71,0,0,0,.61-2.55,4.25,4.25,0,0,0-.66-2.46,2.07,2.07,0,0,0-1.78-.95,2.18,2.18,0,0,0-1.48.49l-.5.49Z"/><path d="M503.77,438.72l-1-.76a5.77,5.77,0,0,0,.86-2.87v-1.54h1.84V435a5.35,5.35,0,0,1-.47,2A4.7,4.7,0,0,1,503.77,438.72Z"/><path d="M7.91,372.18a4.08,4.08,0,0,1-.51,2.05A3.78,3.78,0,0,1,6,375.63a3.82,3.82,0,0,1,1.6,1.51,4.33,4.33,0,0,1,.59,2.24,4.42,4.42,0,0,1-1.13,3.17,3.92,3.92,0,0,1-3,1.19,3.93,3.93,0,0,1-3-1.19A4.42,4.42,0,0,1,0,379.38a4.46,4.46,0,0,1,.57-2.26,3.84,3.84,0,0,1,1.57-1.5,3.59,3.59,0,0,1-1.36-1.4,4.11,4.11,0,0,1-.5-2,4.37,4.37,0,0,1,1.05-3.08A3.6,3.6,0,0,1,4.1,368a3.6,3.6,0,0,1,2.76,1.13A4.35,4.35,0,0,1,7.91,372.18Zm-1.57,7.16a3.35,3.35,0,0,0-.62-2.11,2,2,0,0,0-1.64-.8,1.93,1.93,0,0,0-1.63.8,3.45,3.45,0,0,0-.59,2.11,3.25,3.25,0,0,0,.58,2.07,2,2,0,0,0,1.66.74,2,2,0,0,0,1.66-.74A3.31,3.31,0,0,0,6.34,379.34Zm-.29-7.13a3.09,3.09,0,0,0-.55-1.91,1.67,1.67,0,0,0-1.4-.74,1.67,1.67,0,0,0-1.42.73,3.23,3.23,0,0,0-.53,1.92,3.07,3.07,0,0,0,.54,1.91,1.7,1.7,0,0,0,1.41.71,1.69,1.69,0,0,0,1.43-.72A3.14,3.14,0,0,0,6.05,372.21Z"/><path d="M14.29,377.8H9.94v-1.59h4.35Z"/><path d="M21.59,383.53H19.71v-13L16.48,372V370.2l4.81-2.1h.3Z"/><path d="M34.9,377a10.27,10.27,0,0,1-1,5.08,3.35,3.35,0,0,1-3.11,1.68,3.38,3.38,0,0,1-3.07-1.61,9.52,9.52,0,0,1-1.06-4.86v-2.63a9.87,9.87,0,0,1,1-5A3.36,3.36,0,0,1,30.78,368a3.39,3.39,0,0,1,3.07,1.57,9.45,9.45,0,0,1,1,4.76ZM33,374.31a9.18,9.18,0,0,0-.53-3.59,1.81,1.81,0,0,0-1.72-1.16,1.77,1.77,0,0,0-1.69,1.14,8.38,8.38,0,0,0-.56,3.42v3.16a9,9,0,0,0,.56,3.65,1.81,1.81,0,0,0,1.71,1.22A1.76,1.76,0,0,0,32.47,381a8.81,8.81,0,0,0,.56-3.51Z"/><path d="M37.76,372.5l-1-.76a5.77,5.77,0,0,0,.86-2.87v-1.54h1.84v1.42a5.31,5.31,0,0,1-.47,2.05A4.62,4.62,0,0,1,37.76,372.5Z"/><path d="M122.48,526.64H120.6v-13l-3.23,1.44v-1.77l4.81-2.1h.3Z"/><path d="M135.79,520.09a10.24,10.24,0,0,1-1,5.08,3.73,3.73,0,0,1-6.18.07,9.5,9.5,0,0,1-1.06-4.85v-2.64a9.89,9.89,0,0,1,1-5,3.37,3.37,0,0,1,3.1-1.66,3.41,3.41,0,0,1,3.08,1.57,9.45,9.45,0,0,1,1,4.76Zm-1.87-2.67a9,9,0,0,0-.54-3.59,1.79,1.79,0,0,0-1.72-1.15,1.75,1.75,0,0,0-1.68,1.13,8.45,8.45,0,0,0-.56,3.42v3.17A9,9,0,0,0,130,524a1.81,1.81,0,0,0,1.71,1.22,1.76,1.76,0,0,0,1.67-1.15,8.81,8.81,0,0,0,.56-3.51Z"/><path d="M138.65,515.61l-1.05-.76a5.77,5.77,0,0,0,.86-2.87v-1.54h1.84v1.42a5.4,5.4,0,0,1-.47,2.06A4.79,4.79,0,0,1,138.65,515.61Z"/><polygon class="a" points="526.46 0 526.46 175.52 51.46 449.75 51.46 274.24 526.46 0"/><polygon class="b" points="526.46 0 526.46 175.52 51.46 449.75 51.46 274.24 526.46 0"/><polygon class="c" points="716.46 109.69 716.46 285.21 526.46 175.52 526.46 0 716.46 109.69"/><polygon class="d" points="716.46 109.69 716.46 285.21 526.46 175.52 526.46 0 716.46 109.69"/><polygon class="e" points="241.46 559.45 51.46 449.75 526.46 175.51 716.46 285.21 241.46 559.45"/><polygon class="f" points="241.46 559.45 51.46 449.75 526.46 175.51 716.46 285.21 241.46 559.45"/><polygon class="g" points="51.71 450.19 51.21 449.32 526.46 174.94 526.71 175.08 716.71 284.77 716.21 285.64 526.46 176.09 51.71 450.19"/><rect class="g" x="525.96" width="1" height="175.52"/><path class="h" d="M392.15,373.7V383H391v6.65h1.15v22.11h13.2V389.64h1.14V383a6,6,0,0,0,6-6V373.7Zm-9.52,15.94h.69l-1-6.65h-.84V373.7H360.22V377a6,6,0,0,0,6,6h.61l1,6.65h1.28l3.79,22.11h13.52Z"/><rect class="g" x="33.72" y="323.1" width="548.48" height="1" transform="translate(-120.53 197.3) rotate(-29.99)"/><rect class="g" x="52.72" y="334.07" width="548.48" height="1" transform="translate(-123.47 208.26) rotate(-29.99)"/><rect class="g" x="71.72" y="345.04" width="548.48" height="1" transform="translate(-126.41 219.23) rotate(-29.99)"/><rect class="g" x="90.72" y="356.01" width="548.48" height="1" transform="translate(-129.35 230.2) rotate(-29.99)"/><rect class="g" x="109.72" y="366.98" width="548.48" height="1" transform="translate(-132.29 241.17) rotate(-29.99)"/><rect class="g" x="128.72" y="377.95" width="548.48" height="1" transform="translate(-135.23 252.13) rotate(-29.99)"/><rect class="g" x="147.72" y="388.92" width="548.48" height="1" transform="translate(-138.17 263.1) rotate(-29.99)"/><rect class="g" x="166.72" y="399.89" width="548.48" height="1" transform="translate(-141.11 274.07) rotate(-29.99)"/><rect class="g" x="185.72" y="410.86" width="548.48" height="1" transform="translate(-144.04 285.04) rotate(-29.99)"/><rect class="g" x="164.96" y="383.93" width="1" height="219.39" transform="translate(-344.77 390.11) rotate(-60)"/><rect class="g" x="183.96" y="372.97" width="1" height="219.39" transform="translate(-325.77 401.08) rotate(-60)"/><rect class="g" x="202.96" y="362" width="1" height="219.39" transform="translate(-306.77 412.05) rotate(-60)"/><rect class="g" x="221.96" y="351.03" width="1" height="219.39" transform="translate(-287.77 423.02) rotate(-60)"/><rect class="g" x="240.96" y="340.06" width="1" height="219.39" transform="translate(-268.77 433.99) rotate(-60)"/><rect class="g" x="259.96" y="329.09" width="1" height="219.39" transform="translate(-249.77 444.96) rotate(-60)"/><rect class="g" x="278.96" y="318.12" width="1" height="219.39" transform="translate(-230.77 455.93) rotate(-60)"/><rect class="g" x="297.96" y="307.15" width="1" height="219.39" transform="translate(-211.77 466.9) rotate(-60)"/><rect class="g" x="316.96" y="296.18" width="1" height="219.39" transform="translate(-192.77 477.87) rotate(-60)"/><rect class="g" x="335.96" y="285.21" width="1" height="219.39" transform="translate(-173.77 488.84) rotate(-60)"/><rect class="g" x="354.96" y="274.24" width="1" height="219.39" transform="translate(-154.77 499.81) rotate(-60)"/><rect class="g" x="373.96" y="263.27" width="1" height="219.39" transform="translate(-135.77 510.78) rotate(-60)"/><rect class="g" x="392.96" y="252.3" width="1" height="219.39" transform="translate(-116.77 521.75) rotate(-60)"/><rect class="g" x="411.96" y="241.33" width="1" height="219.39" transform="translate(-97.77 532.71) rotate(-60)"/><rect class="g" x="430.96" y="230.36" width="1" height="219.39" transform="translate(-78.77 543.69) rotate(-60)"/><rect class="g" x="449.96" y="219.39" width="1" height="219.39" transform="translate(-59.77 554.66) rotate(-60)"/><rect class="g" x="468.96" y="208.42" width="1" height="219.39" transform="translate(-40.77 565.62) rotate(-60)"/><rect class="g" x="487.96" y="197.45" width="1" height="219.39" transform="translate(-21.77 576.59) rotate(-60)"/><rect class="g" x="506.96" y="186.48" width="1" height="219.39" transform="translate(-2.77 587.56) rotate(-60)"/><rect class="g" x="544.96" y="164.54" width="1" height="219.39" transform="translate(35.23 609.5) rotate(-60)"/><rect class="g" x="563.96" y="153.57" width="1" height="219.39" transform="translate(54.23 620.47) rotate(-60)"/><rect class="g" x="582.96" y="142.6" width="1" height="219.39" transform="translate(73.23 631.44) rotate(-60)"/><rect class="g" x="601.96" y="131.63" width="1" height="219.39" transform="translate(92.23 642.41) rotate(-60)"/><rect class="g" x="525.96" y="175.51" width="1" height="219.39" transform="translate(16.24 598.54) rotate(-60)"/><polygon class="i" points="405.34 299.8 411.94 293.21 407.34 288.62 405.34 288.62 405.34 299.8"/><polygon class="i" points="380.96 299.8 374.37 293.21 378.96 288.62 380.96 288.62 380.96 299.8"/><path class="j" d="M423.3,276.19l-15.95-16v0H379v0l-16,16a4,4,0,0,0,0,5.66l11.36,11.36,4.59-4.6L369.37,279l9.59-9.6h0v19.21h28.38V269.41h0l9.59,9.6-9.59,9.59,4.59,4.6,11.36-11.36A4,4,0,0,0,423.3,276.19Z"/><path d="M392.15,364.42h14.34a6,6,0,0,1,6,6v3.28a0,0,0,0,1,0,0H392.15a0,0,0,0,1,0,0v-9.28A0,0,0,0,1,392.15,364.42Z"/><path d="M360.22,364.42h21.27a0,0,0,0,1,0,0v3.28a6,6,0,0,1-6,6H360.22a0,0,0,0,1,0,0v-9.28A0,0,0,0,1,360.22,364.42Z" transform="translate(741.7 738.12) rotate(-180)"/><polygon class="k" points="405.34 357.76 405.34 288.62 380.96 288.62 369.1 357.76 367.83 357.76 366.83 364.42 382.32 364.42 383.32 357.76 382.63 357.76 392.15 302.27 392.15 357.76 391 357.76 391 364.42 406.49 364.42 406.49 357.76 405.34 357.76"/><path d="M400.15,249.58h0v-7h-7a7,7,0,0,0-6.27,10.09l3.27-7.46,10,4.39v0Z"/><path class="l" d="M400.15,249.61l-10-4.39-3.27,7.46a7,7,0,0,0,3.27,3.23v4.32l3,3,3-3v-4.32A7,7,0,0,0,400.15,249.61Z"/></svg>