<svg xmlns="http://www.w3.org/2000/svg" xmlns:xlink="http://www.w3.org/1999/xlink" viewBox="0 0 832.18 626.42"><defs><style>.a{fill:#e2e2e2;}.b,.d{opacity:0.5;}.b{fill:url(#a);}.c{fill:#c8c8c8;}.d{fill:url(#b);}.e{fill:#ffc629;}.f{fill:url(#c);}.g{fill:#fff;}.h{fill:url(#d);}.i{fill:#995209;}.j{fill:#ff595a;}.k{fill:#003d4c;}.l{fill:#cc6d0c;}</style><linearGradient id="a" x1="13.61" y1="215.51" x2="579.08" y2="280.01" gradientUnits="userSpaceOnUse"><stop offset="0" stop-color="#fff"/><stop offset="1" stop-color="#fff" stop-opacity="0"/></linearGradient><radialGradient id="b" cx="584.18" cy="243.1" r="231.33" gradientUnits="userSpaceOnUse"><stop offset="0" stop-color="#aaa"/><stop offset="1" stop-color="#aaa" stop-opacity="0"/></radialGradient><linearGradient id="c" x1="431.18" y1="186.32" x2="431.18" y2="356.98" gradientUnits="userSpaceOnUse"><stop offset="0" stop-color="#f5a503"/><stop offset="1" stop-color="#f5a503" stop-opacity="0"/></linearGradient><linearGradient id="d" x1="430.55" y1="398.55" x2="430.55" y2="423.25" xlink:href="#c"/></defs><title>10x30</title><polygon points="832.18 297.33 823.66 298.49 826.42 300.08 563.93 451.63 564.43 452.49 826.92 300.94 826.91 304.13 832.18 297.33"/><polygon points="522.8 476.53 522.3 475.66 267.44 622.81 267.45 619.63 262.18 626.42 270.7 625.26 267.94 623.68 522.8 476.53"/><polygon points="219.9 626.42 214.63 619.63 214.64 622.81 144.74 582.45 144.24 583.32 214.14 623.68 211.38 625.26 219.9 626.42"/><polygon points="113.15 564.22 34.66 518.9 37.42 517.31 28.9 516.15 34.17 522.95 34.16 519.76 112.65 565.08 113.15 564.22"/><polygon points="29.4 509.79 29.4 448.1 28.4 448.1 28.4 509.79 25.65 508.19 28.9 516.15 32.15 508.19 29.4 509.79"/><polygon points="32.15 349.91 28.9 341.95 25.65 349.91 28.4 348.31 28.4 411.77 29.4 411.77 29.4 348.31 32.15 349.91"/><path d="M535.8,464.07H537a2.24,2.24,0,0,0,1.77-.71,2.78,2.78,0,0,0,.62-1.93c0-1.8-.69-2.7-2.09-2.7a1.88,1.88,0,0,0-1.57.73,3,3,0,0,0-.57,1.91H533.3a4.28,4.28,0,0,1,1.12-3.05,3.79,3.79,0,0,1,2.87-1.19,3.74,3.74,0,0,1,2.88,1.13,4.53,4.53,0,0,1,1.07,3.21,3.87,3.87,0,0,1-.55,2,3.42,3.42,0,0,1-1.44,1.36c1.44.53,2.17,1.73,2.17,3.59a4.57,4.57,0,0,1-1.15,3.28,4.29,4.29,0,0,1-5.93.06,4.26,4.26,0,0,1-1.13-3.11h1.87a3,3,0,0,0,.59,1.95,2,2,0,0,0,1.61.72,2.12,2.12,0,0,0,1.67-.7,3.24,3.24,0,0,0,.61-2.16q0-2.79-2.64-2.79H535.8Z"/><path d="M552.28,466.14a10.24,10.24,0,0,1-1,5.08,3.71,3.71,0,0,1-6.18.07,9.46,9.46,0,0,1-1.05-4.85V463.8a10,10,0,0,1,1-5,3.77,3.77,0,0,1,6.18-.08,9.22,9.22,0,0,1,1,4.76Zm-1.86-2.66a9,9,0,0,0-.54-3.6,1.8,1.8,0,0,0-1.72-1.15,1.78,1.78,0,0,0-1.69,1.13,8.65,8.65,0,0,0-.56,3.43v3.16a9.13,9.13,0,0,0,.56,3.64,1.8,1.8,0,0,0,1.71,1.22,1.76,1.76,0,0,0,1.68-1.15,9.11,9.11,0,0,0,.56-3.51Z"/><path d="M555.14,461.66l-1-.76A5.82,5.82,0,0,0,555,458v-1.54h1.85v1.43a5.54,5.54,0,0,1-.47,2.05A4.72,4.72,0,0,1,555.14,461.66Z"/><path d="M7.91,426.25a4.08,4.08,0,0,1-.51,2.05A3.71,3.71,0,0,1,6,429.7a3.88,3.88,0,0,1,1.6,1.51,4.34,4.34,0,0,1,.59,2.25,4.4,4.4,0,0,1-1.13,3.16,3.88,3.88,0,0,1-3,1.19,3.9,3.9,0,0,1-3-1.19A4.39,4.39,0,0,1,0,433.46a4.5,4.5,0,0,1,.57-2.27,3.84,3.84,0,0,1,1.57-1.5,3.59,3.59,0,0,1-1.36-1.4,4.11,4.11,0,0,1-.5-2,4.37,4.37,0,0,1,1.05-3.08A3.6,3.6,0,0,1,4.1,422a3.6,3.6,0,0,1,2.76,1.13A4.35,4.35,0,0,1,7.91,426.25Zm-1.57,7.16a3.35,3.35,0,0,0-.62-2.11,2,2,0,0,0-1.64-.8,1.93,1.93,0,0,0-1.63.8,3.45,3.45,0,0,0-.59,2.11,3.25,3.25,0,0,0,.58,2.07,2,2,0,0,0,1.66.74,2,2,0,0,0,1.66-.74A3.31,3.31,0,0,0,6.34,433.41Zm-.29-7.13a3.06,3.06,0,0,0-.55-1.9,1.65,1.65,0,0,0-1.4-.74,1.66,1.66,0,0,0-1.42.72,3.23,3.23,0,0,0-.53,1.92,3.07,3.07,0,0,0,.54,1.91,1.7,1.7,0,0,0,1.41.71,1.69,1.69,0,0,0,1.43-.72A3.14,3.14,0,0,0,6.05,426.28Z"/><path d="M14.29,431.87H9.94v-1.59h4.35Z"/><path d="M21.59,437.6H19.71v-13L16.48,426v-1.77l4.81-2.1h.3Z"/><path d="M34.9,431.05a10.24,10.24,0,0,1-1,5.08,3.35,3.35,0,0,1-3.11,1.68,3.38,3.38,0,0,1-3.07-1.61,9.5,9.5,0,0,1-1.06-4.85v-2.64a9.89,9.89,0,0,1,1-5A3.38,3.38,0,0,1,30.78,422a3.39,3.39,0,0,1,3.07,1.57,9.45,9.45,0,0,1,1,4.76ZM33,428.38a9.18,9.18,0,0,0-.53-3.59,1.8,1.8,0,0,0-1.72-1.15,1.76,1.76,0,0,0-1.69,1.13,8.45,8.45,0,0,0-.56,3.42v3.17a9,9,0,0,0,.56,3.64,1.81,1.81,0,0,0,1.71,1.22,1.74,1.74,0,0,0,1.67-1.15,8.81,8.81,0,0,0,.56-3.51Z"/><path d="M37.76,426.57l-1-.76a5.77,5.77,0,0,0,.86-2.87V421.4h1.84v1.42a5.4,5.4,0,0,1-.47,2.06A4.66,4.66,0,0,1,37.76,426.57Z"/><path d="M122.48,581.71H120.6v-13l-3.23,1.44v-1.77l4.81-2.1h.3Z"/><path d="M135.79,575.16a10.24,10.24,0,0,1-1,5.08,3.73,3.73,0,0,1-6.18.07,9.48,9.48,0,0,1-1.06-4.85v-2.64a9.92,9.92,0,0,1,1-5,3.77,3.77,0,0,1,6.18-.08,9.38,9.38,0,0,1,1,4.75Zm-1.87-2.66a9,9,0,0,0-.54-3.6,1.79,1.79,0,0,0-1.72-1.15,1.76,1.76,0,0,0-1.68,1.13,8.45,8.45,0,0,0-.56,3.42v3.17a9,9,0,0,0,.56,3.64,1.81,1.81,0,0,0,1.71,1.22,1.76,1.76,0,0,0,1.67-1.15,8.74,8.74,0,0,0,.56-3.51Z"/><path d="M138.65,570.68l-1.05-.76a5.77,5.77,0,0,0,.86-2.87v-1.54h1.84v1.43a5.35,5.35,0,0,1-.47,2A4.7,4.7,0,0,1,138.65,570.68Z"/><polygon class="a" points="621.18 0 621.18 175.52 51.18 504.61 51.18 329.09 621.18 0"/><polygon class="b" points="621.18 0 621.18 175.52 51.18 504.61 51.18 329.09 621.18 0"/><polygon class="c" points="811.18 109.69 811.18 285.21 621.18 175.52 621.18 0 811.18 109.69"/><polygon class="d" points="811.18 109.69 811.18 285.21 621.18 175.52 621.18 0 811.18 109.69"/><polygon class="e" points="241.18 614.3 51.18 504.61 621.18 175.51 811.18 285.21 241.18 614.3"/><polygon class="f" points="241.18 614.3 51.18 504.61 621.18 175.51 811.18 285.21 241.18 614.3"/><polygon class="g" points="51.43 505.04 50.93 504.17 621.18 174.94 621.43 175.08 811.43 284.77 810.93 285.64 621.18 176.09 51.43 505.04"/><rect class="g" x="620.68" width="1" height="175.52"/><path class="h" d="M436.34,394.25v9.29h-1.15v6.65h1.15V432.3h13.2V410.19h1.14v-6.65a6,6,0,0,0,6-6v-3.29Zm-9.52,15.94h.69l-1-6.65h-.84v-9.29H404.41v3.29a6,6,0,0,0,6,6H411l1,6.65h1.28l3.79,22.11h13.52Z"/><rect class="g" x="26.09" y="350.53" width="658.18" height="1" transform="translate(-127.98 224.81) rotate(-30.02)"/><rect class="g" x="45.09" y="361.5" width="658.18" height="1" transform="translate(-130.92 235.79) rotate(-30.02)"/><rect class="g" x="64.09" y="372.47" width="658.18" height="1" transform="translate(-133.86 246.77) rotate(-30.02)"/><rect class="g" x="83.09" y="383.44" width="658.18" height="1" transform="translate(-136.8 257.74) rotate(-30.02)"/><rect class="g" x="102.09" y="394.41" width="658.18" height="1" transform="translate(-139.74 268.72) rotate(-30.02)"/><rect class="g" x="121.09" y="405.38" width="658.18" height="1" transform="translate(-142.68 279.7) rotate(-30.02)"/><rect class="g" x="140.09" y="416.35" width="658.18" height="1" transform="translate(-145.61 290.68) rotate(-30.02)"/><rect class="g" x="159.09" y="427.32" width="658.18" height="1" transform="translate(-148.55 301.66) rotate(-30.02)"/><rect class="g" x="178.09" y="438.29" width="658.18" height="1" transform="translate(-151.49 312.64) rotate(-30.02)"/><rect class="g" x="164.68" y="438.78" width="1" height="219.39" transform="translate(-392.41 417.29) rotate(-60)"/><rect class="g" x="183.68" y="427.81" width="1" height="219.39" transform="translate(-373.41 428.26) rotate(-60)"/><rect class="g" x="202.68" y="416.85" width="1" height="219.39" transform="translate(-354.41 439.23) rotate(-60)"/><rect class="g" x="221.68" y="405.88" width="1" height="219.39" transform="translate(-335.41 450.2) rotate(-60)"/><rect class="g" x="240.68" y="394.91" width="1" height="219.39" transform="translate(-316.41 461.17) rotate(-60)"/><rect class="g" x="259.68" y="383.94" width="1" height="219.39" transform="translate(-297.41 472.14) rotate(-60)"/><rect class="g" x="278.68" y="372.97" width="1" height="219.39" transform="translate(-278.41 483.11) rotate(-60)"/><rect class="g" x="297.68" y="362" width="1" height="219.39" transform="translate(-259.41 494.08) rotate(-60)"/><rect class="g" x="316.68" y="351.03" width="1" height="219.39" transform="translate(-240.41 505.05) rotate(-60)"/><rect class="g" x="335.68" y="340.06" width="1" height="219.39" transform="translate(-221.41 516.02) rotate(-60)"/><rect class="g" x="354.68" y="329.09" width="1" height="219.39" transform="translate(-202.41 526.99) rotate(-60)"/><rect class="g" x="373.68" y="318.12" width="1" height="219.39" transform="translate(-183.41 537.95) rotate(-60)"/><rect class="g" x="392.68" y="307.15" width="1" height="219.39" transform="translate(-164.41 548.92) rotate(-60)"/><rect class="g" x="411.68" y="296.18" width="1" height="219.39" transform="translate(-145.41 559.89) rotate(-60)"/><rect class="g" x="430.68" y="285.21" width="1" height="219.39" transform="translate(-126.41 570.86) rotate(-60)"/><rect class="g" x="449.68" y="274.24" width="1" height="219.39" transform="translate(-107.41 581.83) rotate(-60)"/><rect class="g" x="468.68" y="263.27" width="1" height="219.39" transform="translate(-88.41 592.8) rotate(-60)"/><rect class="g" x="487.68" y="252.3" width="1" height="219.39" transform="translate(-69.41 603.77) rotate(-60)"/><rect class="g" x="506.68" y="241.33" width="1" height="219.39" transform="translate(-50.41 614.74) rotate(-60)"/><rect class="g" x="544.68" y="219.39" width="1" height="219.39" transform="translate(-12.41 636.68) rotate(-60)"/><rect class="g" x="563.68" y="208.42" width="1" height="219.39" transform="translate(6.59 647.65) rotate(-60)"/><rect class="g" x="582.68" y="197.45" width="1" height="219.39" transform="translate(25.59 658.62) rotate(-60)"/><rect class="g" x="601.68" y="186.48" width="1" height="219.39" transform="translate(44.59 669.59) rotate(-60)"/><rect class="g" x="620.68" y="175.51" width="1" height="219.39" transform="translate(63.59 680.56) rotate(-60)"/><rect class="g" x="639.68" y="164.54" width="1" height="219.39" transform="translate(82.59 691.53) rotate(-60)"/><rect class="g" x="658.68" y="153.57" width="1" height="219.39" transform="translate(101.59 702.5) rotate(-60)"/><rect class="g" x="677.68" y="142.6" width="1" height="219.39" transform="translate(120.59 713.47) rotate(-60)"/><rect class="g" x="696.68" y="131.63" width="1" height="219.39" transform="translate(139.59 724.44) rotate(-60)"/><rect class="g" x="525.68" y="230.36" width="1" height="219.39" transform="translate(-31.4 625.72) rotate(-60)"/><polygon class="i" points="449.54 320.35 456.14 313.75 451.54 309.16 449.54 309.16 449.54 320.35"/><polygon class="i" points="425.16 320.35 418.57 313.75 423.16 309.16 425.16 309.16 425.16 320.35"/><path class="j" d="M467.5,296.74l-15.95-16v0H423.16l-16,16a4,4,0,0,0,0,5.65l11.37,11.37,4.59-4.6-9.59-9.59,9.59-9.6v19.19h28.38V290l9.59,9.6-9.59,9.59,4.59,4.6,11.36-11.37A4,4,0,0,0,467.5,296.74Z"/><path d="M436.35,385h14.34a6,6,0,0,1,6,6v3.28a0,0,0,0,1,0,0H436.35a0,0,0,0,1,0,0V385A0,0,0,0,1,436.35,385Z"/><path d="M404.41,385h21.27a0,0,0,0,1,0,0v3.28a6,6,0,0,1-6,6H404.41a0,0,0,0,1,0,0V385A0,0,0,0,1,404.41,385Z" transform="translate(830.09 779.21) rotate(-180)"/><polygon class="k" points="449.54 378.31 449.54 309.16 438.69 309.16 436.35 309.16 425.16 309.16 413.3 378.31 412.03 378.31 411.03 384.96 426.52 384.96 427.52 378.31 426.83 378.31 436.35 322.81 436.35 378.31 435.2 378.31 435.2 384.96 450.69 384.96 450.69 378.31 449.54 378.31"/><path d="M444.35,270.13h0v-7h-7a7,7,0,0,0-6.27,10.09l3.27-7.47,10,4.39h0Z"/><path class="l" d="M444.35,270.15l-10-4.39-3.27,7.47a7,7,0,0,0,3.27,3.23v4.32l3,3,3-3v-4.32A7,7,0,0,0,444.35,270.15Z"/></svg>