<svg xmlns="http://www.w3.org/2000/svg" xmlns:xlink="http://www.w3.org/1999/xlink" viewBox="0 0 1021.9 736.12"><defs><style>.a{fill:#e2e2e2;}.b,.d{opacity:0.5;}.b{fill:url(#a);}.c{fill:#c8c8c8;}.d{fill:url(#b);}.e{fill:#ffc629;}.f{fill:url(#c);}.g{fill:url(#d);}.h{fill:#fff;}.i{fill:#995209;}.j{fill:#ff595a;}.k{fill:#003d4c;}.l{fill:#cc6d0c;}</style><linearGradient id="a" x1="91.27" y1="495.83" x2="779.73" y2="113.35" gradientUnits="userSpaceOnUse"><stop offset="0" stop-color="#fff"/><stop offset="1" stop-color="#fff" stop-opacity="0"/></linearGradient><radialGradient id="b" cx="773.91" cy="243.1" r="231.33" gradientUnits="userSpaceOnUse"><stop offset="0" stop-color="#aaa"/><stop offset="1" stop-color="#aaa" stop-opacity="0"/></radialGradient><linearGradient id="c" x1="525.9" y1="189.02" x2="525.9" y2="402.35" gradientUnits="userSpaceOnUse"><stop offset="0" stop-color="#f5a503"/><stop offset="1" stop-color="#f5a503" stop-opacity="0"/></linearGradient><linearGradient id="d" x1="525.78" y1="455.24" x2="525.78" y2="479.94" xlink:href="#c"/></defs><title>10x40</title><polygon points="1021.9 297.33 1013.38 298.49 1016.14 300.08 658.37 506.63 658.87 507.5 1016.64 300.94 1016.63 304.13 1021.9 297.33"/><polygon points="615.52 532.53 615.02 531.67 267.16 732.5 267.17 729.32 261.9 736.12 270.42 734.96 267.66 733.37 615.52 532.53"/><polygon points="219.9 736.12 214.63 729.32 214.64 732.5 144.74 692.15 144.24 693.01 214.14 733.37 211.38 734.96 219.9 736.12"/><polygon points="113.15 673.91 34.66 628.59 37.42 627.01 28.9 625.85 34.17 632.64 34.16 629.46 112.65 674.77 113.15 673.91"/><polygon points="29.4 619.48 29.4 560.8 28.4 560.8 28.4 619.49 25.65 617.89 28.9 625.85 32.15 617.89 29.4 619.48"/><polygon points="32.15 459.44 28.9 451.49 25.65 459.44 28.4 457.85 28.4 524.47 29.4 524.47 29.4 457.85 32.15 459.44"/><path d="M634.44,523.38h1.71V525h-1.71v3.56h-1.87V525h-5.8v-1.15l5.71-10.65h2Zm-5.6,0h3.73v-7.3Z"/><path d="M646.24,522a10.24,10.24,0,0,1-1,5.08,3.73,3.73,0,0,1-6.18.07,9.49,9.49,0,0,1-1.05-4.85v-2.64a10,10,0,0,1,1-5,3.76,3.76,0,0,1,6.18-.09,9.24,9.24,0,0,1,1,4.76Zm-1.87-2.67a9,9,0,0,0-.53-3.59,1.8,1.8,0,0,0-1.72-1.15,1.78,1.78,0,0,0-1.69,1.13,8.63,8.63,0,0,0-.56,3.42v3.17a9.13,9.13,0,0,0,.56,3.64,1.81,1.81,0,0,0,1.71,1.22,1.76,1.76,0,0,0,1.68-1.15,9,9,0,0,0,.55-3.51Z"/><path d="M649.1,517.51l-1-.76a5.86,5.86,0,0,0,.85-2.87v-1.54h1.85v1.42a5.59,5.59,0,0,1-.47,2.06A4.81,4.81,0,0,1,649.1,517.51Z"/><path d="M7.91,539a4,4,0,0,1-.51,2A3.74,3.74,0,0,1,6,542.4a3.82,3.82,0,0,1,1.6,1.51,4.31,4.31,0,0,1,.59,2.24,4.42,4.42,0,0,1-1.13,3.17,3.92,3.92,0,0,1-3,1.19,3.93,3.93,0,0,1-3-1.19A4.42,4.42,0,0,1,0,546.15a4.46,4.46,0,0,1,.57-2.26,3.8,3.8,0,0,1,1.57-1.51A3.56,3.56,0,0,1,.78,541a4.16,4.16,0,0,1-.5-2,4.36,4.36,0,0,1,1.05-3.08,3.6,3.6,0,0,1,2.77-1.14,3.57,3.57,0,0,1,2.76,1.13A4.35,4.35,0,0,1,7.91,539Zm-1.57,7.16A3.38,3.38,0,0,0,5.72,544a2,2,0,0,0-1.64-.79,1.91,1.91,0,0,0-1.63.8,3.43,3.43,0,0,0-.59,2.11,3.24,3.24,0,0,0,.58,2.06,2,2,0,0,0,1.66.74,2,2,0,0,0,1.66-.74A3.3,3.3,0,0,0,6.34,546.11ZM6.05,539a3.09,3.09,0,0,0-.55-1.91,1.67,1.67,0,0,0-1.4-.74,1.65,1.65,0,0,0-1.42.73A3.19,3.19,0,0,0,2.15,539a3.07,3.07,0,0,0,.54,1.91,1.69,1.69,0,0,0,1.41.7,1.71,1.71,0,0,0,1.43-.71A3.14,3.14,0,0,0,6.05,539Z"/><path d="M14.29,544.57H9.94V543h4.35Z"/><path d="M21.59,550.29H19.71v-13l-3.23,1.45V537l4.81-2.09h.3Z"/><path d="M34.9,543.75a10.22,10.22,0,0,1-1,5.07,3.34,3.34,0,0,1-3.11,1.69,3.37,3.37,0,0,1-3.07-1.62A9.45,9.45,0,0,1,26.67,544V541.4a9.92,9.92,0,0,1,1-5,3.37,3.37,0,0,1,3.11-1.65,3.37,3.37,0,0,1,3.07,1.57,9.42,9.42,0,0,1,1,4.76ZM33,541.08a9.14,9.14,0,0,0-.53-3.59,1.81,1.81,0,0,0-1.72-1.16,1.78,1.78,0,0,0-1.69,1.13,8.47,8.47,0,0,0-.56,3.43v3.16a9,9,0,0,0,.56,3.65,1.8,1.8,0,0,0,1.71,1.21,1.74,1.74,0,0,0,1.67-1.15,8.74,8.74,0,0,0,.56-3.51Z"/><path d="M37.76,539.26l-1-.76a5.74,5.74,0,0,0,.86-2.87v-1.54h1.84v1.43a5.35,5.35,0,0,1-.47,2.05A4.58,4.58,0,0,1,37.76,539.26Z"/><path d="M122.48,691.41H120.6v-13l-3.23,1.45v-1.77l4.81-2.1h.3Z"/><path d="M135.79,684.86a10.29,10.29,0,0,1-1,5.08,3.72,3.72,0,0,1-6.18.06,9.45,9.45,0,0,1-1.06-4.85v-2.63a9.87,9.87,0,0,1,1-5,3.35,3.35,0,0,1,3.1-1.66,3.39,3.39,0,0,1,3.08,1.57,9.42,9.42,0,0,1,1,4.76Zm-1.87-2.67a9,9,0,0,0-.54-3.59,1.8,1.8,0,0,0-1.72-1.16,1.76,1.76,0,0,0-1.68,1.14,8.38,8.38,0,0,0-.56,3.42v3.16a9,9,0,0,0,.56,3.65,1.81,1.81,0,0,0,1.71,1.22,1.77,1.77,0,0,0,1.67-1.15,8.83,8.83,0,0,0,.56-3.52Z"/><path d="M138.65,680.38l-1.05-.76a5.8,5.8,0,0,0,.86-2.87v-1.54h1.84v1.42a5.31,5.31,0,0,1-.47,2A4.74,4.74,0,0,1,138.65,680.38Z"/><polygon class="a" points="810.9 0 810.9 175.52 50.9 614.3 50.9 438.78 810.9 0"/><polygon class="b" points="810.9 0 810.9 175.52 50.9 614.3 50.9 438.78 810.9 0"/><polygon class="c" points="1000.9 109.69 1000.9 285.21 810.9 175.52 810.9 0 1000.9 109.69"/><polygon class="d" points="1000.9 109.69 1000.9 285.21 810.9 175.52 810.9 0 1000.9 109.69"/><polygon class="e" points="240.9 723.99 50.9 614.3 810.9 175.51 1000.9 285.21 240.9 723.99"/><polygon class="f" points="240.9 723.99 50.9 614.3 810.9 175.51 1000.9 285.21 240.9 723.99"/><path class="g" d="M531.57,450.93v9.29h-1.15v6.65h1.15V489h13.2V466.87h1.14v-6.65a6,6,0,0,0,6-6v-3.29Zm-9.52,15.94h.69l-1-6.65h-.84v-9.29H499.64v3.29a6,6,0,0,0,6,6h.61l1,6.65h1.28L512.32,489h13.52Z"/><rect class="h" x="11.11" y="405.37" width="877.57" height="1" transform="translate(-142.71 279.56) rotate(-30.02)"/><rect class="h" x="30.11" y="416.34" width="877.57" height="1" transform="translate(-145.65 290.54) rotate(-30.02)"/><rect class="h" x="49.11" y="427.31" width="877.57" height="1" transform="translate(-148.59 301.52) rotate(-30.02)"/><rect class="h" x="68.11" y="438.28" width="877.57" height="1" transform="translate(-151.53 312.5) rotate(-30.02)"/><rect class="h" x="87.11" y="449.25" width="877.57" height="1" transform="translate(-154.47 323.47) rotate(-30.02)"/><rect class="h" x="106.11" y="460.22" width="877.57" height="1" transform="translate(-157.41 334.45) rotate(-30.02)"/><rect class="h" x="125.11" y="471.19" width="877.57" height="1" transform="translate(-160.35 345.43) rotate(-30.02)"/><rect class="h" x="144.11" y="482.16" width="877.57" height="1" transform="translate(-163.29 356.41) rotate(-30.02)"/><rect class="h" x="163.11" y="493.13" width="877.57" height="1" transform="translate(-166.23 367.39) rotate(-30.02)"/><rect class="h" x="164.4" y="548.48" width="1" height="219.39" transform="translate(-487.55 471.9) rotate(-60)"/><rect class="h" x="183.4" y="537.51" width="1" height="219.39" transform="translate(-468.55 482.87) rotate(-60)"/><rect class="h" x="202.4" y="526.54" width="1" height="219.39" transform="translate(-449.55 493.83) rotate(-60)"/><rect class="h" x="221.4" y="515.57" width="1" height="219.39" transform="translate(-430.55 504.8) rotate(-60)"/><rect class="h" x="240.4" y="504.6" width="1" height="219.39" transform="translate(-411.55 515.77) rotate(-60)"/><rect class="h" x="259.4" y="493.63" width="1" height="219.39" transform="translate(-392.55 526.74) rotate(-60)"/><rect class="h" x="278.4" y="482.66" width="1" height="219.39" transform="translate(-373.55 537.71) rotate(-60)"/><rect class="h" x="297.4" y="471.69" width="1" height="219.39" transform="translate(-354.55 548.68) rotate(-60)"/><rect class="h" x="316.4" y="460.72" width="1" height="219.39" transform="translate(-335.55 559.66) rotate(-60)"/><rect class="h" x="335.4" y="449.75" width="1" height="219.39" transform="translate(-316.55 570.62) rotate(-60)"/><rect class="h" x="354.4" y="438.78" width="1" height="219.39" transform="translate(-297.55 581.59) rotate(-60)"/><rect class="h" x="373.4" y="427.81" width="1" height="219.39" transform="translate(-278.55 592.56) rotate(-60)"/><rect class="h" x="392.4" y="416.84" width="1" height="219.39" transform="translate(-259.55 603.53) rotate(-60)"/><rect class="h" x="411.4" y="405.87" width="1" height="219.39" transform="translate(-240.55 614.5) rotate(-60)"/><rect class="h" x="430.4" y="394.9" width="1" height="219.39" transform="translate(-221.55 625.47) rotate(-60)"/><rect class="h" x="449.4" y="383.93" width="1" height="219.39" transform="translate(-202.55 636.44) rotate(-60)"/><rect class="h" x="468.4" y="372.97" width="1" height="219.39" transform="translate(-183.55 647.41) rotate(-60)"/><rect class="h" x="487.4" y="362" width="1" height="219.39" transform="translate(-164.55 658.38) rotate(-60)"/><rect class="h" x="506.4" y="351.03" width="1" height="219.39" transform="translate(-145.55 669.35) rotate(-60)"/><rect class="h" x="544.4" y="329.09" width="1" height="219.39" transform="translate(-107.55 691.29) rotate(-60)"/><rect class="h" x="563.4" y="318.12" width="1" height="219.39" transform="translate(-88.55 702.26) rotate(-60)"/><rect class="h" x="582.4" y="307.15" width="1" height="219.39" transform="translate(-69.55 713.23) rotate(-60)"/><rect class="h" x="601.4" y="296.18" width="1" height="219.39" transform="translate(-50.55 724.2) rotate(-60)"/><rect class="h" x="620.4" y="285.21" width="1" height="219.39" transform="translate(-31.55 735.17) rotate(-60)"/><rect class="h" x="639.4" y="274.24" width="1" height="219.39" transform="translate(-12.55 746.14) rotate(-60)"/><rect class="h" x="658.4" y="263.27" width="1" height="219.39" transform="translate(6.45 757.11) rotate(-60)"/><rect class="h" x="677.4" y="252.3" width="1" height="219.39" transform="translate(25.45 768.08) rotate(-60)"/><rect class="h" x="696.4" y="241.33" width="1" height="219.39" transform="translate(44.45 779.05) rotate(-60)"/><rect class="h" x="715.4" y="230.36" width="1" height="219.39" transform="translate(63.45 790.02) rotate(-60)"/><rect class="h" x="734.4" y="219.39" width="1" height="219.39" transform="translate(82.45 800.99) rotate(-60)"/><rect class="h" x="753.4" y="208.42" width="1" height="219.39" transform="translate(101.45 811.95) rotate(-60)"/><rect class="h" x="772.4" y="197.45" width="1" height="219.39" transform="translate(120.45 822.93) rotate(-60)"/><rect class="h" x="791.4" y="186.48" width="1" height="219.39" transform="translate(139.45 833.9) rotate(-60)"/><rect class="h" x="810.4" y="175.51" width="1" height="219.39" transform="translate(158.45 844.87) rotate(-60)"/><rect class="h" x="829.4" y="164.54" width="1" height="219.39" transform="translate(177.45 855.83) rotate(-60)"/><rect class="h" x="848.4" y="153.57" width="1" height="219.39" transform="translate(196.45 866.8) rotate(-60)"/><rect class="h" x="867.4" y="142.6" width="1" height="219.39" transform="translate(215.45 877.77) rotate(-60)"/><rect class="h" x="886.4" y="131.63" width="1" height="219.39" transform="translate(234.45 888.74) rotate(-60)"/><rect class="h" x="525.4" y="340.06" width="1" height="219.39" transform="translate(-126.54 680.33) rotate(-60)"/><polygon class="h" points="51.15 614.73 50.65 613.87 810.9 174.94 811.15 175.08 1001.15 284.77 1000.65 285.64 810.9 176.09 51.15 614.73"/><rect class="h" x="810.4" width="1" height="175.52"/><polygon class="i" points="544.77 377.03 551.37 370.44 546.77 365.85 544.77 365.85 544.77 377.03"/><polygon class="i" points="520.39 377.03 513.8 370.44 518.39 365.85 520.39 365.85 520.39 377.03"/><path class="j" d="M562.73,353.43l-16-16v0H518.39v0l-16,16a4,4,0,0,0,0,5.65l11.37,11.36,4.59-4.6-9.59-9.59,9.59-9.6h0v19.21h28.38V346.64h0l9.59,9.6-9.59,9.59,4.59,4.6,11.36-11.36A4,4,0,0,0,562.73,353.43Z"/><path d="M531.58,441.65h14.34a6,6,0,0,1,6,6v3.28a0,0,0,0,1,0,0H531.58a0,0,0,0,1,0,0v-9.28A0,0,0,0,1,531.58,441.65Z"/><path d="M499.64,441.65h21.27a0,0,0,0,1,0,0v3.28a6,6,0,0,1-6,6H499.64a0,0,0,0,1,0,0v-9.28A0,0,0,0,1,499.64,441.65Z" transform="translate(1020.55 892.58) rotate(-180)"/><polygon class="k" points="544.77 434.99 544.77 365.85 520.39 365.85 508.53 434.99 507.26 434.99 506.26 441.65 521.75 441.65 522.75 434.99 522.06 434.99 531.58 379.5 531.58 434.99 530.43 434.99 530.43 441.65 545.92 441.65 545.92 434.99 544.77 434.99"/><path d="M539.58,326.81h0v-7h-7a7,7,0,0,0-7,7,6.92,6.92,0,0,0,.73,3.08l3.27-7.46,10,4.39h0Z"/><path class="l" d="M539.58,326.84l-10-4.39-3.27,7.46a7,7,0,0,0,3.27,3.23v4.32l3,3,3-3v-4.32A7,7,0,0,0,539.58,326.84Z"/></svg>