<svg xmlns="http://www.w3.org/2000/svg" xmlns:xlink="http://www.w3.org/1999/xlink" viewBox="0 0 349.17 350.45"><defs><style>.a{fill:#e2e2e2;}.b{fill:#c8c8c8;}.c{opacity:0.5;fill:url(#a);}.d{fill:#ffc629;}.e{fill:url(#b);}.f{fill:url(#c);}.g{fill:url(#d);}.h{fill:#fff;}.i{fill:#995209;}.j{fill:#ff595a;}.k{fill:#003d4c;}.l{fill:#cc6d0c;}</style><radialGradient id="a" cx="241.17" cy="173.68" r="133.94" gradientUnits="userSpaceOnUse"><stop offset="0" stop-color="#aaa"/><stop offset="1" stop-color="#aaa" stop-opacity="0"/></radialGradient><linearGradient id="b" x1="188.17" y1="188.03" x2="188.17" y2="254.3" gradientUnits="userSpaceOnUse"><stop offset="0" stop-color="#f5a503"/><stop offset="1" stop-color="#f5a503" stop-opacity="0"/></linearGradient><linearGradient id="c" x1="-86.47" y1="57.25" x2="235.53" y2="178.25" gradientUnits="userSpaceOnUse"><stop offset="0" stop-color="#fff"/><stop offset="1" stop-color="#fff" stop-opacity="0"/></linearGradient><linearGradient id="d" x1="186.62" y1="263.4" x2="186.62" y2="288.1" xlink:href="#b"/></defs><title>5x10</title><polygon points="349.17 241.04 340.65 242.21 343.41 243.79 265.5 288.77 266 289.64 343.91 244.66 343.9 247.84 349.17 241.04"/><polygon points="234.83 307.63 234.33 306.77 164.93 346.84 164.93 343.66 159.67 350.45 168.19 349.29 165.43 347.7 234.83 307.63"/><polygon points="122.35 350.45 117.08 343.66 117.09 346.84 91.02 331.79 90.52 332.65 116.59 347.7 113.83 349.29 122.35 350.45"/><polygon points="59.84 313.79 34.61 299.22 37.37 297.63 28.85 296.47 34.11 303.26 34.11 300.08 59.34 314.65 59.84 313.79"/><polygon points="29.35 288.95 29.35 226.94 28.35 226.94 28.35 288.96 25.59 287.36 28.85 295.32 32.1 287.36 29.35 288.95"/><polygon points="32.1 127.18 28.85 119.22 25.59 127.18 28.35 125.58 28.35 190.75 29.35 190.75 29.35 125.58 32.1 127.18"/><path d="M7.91,205.42a4,4,0,0,1-.51,2A3.74,3.74,0,0,1,6,208.87a3.82,3.82,0,0,1,1.6,1.51,4.33,4.33,0,0,1,.59,2.24,4.42,4.42,0,0,1-1.13,3.17,3.92,3.92,0,0,1-3,1.19,3.93,3.93,0,0,1-3-1.19A4.42,4.42,0,0,1,0,212.62a4.37,4.37,0,0,1,.58-2.26,3.7,3.7,0,0,1,1.56-1.5,3.66,3.66,0,0,1-1.36-1.4,4.13,4.13,0,0,1-.49-2,4.35,4.35,0,0,1,1-3.08A3.6,3.6,0,0,1,4.1,201.2a3.6,3.6,0,0,1,2.76,1.13A4.35,4.35,0,0,1,7.91,205.42Zm-1.57,7.16a3.4,3.4,0,0,0-.62-2.12,2,2,0,0,0-1.64-.79,1.93,1.93,0,0,0-1.63.8,3.43,3.43,0,0,0-.59,2.11,3.27,3.27,0,0,0,.58,2.07,2,2,0,0,0,1.66.73,2,2,0,0,0,1.66-.73A3.27,3.27,0,0,0,6.34,212.58Zm-.29-7.13a3.15,3.15,0,0,0-.54-1.91,1.7,1.7,0,0,0-1.41-.74,1.65,1.65,0,0,0-1.42.73,3.23,3.23,0,0,0-.53,1.92,3.07,3.07,0,0,0,.54,1.91,1.7,1.7,0,0,0,1.41.71,1.69,1.69,0,0,0,1.43-.72A3.14,3.14,0,0,0,6.05,205.45Z"/><path d="M14.29,211H9.94v-1.59h4.35Z"/><path d="M21.59,216.77H19.71v-13l-3.22,1.45v-1.77l4.8-2.1h.3Z"/><path d="M34.9,210.22a10.22,10.22,0,0,1-1,5.07A3.34,3.34,0,0,1,30.8,217a3.37,3.37,0,0,1-3.07-1.62,9.45,9.45,0,0,1-1.06-4.85v-2.63a10,10,0,0,1,1-5,3.36,3.36,0,0,1,3.11-1.66,3.37,3.37,0,0,1,3.07,1.57,9.22,9.22,0,0,1,1,4.76ZM33,207.55A9.14,9.14,0,0,0,32.5,204a1.81,1.81,0,0,0-1.72-1.16,1.77,1.77,0,0,0-1.69,1.14,8.38,8.38,0,0,0-.56,3.42v3.16a9.22,9.22,0,0,0,.56,3.65,1.8,1.8,0,0,0,1.71,1.21,1.75,1.75,0,0,0,1.67-1.14,8.83,8.83,0,0,0,.56-3.52Z"/><path d="M37.76,205.73l-1-.75a5.8,5.8,0,0,0,.86-2.87v-1.54h1.84V202a5.48,5.48,0,0,1-.46,2A4.72,4.72,0,0,1,37.76,205.73Z"/><path d="M243.74,306h-1.87V293l-3.23,1.44V292.7l4.81-2.1h.29Z"/><path d="M257.05,299.48a10.27,10.27,0,0,1-1,5.08,3.35,3.35,0,0,1-3.11,1.68,3.39,3.39,0,0,1-3.07-1.61,9.51,9.51,0,0,1-1-4.85v-2.64a10,10,0,0,1,1-5A3.76,3.76,0,0,1,256,292a9.24,9.24,0,0,1,1.05,4.76Zm-1.86-2.67a9,9,0,0,0-.54-3.59,1.79,1.79,0,0,0-1.72-1.15,1.76,1.76,0,0,0-1.69,1.13,8.63,8.63,0,0,0-.56,3.42v3.17a9.16,9.16,0,0,0,.56,3.64,1.81,1.81,0,0,0,1.71,1.22,1.78,1.78,0,0,0,1.68-1.15,9,9,0,0,0,.56-3.51Z"/><path d="M259.91,295l-1-.76a5.75,5.75,0,0,0,.85-2.87v-1.54h1.85v1.42a5.49,5.49,0,0,1-.47,2.05A4.76,4.76,0,0,1,259.91,295Z"/><path d="M69.29,323.35l.66-7.66h6.68v1.8H71.52l-.35,4.19a3.49,3.49,0,0,1,2-.66A3.3,3.3,0,0,1,76,322.41a6.21,6.21,0,0,1,1,3.74,5.78,5.78,0,0,1-1.11,3.75,4.09,4.09,0,0,1-5.87.23A4.89,4.89,0,0,1,68.82,327h1.76a3.53,3.53,0,0,0,.75,2,2,2,0,0,0,1.55.67,1.92,1.92,0,0,0,1.7-.95,4.63,4.63,0,0,0,.61-2.55,4.27,4.27,0,0,0-.65-2.45,2.05,2.05,0,0,0-1.78-1,2.21,2.21,0,0,0-1.49.48l-.49.5Z"/><path d="M79.59,320l-1-.76a5.78,5.78,0,0,0,.85-2.87v-1.54h1.85v1.42a5.49,5.49,0,0,1-.47,2.05A4.76,4.76,0,0,1,79.59,320Z"/><polygon class="a" points="235.66 0 45.66 109.7 45.66 285.21 235.66 175.52 235.66 0"/><polygon class="b" points="330.66 54.85 330.66 230.36 235.66 175.52 235.66 0 330.66 54.85"/><polygon class="c" points="330.66 54.85 330.66 230.36 235.66 175.52 235.66 0 330.66 54.85"/><polygon class="d" points="140.66 340.06 45.66 285.21 235.67 175.51 330.67 230.36 140.66 340.06"/><polygon class="e" points="140.66 340.06 45.66 285.21 235.67 175.51 330.67 230.36 140.66 340.06"/><polygon class="f" points="235.66 0 45.66 109.7 45.66 285.21 235.66 175.52 235.66 0"/><path class="g" d="M192.42,259.1v9.29h-1.15V275h1.15v22.11h13.2V275h1.14v-6.65a6,6,0,0,0,6-6V259.1ZM182.9,275h.69l-1-6.65h-.84V259.1H160.49v3.29a6,6,0,0,0,6,6h.61l1,6.65h1.28l3.79,22.11h13.52Z"/><rect class="h" x="111.67" y="246.82" width="1" height="109.7" transform="translate(-205.17 247.97) rotate(-60)"/><rect class="h" x="130.67" y="235.85" width="1" height="109.7" transform="translate(-186.17 258.94) rotate(-60)"/><rect class="h" x="149.67" y="224.88" width="1" height="109.7" transform="translate(-167.17 269.91) rotate(-60)"/><rect class="h" x="168.67" y="213.91" width="1" height="109.7" transform="translate(-148.17 280.88) rotate(-60)"/><rect class="h" x="187.67" y="202.94" width="1" height="109.7" transform="translate(-129.17 291.85) rotate(-60)"/><rect class="h" x="206.67" y="191.97" width="1" height="109.7" transform="translate(-110.17 302.82) rotate(-60)"/><rect class="h" x="225.67" y="181" width="1" height="109.7" transform="translate(-91.17 313.79) rotate(-60)"/><rect class="h" x="244.67" y="170.03" width="1" height="109.7" transform="translate(-72.17 324.76) rotate(-60)"/><rect class="h" x="263.67" y="159.06" width="1" height="109.7" transform="translate(-53.17 335.73) rotate(-60)"/><rect class="h" x="49.97" y="240.83" width="219.39" height="1" transform="translate(-99.26 112.14) rotate(-29.99)"/><rect class="h" x="68.97" y="251.8" width="219.39" height="1" transform="translate(-102.2 123.11) rotate(-29.99)"/><rect class="h" x="87.97" y="262.77" width="219.4" height="1" transform="translate(-105.14 134.08) rotate(-29.99)"/><rect class="h" x="106.97" y="273.74" width="219.4" height="1" transform="translate(-108.08 145.04) rotate(-29.99)"/><polygon class="h" points="45.91 285.65 45.41 284.78 235.66 174.94 235.91 175.08 330.92 229.93 330.42 230.8 235.66 176.09 45.91 285.65"/><rect class="h" x="235.16" width="1" height="175.52"/><polygon class="i" points="205.82 184.94 212.41 178.34 207.82 173.75 205.82 173.75 205.82 184.94"/><polygon class="i" points="181.43 184.94 174.84 178.34 179.43 173.75 181.43 173.75 181.43 184.94"/><path class="j" d="M223.77,161.33l-16-16v0H179.43l-16,16a4,4,0,0,0,0,5.65l11.36,11.37,4.59-4.6-9.59-9.59,9.59-9.6v19.19h28.39V154.56l9.59,9.6-9.59,9.59,4.59,4.6L223.77,167A4,4,0,0,0,223.77,161.33Z"/><path d="M192.62,249.55H207a6,6,0,0,1,6,6v3.28a0,0,0,0,1,0,0H192.62a0,0,0,0,1,0,0v-9.28A0,0,0,0,1,192.62,249.55Z"/><path d="M160.69,249.55H182a0,0,0,0,1,0,0v3.28a6,6,0,0,1-6,6H160.69a0,0,0,0,1,0,0v-9.28A0,0,0,0,1,160.69,249.55Z" transform="translate(342.64 508.39) rotate(-180)"/><polygon class="k" points="205.82 242.9 205.82 173.75 181.43 173.75 169.57 242.9 168.3 242.9 167.3 249.55 182.79 249.55 183.79 242.9 183.1 242.9 192.62 187.4 192.62 242.9 191.47 242.9 191.47 249.55 206.97 249.55 206.97 242.9 205.82 242.9"/><path d="M200.62,134.71h0v-7h-7a7,7,0,0,0-7,7,6.92,6.92,0,0,0,.73,3.08l3.27-7.46,10,4.39h0Z"/><path class="l" d="M200.62,134.74l-10-4.39-3.27,7.46a7,7,0,0,0,3.27,3.23v4.33l3,3,3-3v-4.32A7,7,0,0,0,200.62,134.74Z"/></svg>