<svg xmlns="http://www.w3.org/2000/svg" xmlns:xlink="http://www.w3.org/1999/xlink" viewBox="0 0 443.02 405.48"><defs><style>.a{fill:#ffc629;}.b{fill:url(#a);}.c{fill:#e2e2e2;}.d{fill:url(#b);}.e{fill:#c8c8c8;}.f{opacity:0.5;fill:url(#c);}.g{fill:url(#d);}.h{fill:#fff;}.i{fill:#995209;}.j{fill:#ff595a;}.k{fill:#003d4c;}.l{fill:#cc6d0c;}</style><linearGradient id="a" x1="235.02" y1="177.32" x2="235.02" y2="247.78" gradientUnits="userSpaceOnUse"><stop offset="0" stop-color="#f5a503"/><stop offset="1" stop-color="#f5a503" stop-opacity="0"/></linearGradient><linearGradient id="b" x1="-35.47" y1="91.13" x2="257.01" y2="194.62" gradientUnits="userSpaceOnUse"><stop offset="0" stop-color="#fff"/><stop offset="1" stop-color="#fff" stop-opacity="0"/></linearGradient><radialGradient id="c" cx="334.02" cy="173.68" r="147.02" gradientUnits="userSpaceOnUse"><stop offset="0" stop-color="#aaa"/><stop offset="1" stop-color="#aaa" stop-opacity="0"/></radialGradient><linearGradient id="d" x1="230.53" y1="290.23" x2="230.53" y2="314.94" xlink:href="#a"/></defs><title>5x15</title><polygon points="443.02 241.33 434.5 242.5 437.26 244.08 317.45 313.35 317.95 314.21 437.76 244.95 437.75 248.13 443.02 241.33"/><polygon points="286.31 332.48 285.81 331.62 164.03 401.84 164.04 398.65 158.77 405.45 167.29 404.29 164.53 402.7 286.31 332.48"/><polygon points="121.02 405.48 115.73 398.7 115.75 401.88 89.28 386.68 88.78 387.55 115.25 402.75 112.5 404.34 121.02 405.48"/><polygon points="57.74 368.47 33.27 354.26 36.03 352.68 27.52 351.5 32.77 358.31 32.77 355.12 57.24 369.34 57.74 368.47"/><polygon points="28.02 343.98 28.02 283.96 27.02 283.96 27.02 343.98 24.27 342.38 27.52 350.34 30.77 342.38 28.02 343.98"/><polygon points="30.77 182.21 27.52 174.25 24.27 182.21 27.02 180.61 27.02 247.06 28.02 247.06 28.02 180.61 30.77 182.21"/><path d="M7.91,262.44a4.08,4.08,0,0,1-.51,2.05A3.71,3.71,0,0,1,6,265.89a3.84,3.84,0,0,1,1.6,1.52,4.28,4.28,0,0,1,.59,2.24,4.42,4.42,0,0,1-1.13,3.17,3.91,3.91,0,0,1-3,1.18,3.91,3.91,0,0,1-3-1.18A4.42,4.42,0,0,1,0,269.65a4.5,4.5,0,0,1,.57-2.27,3.84,3.84,0,0,1,1.57-1.5,3.59,3.59,0,0,1-1.36-1.4,4.11,4.11,0,0,1-.5-2,4.37,4.37,0,0,1,1.05-3.08,3.6,3.6,0,0,1,2.77-1.14,3.6,3.6,0,0,1,2.76,1.13A4.38,4.38,0,0,1,7.91,262.44ZM6.34,269.6a3.37,3.37,0,0,0-.62-2.11,2,2,0,0,0-1.64-.8,1.92,1.92,0,0,0-1.63.81,3.4,3.4,0,0,0-.59,2.1,3.25,3.25,0,0,0,.58,2.07,2,2,0,0,0,1.66.74,2,2,0,0,0,1.66-.74A3.31,3.31,0,0,0,6.34,269.6Zm-.29-7.12a3.07,3.07,0,0,0-.55-1.91,1.65,1.65,0,0,0-1.4-.74,1.65,1.65,0,0,0-1.42.73,3.19,3.19,0,0,0-.53,1.92,3,3,0,0,0,.54,1.9,1.67,1.67,0,0,0,1.41.71,1.69,1.69,0,0,0,1.43-.72A3.11,3.11,0,0,0,6.05,262.48Z"/><path d="M14.29,268.07H9.93v-1.6h4.36Z"/><path d="M21.59,273.79H19.71v-13l-3.23,1.44v-1.77l4.81-2.1h.3Z"/><path d="M34.9,267.24a10.24,10.24,0,0,1-1,5.08A3.35,3.35,0,0,1,30.8,274a3.38,3.38,0,0,1-3.07-1.61,9.48,9.48,0,0,1-1.06-4.85V264.9a9.89,9.89,0,0,1,1-5,3.38,3.38,0,0,1,3.11-1.66,3.38,3.38,0,0,1,3.07,1.58,9.38,9.38,0,0,1,1,4.75ZM33,264.57A9.18,9.18,0,0,0,32.5,261a1.8,1.8,0,0,0-1.72-1.15A1.78,1.78,0,0,0,29.09,261a8.45,8.45,0,0,0-.56,3.42v3.17a9.13,9.13,0,0,0,.56,3.64,1.81,1.81,0,0,0,1.71,1.22,1.74,1.74,0,0,0,1.67-1.15,8.81,8.81,0,0,0,.56-3.51Z"/><path d="M37.76,262.76l-1-.76a5.77,5.77,0,0,0,.86-2.87v-1.54h1.84V259a5.35,5.35,0,0,1-.47,2.05A4.66,4.66,0,0,1,37.76,262.76Z"/><path d="M295.7,330.6h-1.88v-13L290.59,319v-1.77l4.81-2.1h.3Z"/><path d="M301.56,322.91l.67-7.66h6.67v1.8h-5.1l-.36,4.19a3.5,3.5,0,0,1,2-.67,3.3,3.3,0,0,1,2.82,1.4,6.17,6.17,0,0,1,1,3.74,5.78,5.78,0,0,1-1.11,3.75,4.09,4.09,0,0,1-5.87.23,4.93,4.93,0,0,1-1.24-3.12h1.75a3.57,3.57,0,0,0,.75,2,2,2,0,0,0,1.56.67,1.92,1.92,0,0,0,1.7-.94,4.71,4.71,0,0,0,.61-2.55,4.25,4.25,0,0,0-.66-2.46,2.06,2.06,0,0,0-1.78-.94,2.22,2.22,0,0,0-1.49.48l-.49.5Z"/><path d="M311.87,319.57l-1.05-.76a5.84,5.84,0,0,0,.86-2.87V314.4h1.84v1.43a5.35,5.35,0,0,1-.47,2.05A4.7,4.7,0,0,1,311.87,319.57Z"/><path d="M67.56,378.24l.66-7.65H74.9v1.8H69.79l-.36,4.19a3.49,3.49,0,0,1,2-.67,3.32,3.32,0,0,1,2.82,1.4,6.17,6.17,0,0,1,1,3.74,5.73,5.73,0,0,1-1.11,3.74,4.1,4.1,0,0,1-5.87.24,4.94,4.94,0,0,1-1.25-3.13h1.75a3.58,3.58,0,0,0,.76,2,2,2,0,0,0,1.55.67,1.91,1.91,0,0,0,1.7-.94,4.63,4.63,0,0,0,.61-2.55,4.25,4.25,0,0,0-.66-2.46,2.06,2.06,0,0,0-1.77-.95,2.21,2.21,0,0,0-1.49.49l-.5.49Z"/><path d="M77.86,374.91l-1-.76a5.75,5.75,0,0,0,.85-2.87v-1.54h1.85v1.43a5.54,5.54,0,0,1-.47,2.05A4.72,4.72,0,0,1,77.86,374.91Z"/><polygon class="a" points="140.02 394.91 45.02 340.06 330.02 175.51 425.02 230.36 140.02 394.91"/><polygon class="b" points="140.02 394.91 45.02 340.06 330.02 175.51 425.02 230.36 140.02 394.91"/><polygon class="c" points="330.01 0 45.02 164.54 45.02 340.06 330.01 175.52 330.01 0"/><polygon class="d" points="330.01 0 45.02 164.54 45.02 340.06 330.01 175.52 330.01 0"/><polygon class="e" points="425.02 54.84 425.02 230.36 330.01 175.52 330.01 0 425.02 54.84"/><polygon class="f" points="425.02 54.84 425.02 230.36 330.01 175.52 330.01 0 425.02 54.84"/><path class="g" d="M236.32,285.93v9.29h-1.15v6.65h1.15V324h13.2V301.87h1.14v-6.65a6,6,0,0,0,6-6v-3.29Zm-9.52,15.94h.69l-1-6.65h-.84v-9.29H204.39v3.29a6,6,0,0,0,6,6H211l1,6.65h1.28L217.07,324h13.52Z"/><rect class="h" x="111.02" y="301.67" width="1" height="109.7" transform="matrix(0.5, -0.87, 0.87, 0.5, -252.99, 274.84)"/><rect class="h" x="130.02" y="290.7" width="1" height="109.7" transform="translate(-233.99 285.8) rotate(-60)"/><rect class="h" x="149.02" y="279.73" width="1" height="109.7" transform="matrix(0.5, -0.87, 0.87, 0.5, -214.99, 296.77)"/><rect class="h" x="168.02" y="268.76" width="1" height="109.7" transform="translate(-195.99 307.74) rotate(-60)"/><rect class="h" x="187.02" y="257.79" width="1" height="109.7" transform="translate(-176.99 318.72) rotate(-60)"/><rect class="h" x="206.02" y="246.82" width="1" height="109.7" transform="translate(-157.99 329.68) rotate(-60)"/><rect class="h" x="225.02" y="235.85" width="1" height="109.7" transform="translate(-138.99 340.65) rotate(-60)"/><rect class="h" x="244.02" y="224.88" width="1" height="109.7" transform="translate(-119.99 351.62) rotate(-60)"/><rect class="h" x="263.02" y="213.91" width="1" height="109.7" transform="translate(-100.99 362.59) rotate(-60)"/><rect class="h" x="282.02" y="202.94" width="1" height="109.7" transform="matrix(0.5, -0.87, 0.87, 0.5, -81.99, 373.56)"/><rect class="h" x="301.02" y="191.97" width="1" height="109.7" transform="translate(-62.99 384.53) rotate(-60)"/><rect class="h" x="320.02" y="181" width="1" height="109.7" transform="translate(-43.99 395.5) rotate(-60)"/><rect class="h" x="339.02" y="170.03" width="1" height="109.7" transform="translate(-24.99 406.47) rotate(-60)"/><rect class="h" x="358.02" y="159.06" width="1" height="109.69" transform="translate(-5.99 417.44) rotate(-60)"/><rect class="h" x="41.97" y="268.26" width="329.09" height="1" transform="translate(-106.7 139.24) rotate(-29.99)"/><rect class="h" x="60.97" y="279.23" width="329.09" height="1" transform="translate(-109.64 150.2) rotate(-29.99)"/><rect class="h" x="79.97" y="290.2" width="329.09" height="1" transform="translate(-112.58 161.17) rotate(-29.99)"/><rect class="h" x="98.97" y="301.17" width="329.09" height="1" transform="translate(-115.52 172.14) rotate(-29.99)"/><polygon class="h" points="45.27 340.49 44.77 339.63 330.01 174.94 330.26 175.08 425.27 229.93 424.77 230.8 330.01 176.09 45.27 340.49"/><rect class="h" x="329.51" width="1" height="175.52"/><polygon class="i" points="249.52 212.03 256.11 205.44 251.52 200.85 249.52 200.85 249.52 212.03"/><polygon class="i" points="225.14 212.03 218.54 205.44 223.14 200.85 225.14 200.85 225.14 212.03"/><path class="j" d="M267.48,188.42l-16-16v0H223.14v0l-15.95,16a4,4,0,0,0,0,5.66l11.36,11.36,4.59-4.6-9.59-9.59,9.59-9.6h0v19.21h28.38V181.64h0l9.59,9.6-9.59,9.59,4.59,4.6,11.37-11.36A4,4,0,0,0,267.48,188.42Z"/><path d="M236.32,276.65h14.34a6,6,0,0,1,6,6v3.28a0,0,0,0,1,0,0H236.32a0,0,0,0,1,0,0v-9.28A0,0,0,0,1,236.32,276.65Z"/><path d="M204.39,276.65h21.27a0,0,0,0,1,0,0v3.28a6,6,0,0,1-6,6H204.39a0,0,0,0,1,0,0v-9.28A0,0,0,0,1,204.39,276.65Z" transform="translate(430.05 562.58) rotate(-180)"/><polygon class="k" points="249.52 269.99 249.52 200.85 225.14 200.85 213.28 269.99 212 269.99 211 276.65 226.5 276.65 227.5 269.99 226.81 269.99 236.32 214.5 236.32 269.99 235.18 269.99 235.18 276.65 250.67 276.65 250.67 269.99 249.52 269.99"/><path d="M244.33,161.81h0v-7h-7a7,7,0,0,0-6.28,10.09l3.28-7.46,10,4.39v0Z"/><path class="l" d="M244.33,161.84l-10-4.39-3.28,7.46a7.08,7.08,0,0,0,3.28,3.23v4.32l3,3,3-3v-4.32A7,7,0,0,0,244.33,161.84Z"/></svg>