<svg xmlns="http://www.w3.org/2000/svg" xmlns:xlink="http://www.w3.org/1999/xlink" viewBox="0 0 298.76 206.99"><defs><style>.a{fill:#e2e2e2;}.b{fill:url(#a);}.c{fill:#c8c8c8;}.d{opacity:0.5;fill:url(#b);}.e{fill:#ffc629;}.f{fill:url(#c);}.g{fill:#fff;}.h{fill:#995209;}.i{fill:#ff595a;}.j{fill:#003d4c;}.k{fill:#cc6d0c;}</style><linearGradient id="a" x1="25.88" y1="6.68" x2="175.88" y2="92.17" gradientUnits="userSpaceOnUse"><stop offset="0" stop-color="#fff"/><stop offset="1" stop-color="#fff" stop-opacity="0"/></linearGradient><radialGradient id="b" cx="196.76" cy="89.3" r="60.58" gradientUnits="userSpaceOnUse"><stop offset="0" stop-color="#aaa"/><stop offset="1" stop-color="#aaa" stop-opacity="0"/></radialGradient><linearGradient id="c" x1="186.77" y1="93.68" x2="186.77" y2="164.74" gradientUnits="userSpaceOnUse"><stop offset="0" stop-color="#f5a503"/><stop offset="1" stop-color="#f5a503" stop-opacity="0"/></linearGradient></defs><title>Locker</title><polygon points="298.76 151.84 290.24 153 293 154.59 266.05 170.11 266.55 170.97 293.5 155.45 293.49 158.63 298.76 151.84"/><polygon points="235.38 188.97 234.88 188.11 208.53 203.36 208.53 200.18 203.27 206.98 211.79 205.81 209.03 204.22 235.38 188.97"/><polygon points="170.27 206.99 165 200.19 165.01 203.37 138.13 187.86 137.63 188.72 164.51 204.24 161.75 205.82 170.27 206.99"/><polygon points="106.96 169.86 80.52 154.59 83.28 153.01 74.76 151.84 80.03 158.64 80.02 155.46 106.46 170.73 106.96 169.86"/><polygon points="75.26 145.48 75.26 125.65 74.26 125.65 74.26 145.48 71.51 143.88 74.76 151.84 78.02 143.88 75.26 145.48"/><polygon points="78.02 72.62 74.76 64.67 71.51 72.62 74.26 71.03 74.26 89.76 75.26 89.76 75.26 71.03 78.02 72.62"/><path d="M68.8,107.29a4.56,4.56,0,0,1-.86,2.79,2.52,2.52,0,0,1-2.1,1.16,2.8,2.8,0,0,1-1.29-.32,5.34,5.34,0,0,1-1.36-1.14,5.06,5.06,0,0,0-.78-.77,1.24,1.24,0,0,0-.76-.27,1.1,1.1,0,0,0-1,.57,2.94,2.94,0,0,0-.35,1.55l-1.61,0a4.35,4.35,0,0,1,.85-2.76,2.57,2.57,0,0,1,2.11-1.1,2.49,2.49,0,0,1,1.37.39,6.58,6.58,0,0,1,1.27,1.08,4.73,4.73,0,0,0,.78.78,1.29,1.29,0,0,0,.77.25,1.2,1.2,0,0,0,1-.61,2.83,2.83,0,0,0,.41-1.61Z"/><path d="M78.4,110.32h1.71v1.6H78.4v3.56H76.53v-3.56h-5.8v-1.15l5.71-10.65h2Zm-5.6,0h3.73V103Z"/><path d="M82.4,104.45l-1.05-.76a5.77,5.77,0,0,0,.86-2.87V99.28h1.84v1.43a5.39,5.39,0,0,1-.47,2.05A4.79,4.79,0,0,1,82.4,104.45Z"/><path d="M244.83,179.67l.66-7.66h6.68v1.81h-5.11L246.7,178a3.55,3.55,0,0,1,2.05-.66,3.31,3.31,0,0,1,2.82,1.39,6.21,6.21,0,0,1,1,3.74,5.78,5.78,0,0,1-1.11,3.75,4.09,4.09,0,0,1-5.87.23,4.89,4.89,0,0,1-1.25-3.12h1.75a3.61,3.61,0,0,0,.76,2,2,2,0,0,0,1.55.67,1.92,1.92,0,0,0,1.7-1,4.61,4.61,0,0,0,.61-2.54,4.21,4.21,0,0,0-.66-2.46,2.06,2.06,0,0,0-1.77-.95,2.21,2.21,0,0,0-1.49.48l-.5.5Z"/><path d="M255.13,176.34l-1-.76a5.75,5.75,0,0,0,.85-2.87v-1.54h1.85v1.42a5.49,5.49,0,0,1-.47,2A4.76,4.76,0,0,1,255.13,176.34Z"/><path d="M116.4,179.42l.67-7.66h6.67v1.81h-5.1l-.36,4.18a3.52,3.52,0,0,1,2-.66,3.29,3.29,0,0,1,2.81,1.39,6.15,6.15,0,0,1,1,3.75,5.71,5.71,0,0,1-1.12,3.74,3.72,3.72,0,0,1-3,1.36,3.77,3.77,0,0,1-2.82-1.13,4.93,4.93,0,0,1-1.24-3.12h1.75a3.68,3.68,0,0,0,.75,2,2,2,0,0,0,1.56.67,1.93,1.93,0,0,0,1.7-1,4.59,4.59,0,0,0,.61-2.54,4.21,4.21,0,0,0-.66-2.46,2.07,2.07,0,0,0-1.78-.95,2.13,2.13,0,0,0-1.48.49l-.5.49Z"/><path d="M126.71,176.09l-1-.76a5.77,5.77,0,0,0,.86-2.87v-1.54h1.84v1.42a5.31,5.31,0,0,1-.47,2A4.62,4.62,0,0,1,126.71,176.09Z"/><polygon class="a" points="186.76 0 91.77 54.85 91.77 142.61 186.76 87.76 186.76 0"/><polygon class="b" points="186.76 0 91.77 54.85 91.77 142.61 186.76 87.76 186.76 0"/><polygon class="c" points="281.76 54.85 281.76 142.6 186.76 87.76 186.76 0 281.76 54.85"/><polygon class="d" points="281.76 54.85 281.76 142.6 186.76 87.76 186.76 0 281.76 54.85"/><polygon class="e" points="186.77 197.46 91.77 142.61 186.77 87.76 281.77 142.6 186.77 197.46"/><polygon class="f" points="186.77 197.46 91.77 142.61 186.77 87.76 281.77 142.6 186.77 197.46"/><rect class="g" x="157.77" y="104.21" width="1" height="109.7" transform="translate(-58.62 216.59) rotate(-60)"/><rect class="g" x="176.77" y="93.24" width="1" height="109.7" transform="translate(-39.62 227.56) rotate(-60)"/><rect class="g" x="195.76" y="82.27" width="1" height="109.7" transform="translate(-20.62 238.53) rotate(-60)"/><rect class="g" x="214.76" y="71.3" width="1" height="109.69" transform="translate(-1.62 249.5) rotate(-60)"/><rect class="g" x="103.42" y="125.65" width="109.7" height="1" transform="translate(-41.87 96.02) rotate(-29.99)"/><rect class="g" x="122.41" y="136.62" width="109.7" height="1" transform="translate(-44.81 106.98) rotate(-29.99)"/><rect class="g" x="141.42" y="147.59" width="109.7" height="1" transform="translate(-47.75 117.95) rotate(-29.99)"/><rect class="g" x="160.42" y="158.56" width="109.7" height="1" transform="translate(-50.69 128.92) rotate(-29.99)"/><polygon class="g" points="92.02 143.04 91.52 142.17 186.76 87.18 187.01 87.33 282.01 142.17 281.51 143.04 186.76 88.34 92.02 143.04"/><rect class="g" x="186.26" width="1" height="87.76"/><polygon class="h" points="45.13 68.93 51.72 62.34 47.13 57.75 45.13 57.75 45.13 68.93"/><polygon class="h" points="20.75 68.93 14.15 62.34 18.75 57.75 20.75 57.75 20.75 68.93"/><path class="i" d="M63.09,45.33l-16-16v0H18.75v0l-15.95,16a4,4,0,0,0,0,5.65L14.15,62.34l4.59-4.6L9.15,48.15l9.59-9.6h0V57.75H47.13V38.54h0l9.59,9.6-9.59,9.59,4.59,4.6L63.08,51A4,4,0,0,0,63.09,45.33Z"/><path d="M31.93,133.55H46.27a6,6,0,0,1,6,6v3.28a0,0,0,0,1,0,0H31.93a0,0,0,0,1,0,0v-9.28A0,0,0,0,1,31.93,133.55Z"/><path d="M0,133.55H21.27a0,0,0,0,1,0,0v3.28a6,6,0,0,1-6,6H0a0,0,0,0,1,0,0v-9.28A0,0,0,0,1,0,133.55Z" transform="translate(21.27 276.38) rotate(-180)"/><polygon class="j" points="45.13 126.89 45.13 57.75 20.75 57.75 8.89 126.89 7.61 126.89 6.61 133.55 22.11 133.55 23.11 126.89 22.41 126.89 31.93 71.4 31.93 126.89 30.78 126.89 30.78 133.55 46.28 133.55 46.28 126.89 45.13 126.89"/><path d="M39.94,18.71h0v-7h-7a7,7,0,0,0-7,7,6.91,6.91,0,0,0,.72,3.08l3.28-7.46,10,4.39h0Z"/><path class="k" d="M39.94,18.74l-10-4.39-3.28,7.46A7,7,0,0,0,29.94,25v4.32l3,3,3-3V25A7,7,0,0,0,39.94,18.74Z"/></svg>