<svg xmlns="http://www.w3.org/2000/svg" xmlns:xlink="http://www.w3.org/1999/xlink" viewBox="0 0 2880 845.39"><defs><style>.a{fill:#31848b;}.b{fill:#62cbc9;}.c{fill:#995209;}.d{fill:#003d4c;}.au,.ba,.cf,.e{opacity:0.4;}.e{fill:url(#a);}.ab,.ar,.as,.f,.g,.p,.q{opacity:0.6;}.f{fill:url(#b);}.g{fill:url(#c);}.h{fill:#e2e2e2;}.i{fill:url(#d);}.aa,.ad,.ag,.ah,.ai,.aj,.al,.am,.an,.ay,.az,.bc,.bg,.bh,.bj,.br,.bs,.cg,.j,.m,.r,.s,.t,.u,.v,.w{opacity:0.3;}.j{fill:url(#e);}.k{fill:url(#f);}.l{fill:url(#g);}.m{fill:url(#h);}.n{fill:url(#i);}.bf,.bv,.bw,.bx,.o{opacity:0.5;}.p{fill:url(#j);}.q{fill:url(#k);}.r{fill:url(#l);}.s{fill:url(#m);}.t{fill:url(#n);}.u{fill:url(#o);}.v{fill:url(#p);}.w{fill:url(#q);}.x{fill:#ffc629;}.y{fill:#fff;}.ae,.ak,.bl,.bm,.bu,.z{opacity:0.7;}.z{fill:url(#r);}.aa{fill:url(#s);}.ab{fill:url(#t);}.ac{fill:url(#u);}.ad{fill:url(#v);}.ae{fill:url(#w);}.af{fill:#19616b;}.ag{fill:url(#x);}.ah{fill:url(#y);}.ai{fill:url(#z);}.aj{fill:url(#aa);}.ak{fill:url(#ab);}.al{fill:url(#ac);}.am{fill:url(#ad);}.an{fill:url(#ae);}.ao{fill:#cca129;}.ap{opacity:0.2;fill:url(#af);}.aq{fill:#ff595a;}.ar{fill:url(#ag);}.as{fill:url(#ah);}.at{fill:url(#ai);}.au{fill:url(#aj);}.av{fill:url(#ak);}.aw{fill:#d68a3d;}.ax{fill:url(#al);}.ay{fill:url(#am);}.az{fill:url(#an);}.ba{fill:url(#ao);}.bb{fill:url(#ap);}.bc{fill:url(#aq);}.bd{fill:url(#ar);}.be{fill:url(#as);}.bf{fill:url(#at);}.bg{fill:url(#au);}.bh{fill:url(#av);}.bi{fill:#ffc1b9;}.bj{fill:url(#aw);}.bk{fill:#cc6d0c;}.bl{fill:url(#ax);}.bm{fill:url(#ay);}.bn{fill:#bf4344;}.bo{fill:url(#az);}.bp{fill:url(#ba);}.bq{fill:#c8c8c8;}.br{fill:url(#bb);}.bs{fill:url(#bc);}.bt{fill:url(#bd);}.bu{fill:url(#be);}.bv{fill:url(#bf);}.bw{fill:url(#bg);}.bx{fill:url(#bh);}.by{fill:url(#bi);}.bz{fill:url(#bj);}.ca{fill:#231f20;}.cb{fill:url(#bk);}.cc{fill:url(#bl);}.cd{fill:url(#bm);}.ce{fill:url(#bn);}.cf{fill:url(#bo);}.cg{fill:url(#bp);}.ch{fill:url(#bq);}</style><radialGradient id="a" cx="1444" cy="389.39" r="305.59" gradientUnits="userSpaceOnUse"><stop offset="0" stop-color="#62cbc9"/><stop offset="1" stop-color="#62cbc9" stop-opacity="0"/></radialGradient><radialGradient id="b" cx="1923.85" cy="359.4" r="249.83" xlink:href="#a"/><radialGradient id="c" cx="956.15" cy="351.4" r="305.9" xlink:href="#a"/><radialGradient id="d" cx="2512.85" cy="842.75" r="523.35" gradientUnits="userSpaceOnUse"><stop offset="0.8" stop-color="#488c92"/><stop offset="1" stop-color="#488c92" stop-opacity="0"/></radialGradient><radialGradient id="e" cx="2268" cy="488.39" r="183.51" gradientUnits="userSpaceOnUse"><stop offset="0" stop-color="#fff"/><stop offset="1" stop-color="#fff" stop-opacity="0"/></radialGradient><linearGradient id="f" x1="2460" y1="881.02" x2="2460" y2="759.51" gradientUnits="userSpaceOnUse"><stop offset="0" stop-color="#488c92"/><stop offset="1" stop-color="#488c92" stop-opacity="0"/></linearGradient><radialGradient id="g" cx="401.1" cy="844.76" r="448.51" xlink:href="#d"/><radialGradient id="h" cx="592" cy="492.39" r="316.23" xlink:href="#e"/><linearGradient id="i" x1="400" y1="887.02" x2="400" y2="682.93" xlink:href="#f"/><linearGradient id="j" x1="2668.45" y1="168.6" x2="2510.95" y2="11.1" gradientUnits="userSpaceOnUse"><stop offset="0" stop-color="#aaa"/><stop offset="1" stop-color="#aaa" stop-opacity="0"/></linearGradient><linearGradient id="k" x1="2836.46" y1="212.08" x2="2618.84" y2="-5.53" xlink:href="#j"/><linearGradient id="l" x1="2100.97" y1="147.13" x2="1968.91" y2="15.07" xlink:href="#j"/><linearGradient id="m" x1="2459.14" y1="158.96" x2="2281.32" y2="-18.85" xlink:href="#j"/><linearGradient id="n" x1="2339.52" y1="232.58" x2="2123.29" y2="16.35" xlink:href="#j"/><linearGradient id="o" x1="475.35" y1="71.9" x2="588.44" y2="71.9" xlink:href="#j"/><linearGradient id="p" x1="683.77" y1="52.57" x2="864.15" y2="52.57" xlink:href="#j"/><linearGradient id="q" x1="522.83" y1="52.36" x2="788.04" y2="52.36" xlink:href="#j"/><linearGradient id="r" x1="1440" y1="839.6" x2="1440" y2="808.6" gradientTransform="translate(2880 1646.49) rotate(-180)" xlink:href="#j"/><linearGradient id="s" x1="1096.58" y1="616.04" x2="1707.1" y2="616.04" gradientTransform="translate(2880 1232.08) rotate(-180)" gradientUnits="userSpaceOnUse"><stop offset="0" stop-color="#aaa"/><stop offset="1" stop-color="#aaa" stop-opacity="0.3"/></linearGradient><linearGradient id="t" x1="825" y1="568.89" x2="2055" y2="568.89" gradientTransform="translate(2880 1137.78) rotate(-180)" gradientUnits="userSpaceOnUse"><stop offset="0" stop-color="#62cbc9"/><stop offset="0.31" stop-color="#62cbc9" stop-opacity="0.5"/><stop offset="0.67" stop-color="#62cbc9" stop-opacity="0.2"/><stop offset="1" stop-color="#62cbc9"/></linearGradient><linearGradient id="u" x1="858.09" y1="560.39" x2="1999.94" y2="560.39" gradientTransform="translate(2880 1120.78) rotate(-180)" gradientUnits="userSpaceOnUse"><stop offset="0.64" stop-color="#fff"/><stop offset="1" stop-color="#fff" stop-opacity="0"/></linearGradient><linearGradient id="v" x1="110" y1="659.38" x2="180" y2="659.38" xlink:href="#a"/><linearGradient id="w" x1="1185" y1="659.38" x2="1263" y2="659.38" gradientTransform="matrix(-1, 0, 0, 1, 1263, 0)" gradientUnits="userSpaceOnUse"><stop offset="0" stop-color="#231f20"/><stop offset="1" stop-color="#231f20" stop-opacity="0"/></linearGradient><linearGradient id="x" x1="130.7" y1="620.03" x2="130.7" y2="536.87" xlink:href="#a"/><linearGradient id="y" x1="48.3" y1="554.03" x2="48.3" y2="659.71" gradientTransform="matrix(1, 0, 0, 1, 0, 0)" xlink:href="#w"/><linearGradient id="z" x1="90" y1="499.1" x2="142.81" y2="499.1" xlink:href="#a"/><linearGradient id="aa" x1="2810" y1="659.38" x2="2880" y2="659.38" xlink:href="#a"/><linearGradient id="ab" x1="-1515" y1="659.38" x2="-1437" y2="659.38" xlink:href="#w"/><linearGradient id="ac" x1="2830.7" y1="620.03" x2="2830.7" y2="536.87" xlink:href="#a"/><linearGradient id="ad" x1="2748.3" y1="554.03" x2="2748.3" y2="659.71" gradientTransform="matrix(1, 0, 0, 1, 0, 0)" xlink:href="#w"/><linearGradient id="ae" x1="2790" y1="499.1" x2="2842.81" y2="499.1" xlink:href="#a"/><linearGradient id="af" x1="395.5" y1="464.04" x2="395.5" y2="631.5" xlink:href="#j"/><linearGradient id="ag" x1="410.5" y1="769.1" x2="410.5" y2="788.1" xlink:href="#a"/><linearGradient id="ah" x1="165.5" y1="769.1" x2="165.5" y2="788.1" xlink:href="#a"/><linearGradient id="ai" x1="165.5" y1="740.02" x2="165.5" y2="818.15" xlink:href="#e"/><linearGradient id="aj" x1="194.06" y1="665.03" x2="194.06" y2="704.05" xlink:href="#a"/><linearGradient id="ak" x1="410.5" y1="740.02" x2="410.5" y2="818.15" xlink:href="#e"/><linearGradient id="al" x1="1733.36" y1="875.02" x2="1733.36" y2="795.51" gradientUnits="userSpaceOnUse"><stop offset="0" stop-color="#753e07"/><stop offset="1" stop-color="#753e07" stop-opacity="0"/></linearGradient><linearGradient id="am" x1="1754.23" y1="787.6" x2="1754.23" y2="742.59" gradientTransform="matrix(1, 0, 0, 1, 0, 0)" xlink:href="#w"/><linearGradient id="an" x1="2400" y1="553.6" x2="2400" y2="668.46" gradientUnits="userSpaceOnUse"><stop offset="0" stop-color="#aaa"/><stop offset="1" stop-color="#aaa" stop-opacity="0.1"/></linearGradient><linearGradient id="ao" x1="2403.78" y1="621.21" x2="2403.78" y2="663.59" xlink:href="#e"/><linearGradient id="ap" x1="2685.74" y1="569.39" x2="2700" y2="569.39" gradientUnits="userSpaceOnUse"><stop offset="0" stop-color="#f5a503"/><stop offset="1" stop-color="#f5a503" stop-opacity="0"/></linearGradient><linearGradient id="aq" x1="2533.51" y1="569.39" x2="2479.49" y2="569.39" gradientTransform="translate(5014.68 1138.78) rotate(180)" xlink:href="#e"/><linearGradient id="ar" x1="2605.84" y1="425.6" x2="2605.84" y2="519.65" xlink:href="#ap"/><linearGradient id="as" x1="2650" y1="293.05" x2="2650" y2="186.04" gradientUnits="userSpaceOnUse"><stop offset="0" stop-color="#ce3641"/><stop offset="1" stop-color="#ce3641" stop-opacity="0"/></linearGradient><linearGradient id="at" x1="2640" y1="657.53" x2="2640" y2="775.68" gradientTransform="matrix(1, 0, 0, 1, 0, 0)" xlink:href="#w"/><linearGradient id="au" x1="2560" y1="703.44" x2="2560" y2="780.15" xlink:href="#e"/><linearGradient id="av" x1="2720" y1="706.7" x2="2720" y2="802.42" gradientTransform="translate(5440 1517.64) rotate(180)" xlink:href="#e"/><linearGradient id="aw" x1="617.78" y1="730.35" x2="615.28" y2="761.85" xlink:href="#j"/><linearGradient id="ax" x1="816.91" y1="764.11" x2="828.24" y2="812.11" gradientTransform="matrix(1, 0, 0, 1, 0, 0)" xlink:href="#w"/><linearGradient id="ay" x1="1036.52" y1="846.6" x2="1036.52" y2="824.6" gradientUnits="userSpaceOnUse"><stop offset="0" stop-color="#ee7669"/><stop offset="1" stop-color="#ee7669" stop-opacity="0"/></linearGradient><linearGradient id="az" x1="1224.17" y1="777.1" x2="1196.83" y2="777.1" gradientUnits="userSpaceOnUse"><stop offset="0" stop-color="#9c2831"/><stop offset="1" stop-color="#ce3641" stop-opacity="0"/></linearGradient><linearGradient id="ba" x1="1906.17" y1="799.67" x2="1897.47" y2="799.67" xlink:href="#ap"/><linearGradient id="bb" x1="1969.26" y1="742.6" x2="1969.26" y2="786.65" gradientTransform="matrix(1, 0, 0, 1, 0, 0)" xlink:href="#w"/><linearGradient id="bc" x1="1948.09" y1="739.83" x2="1948.09" y2="721.31" gradientTransform="matrix(1, 0, 0, 1, 0, 0)" xlink:href="#w"/><linearGradient id="bd" x1="1651.7" y1="795.52" x2="1651.7" y2="739.84" gradientTransform="translate(3303.41 1480.5) rotate(180)" xlink:href="#al"/><linearGradient id="be" x1="1703" y1="785.22" x2="1684" y2="785.22" gradientTransform="matrix(1, 0, 0, 1, 0, 0)" xlink:href="#w"/><linearGradient id="bf" x1="1623.99" y1="780.6" x2="1623.99" y2="804.68" xlink:href="#ay"/><linearGradient id="bg" x1="1592.82" y1="780.6" x2="1592.82" y2="804.68" xlink:href="#ay"/><linearGradient id="bh" x1="915.5" y1="789.93" x2="915.5" y2="803.27" xlink:href="#ay"/><linearGradient id="bi" x1="915.5" y1="761.93" x2="915.5" y2="733.93" xlink:href="#al"/><linearGradient id="bj" x1="269.72" y1="812.6" x2="269.72" y2="770.49" xlink:href="#al"/><linearGradient id="bk" x1="346.83" y1="782.97" x2="363.85" y2="782.97" xlink:href="#al"/><linearGradient id="bl" x1="2683.62" y1="788.87" x2="2646.17" y2="788.87" xlink:href="#al"/><linearGradient id="bm" x1="2099.67" y1="830.1" x2="2099.67" y2="803.58" xlink:href="#j"/><linearGradient id="bn" x1="2283.24" y1="830.6" x2="2283.24" y2="801.45" xlink:href="#j"/><linearGradient id="bo" x1="2145.07" y1="708.53" x2="2145.07" y2="741.56" xlink:href="#a"/><linearGradient id="bp" x1="1994.93" y1="754.78" x2="2263.34" y2="754.78" xlink:href="#e"/><linearGradient id="bq" x1="2382.02" y1="731.17" x2="2496.17" y2="731.17" xlink:href="#al"/></defs><title>Home</title><path class="a" d="M1736.71,463.19a20,20,0,1,0-21,19.95v22.12h2V483.14A20,20,0,0,0,1736.71,463.19Z"/><path class="a" d="M1686.52,500.4a15,15,0,1,0-16,15V532h2v-16.6A15,15,0,0,0,1686.52,500.4Z"/><polygon class="a" points="774.51 483.56 759.51 442.63 744.51 483.56 758.51 483.56 758.51 499.58 760.51 499.58 760.51 483.56 774.51 483.56"/><path class="a" d="M845,430.36a20,20,0,1,0-21,19.95v22.12h2V450.31A20,20,0,0,0,845,430.36Z"/><polygon class="a" points="720.4 525.71 700.4 471.14 680.4 525.71 699.4 525.71 699.4 547.07 701.4 547.07 701.4 525.71 720.4 525.71"/><path class="a" d="M1206.67,480.64a20,20,0,1,0-21,19.95v22.12h2V500.59A20,20,0,0,0,1206.67,480.64Z"/><polygon class="b" points="2480.52 405.13 2418.52 405.13 2449.52 320.54 2480.52 405.13"/><polygon class="c" points="2448.52 375.13 2448.52 393.49 2441.18 386.15 2439.77 387.56 2448.52 396.32 2448.52 438.24 2450.52 438.24 2450.52 375.13 2448.52 375.13"/><polygon class="b" points="2357.98 415.65 2407.98 415.65 2382.98 347.44 2357.98 415.65"/><polygon class="c" points="2390.99 401.62 2389.57 400.21 2383.98 405.8 2383.98 391.46 2381.98 391.46 2381.98 442.35 2383.98 442.35 2383.98 408.63 2390.99 401.62"/><polygon class="a" points="2170.37 497.25 2150.37 442.68 2130.37 497.25 2149.37 497.25 2149.37 518.61 2151.37 518.61 2151.37 497.25 2170.37 497.25"/><path class="d" d="M1810,844.39H1070c0-204.34,165.65-370,370-370S1810,640.05,1810,844.39Z"/><path class="e" d="M1810,844.39H1070c0-204.34,165.65-370,370-370S1810,640.05,1810,844.39Z"/><path class="a" d="M1520.85,844.39h800c0-220.91-179.09-400-400-400S1520.85,623.48,1520.85,844.39Z"/><path class="f" d="M1520.85,844.39h800c0-220.91-179.09-400-400-400S1520.85,623.48,1520.85,844.39Z"/><path class="a" d="M1359.15,844.39h-800c0-220.91,179.09-400,400-400S1359.15,623.48,1359.15,844.39Z"/><path class="g" d="M1359.15,844.39h-800c0-220.91,179.09-400,400-400S1359.15,623.48,1359.15,844.39Z"/><circle class="b" cx="324.27" cy="402.5" r="30"/><polygon class="c" points="323.27 402.5 323.27 420.85 315.92 413.51 314.51 414.93 323.27 423.68 323.27 465.6 325.27 465.6 325.27 402.5 323.27 402.5"/><circle class="b" cx="193.66" cy="461.47" r="25"/><polygon class="c" points="201.91 471.95 200.5 470.53 194.66 476.37 194.66 461.47 192.66 461.47 192.66 514.06 194.66 514.06 194.66 479.2 201.91 471.95"/><polygon class="b" points="469 432.19 407 432.19 438 347.6 469 432.19"/><polygon class="c" points="437 402.19 437 420.55 429.66 413.2 428.24 414.62 437 423.38 437 465.3 439 465.3 439 402.19 437 402.19"/><polygon class="b" points="2068.97 508.3 2006.97 508.3 2037.97 423.71 2068.97 508.3"/><polygon class="c" points="2036.97 478.3 2036.97 496.66 2029.62 489.31 2028.21 490.73 2036.97 499.49 2036.97 541.4 2038.97 541.4 2038.97 478.3 2036.97 478.3"/><path class="h" d="M864.15,104.71H475.35a69.08,69.08,0,0,1,110.2-55.5,104.69,104.69,0,0,1,170.21-10.3,74.13,74.13,0,0,1,108.39,65.8Z"/><path class="h" d="M2816.73,53.7a104.67,104.67,0,0,0-172.86-14.79,74.13,74.13,0,0,0-108.4,65.8H2830A104.2,104.2,0,0,0,2816.73,53.7Z"/><path class="h" d="M2430.82,104.71H2042a69.08,69.08,0,0,1,110.2-55.5,104.69,104.69,0,0,1,170.21-10.3,74.13,74.13,0,0,1,108.39,65.8Z"/><circle class="b" cx="1005.03" cy="464.16" r="30"/><polygon class="c" points="1014.79 476.59 1013.38 475.17 1006.03 482.51 1006.03 464.16 1004.03 464.16 1004.03 527.26 1006.03 527.26 1006.03 485.34 1014.79 476.59"/><path class="b" d="M1585.56,844.39h670.57c0-185.17-150.11-335.29-335.28-335.29S1585.56,659.22,1585.56,844.39Z"/><path class="i" d="M1585.56,844.39h670.57c0-185.17-150.11-335.29-335.28-335.29S1585.56,659.22,1585.56,844.39Z"/><path class="b" d="M2880,844.39H2040c0-232,188-420,420-420S2880,612.43,2880,844.39Z"/><path class="j" d="M2880,844.39H2040c0-232,188-420,420-420S2880,612.43,2880,844.39Z"/><path class="k" d="M2880,844.39H2040c0-232,188-420,420-420S2880,612.43,2880,844.39Z"/><path class="b" d="M1294.44,844.39H623.87C623.87,659.22,774,509.1,959.15,509.1S1294.44,659.22,1294.44,844.39Z"/><path class="l" d="M1294.44,844.39H623.87C623.87,659.22,774,509.1,959.15,509.1S1294.44,659.22,1294.44,844.39Z"/><path class="b" d="M800,844.39H0c0-220.91,179.09-400,400-400S800,623.48,800,844.39Z"/><path class="m" d="M800,844.39H0c0-220.91,179.09-400,400-400S800,623.48,800,844.39Z"/><path class="n" d="M800,844.39H0c0-220.91,179.09-400,400-400S800,623.48,800,844.39Z"/><g class="o"><path class="p" d="M2535.47,104.71h138.17l-73.55-73.56A74.19,74.19,0,0,0,2535.47,104.71Z"/><path class="q" d="M2687,7.22a105,105,0,0,0-43.16,31.69,73.44,73.44,0,0,0-43.78-7.76l73.55,73.56h110.88Z"/></g><path class="r" d="M2042,104.71h33.05l-27.39-27.4A68.73,68.73,0,0,0,2042,104.71Z"/><path class="s" d="M2430.82,104.71a74.13,74.13,0,0,0-108.39-65.8A104.51,104.51,0,0,0,2243.56,0l104.66,104.67Z"/><path class="t" d="M2243.56,0c-.85,0-1.71,0-2.56,0a104.65,104.65,0,0,0-88.78,49.2,69.09,69.09,0,0,0-104.54,28.1l27.39,27.4h273.15Z"/><path class="u" d="M475.35,104.71H588.44L522.83,39.1A69.09,69.09,0,0,0,475.35,104.71Z"/><path class="v" d="M864.15,104.71a74.13,74.13,0,0,0-108.39-65.8,104.55,104.55,0,0,0-72-38.48L788,104.71Z"/><path class="w" d="M683.77.43Q679.11,0,674.33,0a104.65,104.65,0,0,0-88.78,49.2A69.11,69.11,0,0,0,522.83,39.1l65.61,65.61H788Z"/><path class="x" d="M150,62V58H124.22a34.13,34.13,0,0,0-8.61-20.79L133.84,19,131,16.17,112.78,34.39A34.18,34.18,0,0,0,92,25.78V0H88V25.78a34.18,34.18,0,0,0-20.78,8.61L49,16.17,46.16,19,64.39,37.22A34.13,34.13,0,0,0,55.78,58H30v4H55.78a34.12,34.12,0,0,0,8.61,20.78L46.16,101,49,103.85,67.22,85.62A34.12,34.12,0,0,0,88,94.23V120h4V94.23a34.12,34.12,0,0,0,20.78-8.61L131,103.85l2.83-2.83L115.61,82.79A34.12,34.12,0,0,0,124.22,62Z"/><rect class="y" x="841.4" y="604.39" width="1197.19" height="240" transform="translate(2880 1448.78) rotate(180)"/><rect class="z" x="841.4" y="802.1" width="1197.19" height="42.29" transform="translate(2880 1646.49) rotate(180)"/><rect class="aa" x="841.4" y="604.39" width="1197.19" height="23.3" transform="translate(2880 1232.08) rotate(180)"/><rect x="825" y="556.39" width="1230" height="48" transform="translate(2880 1160.78) rotate(180)"/><rect class="ab" x="825" y="556.39" width="1230" height="25" transform="translate(2880 1137.78) rotate(180)"/><rect class="y" x="978.17" y="556.39" width="1" height="48"/><rect class="y" x="1131.84" y="556.39" width="1" height="48"/><rect class="y" x="1285.51" y="556.39" width="1" height="48"/><rect class="y" x="1439.18" y="556.39" width="1" height="48"/><rect class="y" x="1592.85" y="556.39" width="1" height="48"/><rect class="y" x="1746.51" y="556.39" width="1" height="48"/><rect class="y" x="1900.18" y="556.39" width="1" height="48"/><rect class="ac" x="825" y="556.39" width="1230" height="8" transform="translate(2880 1120.78) rotate(180)"/><path class="d" d="M2736,844.39h-36a18,18,0,1,1,36,0Z"/><path class="d" d="M2772,844.39h-36a18,18,0,1,1,36,0Z"/><path class="d" d="M2808,844.39h-36a18,18,0,1,1,36,0Z"/><path class="d" d="M2844,844.39h-36a18,18,0,1,1,36,0Z"/><path class="d" d="M2880,844.39h-36a18,18,0,1,1,36,0Z"/><path class="d" d="M36,844.39H0a18,18,0,0,1,36,0Z"/><path class="d" d="M72,844.39H36a18,18,0,0,1,36,0Z"/><path class="d" d="M108,844.39H72a18,18,0,0,1,36,0Z"/><path class="d" d="M144,844.39H108a18,18,0,0,1,36,0Z"/><path class="d" d="M180,844.39H144a18,18,0,0,1,36,0Z"/><polygon class="d" points="0 764.62 90 764.62 180 764.62 162.5 712 145 659.38 110 554.14 70 554.14 35 659.38 17.5 712 0 764.62"/><polygon class="ad" points="160 764.62 180 764.62 110 554.14 160 764.62"/><polygon class="ae" points="36 764.62 0 764.62 70 554.14 78 554.14 36 764.62"/><polygon class="af" points="100 494.26 76.5 502.84 49.3 579.24 33.95 621.73 18.6 664.22 90 664.22 161.4 664.22 146.05 621.73 130.7 579.24 100 494.26"/><polygon class="ag" points="100 494.26 135 664.22 161.4 664.22 100 494.26"/><polygon class="ah" points="79 494.26 44 664.22 17.6 664.22 79 494.26"/><polygon class="a" points="37.19 563.82 90 563.82 142.81 563.82 129.6 531.46 116.4 499.1 90 434.39 63.6 499.1 50.4 531.46 37.19 563.82"/><polygon class="ai" points="120 563.82 142.81 563.82 90 434.39 120 563.82"/><polygon points="90.71 666.11 117.83 638.98 116.42 637.56 90.5 663.48 90.5 563.81 88.5 563.81 88.5 738.07 63.58 713.15 62.17 714.56 88.5 740.9 88.5 844.39 90.5 844.39 90.5 740.48 90.71 740.28 90.5 740.07 90.5 665.9 90.71 666.11"/><polygon class="d" points="2700 764.62 2790 764.62 2880 764.62 2862.5 712 2845 659.38 2810 554.14 2770 554.14 2735 659.38 2717.5 712 2700 764.62"/><polygon class="aj" points="2860 764.62 2880 764.62 2810 554.14 2860 764.62"/><polygon class="ak" points="2736 764.62 2700 764.62 2770 554.14 2778 554.14 2736 764.62"/><polygon class="af" points="2800 494.26 2776.5 502.84 2749.3 579.24 2733.95 621.73 2718.6 664.22 2790 664.22 2861.4 664.22 2846.05 621.73 2830.7 579.24 2800 494.26"/><polygon class="al" points="2800 494.26 2835 664.22 2861.4 664.22 2800 494.26"/><polygon class="am" points="2779 494.26 2744 664.22 2717.6 664.22 2779 494.26"/><polygon class="a" points="2737.19 563.82 2790 563.82 2842.81 563.82 2829.61 531.46 2816.4 499.1 2790 434.39 2763.6 499.1 2750.39 531.46 2737.19 563.82"/><polygon class="an" points="2820 563.82 2842.81 563.82 2790 434.39 2820 563.82"/><polygon points="2790.71 666.11 2817.84 638.98 2816.42 637.56 2790.5 663.48 2790.5 563.81 2788.5 563.81 2788.5 738.07 2763.58 713.15 2762.16 714.56 2788.5 740.9 2788.5 844.39 2790.5 844.39 2790.5 740.48 2790.71 740.28 2790.5 740.07 2790.5 665.9 2790.71 666.11"/><rect x="1806.67" y="673.25" width="200" height="171.15"/><rect class="ao" x="1806.67" y="644.39" width="200" height="28.85"/><rect class="x" x="1818.56" y="658.77" width="188.11" height="14.48"/><rect class="y" x="1806.67" y="653.42" width="200" height="1"/><rect class="y" x="1892.6" y="662.58" width="28.13" height="2"/><rect class="d" x="90.5" y="783.92" width="388.47" height="24.52"/><rect class="y" x="240.5" y="532.92" width="310" height="251"/><rect class="ap" x="240.5" y="532.92" width="310" height="251"/><rect class="h" x="317.5" y="532.92" width="1" height="206.6"/><rect class="h" x="395" y="532.92" width="1" height="206.6"/><rect class="h" x="472.5" y="532.92" width="1" height="206.6"/><path class="h" d="M459.45,783.92h-97.9a52.88,52.88,0,0,1,97.9,0Z"/><polygon class="y" points="238.5 643.91 178.03 643.91 137.21 701.03 90.5 714.49 90.5 783.91 238.5 783.91 238.5 643.91"/><path class="d" d="M165.5,751.05a52.86,52.86,0,0,0-52.86,52.86c0,1.53.07,3,.2,4.53H218.16c.13-1.5.21-3,.21-4.53A52.87,52.87,0,0,0,165.5,751.05Z"/><polygon class="d" points="785.26 844.36 550.38 785.92 90.5 785.92 90.5 783.92 550.62 783.92 550.74 783.95 785.74 842.42 785.26 844.36"/><circle cx="410.5" cy="803.91" r="40"/><rect class="x" x="90.5" y="763.91" width="18.47" height="10.7"/><rect class="aq" x="522.03" y="763.91" width="18.47" height="10"/><rect x="240.5" y="531.92" width="310" height="2"/><circle cx="165.5" cy="803.91" r="40"/><circle class="ar" cx="410.5" cy="803.91" r="40"/><circle class="as" cx="165.5" cy="803.91" r="40"/><circle cx="165.5" cy="803.91" r="34.65"/><circle class="x" cx="165.5" cy="803.91" r="20"/><circle class="at" cx="165.5" cy="803.91" r="20"/><polygon class="d" points="225.83 657.22 183.78 657.22 151.77 702.01 225.83 702.01 225.83 657.22"/><polygon class="a" points="225.83 702.01 225.83 671.77 183.61 671.77 162.29 702.01 225.83 702.01"/><polygon class="au" points="225.83 702.01 225.83 671.77 183.61 671.77 162.29 702.01 225.83 702.01"/><rect class="y" x="182.78" y="657.22" width="2" height="44.79"/><rect class="h" x="240.5" y="738.95" width="310" height="1"/><circle cx="410.5" cy="803.91" r="34.65"/><circle class="x" cx="410.5" cy="803.91" r="20"/><circle class="av" cx="410.5" cy="803.91" r="20"/><rect x="1573.33" y="673.25" width="200" height="171.15"/><rect class="ao" x="1573.33" y="644.39" width="200" height="28.85"/><rect class="x" x="1585.22" y="658.77" width="188.11" height="14.48"/><rect class="y" x="1573.33" y="653.42" width="200" height="1"/><rect class="y" x="1659.27" y="662.58" width="28.13" height="2"/><rect class="aw" x="1810" y="784.92" width="59.47" height="59.47"/><rect class="c" x="1839.24" y="785.65" width="1" height="58.75"/><rect class="h" x="1810" y="745.39" width="39.53" height="39.53"/><rect class="aq" x="1810" y="719.54" width="25.85" height="25.85"/><rect class="aw" x="1696.71" y="771.1" width="73.29" height="73.29"/><rect class="ax" x="1696.71" y="771.1" width="73.29" height="73.29"/><circle class="b" cx="1754.23" cy="755.34" r="15.77"/><circle class="ay" cx="1754.23" cy="755.34" r="15.77"/><rect class="y" x="2300" y="511.39" width="200" height="333"/><polygon class="az" points="2500 511.39 2500 844.39 2485.5 844.39 2485.5 570.81 2300 570.81 2300 511.39 2500 511.39"/><rect class="b" x="2358.03" y="611.69" width="91.5" height="179.99"/><rect class="ba" x="2364.03" y="617.69" width="79.5" height="57.99"/><rect class="y" x="2402.78" y="611.69" width="2" height="179.99"/><rect class="y" x="2358.03" y="670.69" width="91.5" height="2"/><rect class="y" x="2358.03" y="730.69" width="91.5" height="2"/><rect x="2358.03" y="790.68" width="91.5" height="2"/><rect x="2300" y="511.39" width="200" height="42.38"/><rect class="y" x="2366.17" y="511.39" width="1" height="42.38"/><rect class="y" x="2432.83" y="511.39" width="1" height="42.38"/><rect class="x" x="2500" y="294.39" width="200" height="550"/><rect class="bb" x="2685.74" y="294.39" width="14.26" height="550"/><rect class="bc" x="2500.21" y="294.39" width="14.26" height="550" transform="translate(5014.68 1138.78) rotate(-180)"/><circle class="bd" cx="2605.84" cy="404.23" r="70"/><circle class="y" cx="2600" cy="394.39" r="70"/><polygon class="aq" points="2700 294.39 2500 294.39 2524.47 269.92 2525.53 268.86 2549.47 244.92 2550.53 243.86 2574.47 219.92 2575.53 218.86 2600 194.39 2624.47 218.86 2625.53 219.92 2649.47 243.86 2650.53 244.92 2674.47 268.86 2675.53 269.92 2700 294.39"/><polygon class="be" points="2700 294.39 2600 294.39 2600 194.39 2700 294.39"/><path class="aq" d="M2600,396.39h-24.72a2,2,0,0,1,0-4H2598V348.44a2,2,0,0,1,4,0v45.95A2,2,0,0,1,2600,396.39Z"/><rect x="2599" y="329.39" width="2" height="9.35"/><rect x="2535" y="393.39" width="9.35" height="2"/><rect x="2599" y="450.04" width="2" height="9.35"/><rect x="2655.65" y="393.39" width="9.35" height="2"/><path d="M2619.58,181.07l-23.39-23.39a5,5,0,1,0-8.44-4.74l-4.18,1.26,4.18,1.25a5.09,5.09,0,0,0,1.29,2.3,5.69,5.69,0,0,0,.61.49,18.95,18.95,0,0,0,9.85,27.18v9h1v-8.62A19,19,0,0,0,2619.58,181.07Z"/><polygon points="2625.53 219.92 2574.47 219.92 2575.53 218.86 2624.47 218.86 2625.53 219.92"/><polygon points="2650.53 244.92 2549.47 244.92 2550.53 243.86 2649.47 243.86 2650.53 244.92"/><polygon points="2675.53 269.92 2524.47 269.92 2525.53 268.86 2674.47 268.86 2675.53 269.92"/><rect class="a" x="2600" y="673.25" width="80" height="171.15"/><rect class="bf" x="2600" y="673.25" width="80" height="171.15"/><rect class="y" x="2520" y="673.25" width="80" height="171.15"/><rect class="b" x="2535.99" y="691.43" width="48.02" height="134.78"/><rect class="bg" x="2541.99" y="697.43" width="36.02" height="122.78"/><rect class="y" x="2535.99" y="757.82" width="48.02" height="2"/><rect class="y" x="2680" y="673.25" width="80" height="171.15"/><rect class="b" x="2695.99" y="691.43" width="48.02" height="134.78" transform="translate(5440 1517.64) rotate(-180)"/><rect class="bh" x="2701.99" y="697.43" width="36.02" height="122.78" transform="translate(5440 1517.64) rotate(-180)"/><rect class="y" x="2695.99" y="757.82" width="48.02" height="2"/><rect class="h" x="1074.33" y="731.35" width="26" height="21.27"/><rect class="x" x="1074.33" y="737.26" width="26" height="1.18"/><rect x="1074.33" y="731.35" width="15.36" height="5.91"/><rect class="y" x="1077.07" y="733.81" width="9.9" height="1"/><rect x="1092.28" y="733.81" width="5.51" height="1"/><path d="M1077.7,746.33v2.75h-1.58v-7.82h2.66a2.43,2.43,0,0,1,1.85.72,2.6,2.6,0,0,1,.69,1.87,2.45,2.45,0,0,1-.68,1.82,2.59,2.59,0,0,1-1.89.66Zm0-1.31h1.08a.85.85,0,0,0,.7-.3,1.32,1.32,0,0,0,.25-.86,1.53,1.53,0,0,0-.26-.93.78.78,0,0,0-.67-.35h-1.1Z"/><path d="M1085.6,749.08h-1.52v-6l-1.49.58v-1.27l2.85-1.17h.16Z"/><path d="M1092.37,745.85a4.39,4.39,0,0,1-.59,2.48,1.89,1.89,0,0,1-1.68.86,1.93,1.93,0,0,1-1.67-.83,4.32,4.32,0,0,1-.61-2.4v-1.47a4.39,4.39,0,0,1,.59-2.48,2.09,2.09,0,0,1,3.36,0,4.35,4.35,0,0,1,.6,2.43Zm-1.53-1.58a4.05,4.05,0,0,0-.18-1.39.6.6,0,0,0-.57-.46c-.49,0-.74.56-.75,1.69v1.95a4.15,4.15,0,0,0,.18,1.41.62.62,0,0,0,.58.46.58.58,0,0,0,.55-.43,3.87,3.87,0,0,0,.19-1.33Z"/><path d="M1096.73,749.08h-1.52v-6l-1.49.58v-1.27l2.85-1.17h.16Z"/><rect class="h" x="1307.67" y="731.35" width="26" height="21.27"/><rect class="x" x="1307.67" y="737.26" width="26" height="1.18"/><rect x="1307.67" y="731.35" width="15.36" height="5.91"/><rect class="y" x="1310.4" y="733.81" width="9.9" height="1"/><rect x="1325.62" y="733.81" width="5.51" height="1"/><path d="M1311,746.33v2.75h-1.58v-7.82h2.67a2.43,2.43,0,0,1,1.84.72,2.61,2.61,0,0,1,.7,1.87,2.42,2.42,0,0,1-.69,1.82,2.59,2.59,0,0,1-1.89.66Zm0-1.31h1.09a.83.83,0,0,0,.69-.3,1.26,1.26,0,0,0,.25-.86,1.53,1.53,0,0,0-.25-.93.81.81,0,0,0-.68-.35H1311Z"/><path d="M1318.94,749.08h-1.53v-6l-1.49.58v-1.27l2.86-1.17h.16Z"/><path d="M1325.7,745.85a4.39,4.39,0,0,1-.59,2.48,1.89,1.89,0,0,1-1.68.86,1.94,1.94,0,0,1-1.67-.83,4.32,4.32,0,0,1-.61-2.4v-1.47a4.39,4.39,0,0,1,.59-2.48,2.09,2.09,0,0,1,3.36,0,4.35,4.35,0,0,1,.6,2.43Zm-1.53-1.58a4.05,4.05,0,0,0-.18-1.39.6.6,0,0,0-.57-.46c-.48,0-.73.56-.75,1.69v1.95a4.15,4.15,0,0,0,.18,1.41.62.62,0,0,0,.58.46.58.58,0,0,0,.55-.43,3.63,3.63,0,0,0,.19-1.33Z"/><path d="M1331.33,749.08h-4.61V748l2.12-2.69a6.67,6.67,0,0,0,.59-1,1.91,1.91,0,0,0,.19-.81,1.58,1.58,0,0,0-.18-.82.58.58,0,0,0-.52-.29.67.67,0,0,0-.59.34,1.86,1.86,0,0,0-.21,1h-1.53a2.91,2.91,0,0,1,.3-1.32,2.24,2.24,0,0,1,2.06-1.25,2.19,2.19,0,0,1,1.62.57,2.23,2.23,0,0,1,.58,1.65,3.16,3.16,0,0,1-.32,1.33,7.86,7.86,0,0,1-1.16,1.68l-1,1.43h2.66Z"/><rect class="h" x="1541" y="731.35" width="26" height="21.27"/><rect class="x" x="1541" y="737.26" width="26" height="1.18"/><rect x="1541" y="731.35" width="15.36" height="5.91"/><rect class="y" x="1543.73" y="733.81" width="9.9" height="1"/><rect x="1558.95" y="733.81" width="5.52" height="1"/><path d="M1544.36,746.33v2.75h-1.57v-7.82h2.66a2.45,2.45,0,0,1,1.85.72,2.6,2.6,0,0,1,.69,1.87,2.45,2.45,0,0,1-.68,1.82,2.62,2.62,0,0,1-1.89.66Zm0-1.31h1.09a.87.87,0,0,0,.7-.3,1.32,1.32,0,0,0,.24-.86,1.53,1.53,0,0,0-.25-.93.8.8,0,0,0-.68-.35h-1.1Z"/><path d="M1552.27,749.08h-1.53v-6l-1.48.58v-1.27l2.85-1.17h.16Z"/><path d="M1559,745.85a4.31,4.31,0,0,1-.59,2.48,1.89,1.89,0,0,1-1.67.86,1.93,1.93,0,0,1-1.67-.83,4.24,4.24,0,0,1-.61-2.4v-1.47a4.39,4.39,0,0,1,.58-2.48,2.1,2.1,0,0,1,3.37,0,4.28,4.28,0,0,1,.59,2.43Zm-1.52-1.58a3.78,3.78,0,0,0-.19-1.39.6.6,0,0,0-.56-.46c-.49,0-.74.56-.76,1.69v1.95a3.87,3.87,0,0,0,.19,1.41.6.6,0,0,0,.58.46.59.59,0,0,0,.55-.43,3.87,3.87,0,0,0,.19-1.33Z"/><path d="M1561.41,744.48h.73a.7.7,0,0,0,.62-.29,1.41,1.41,0,0,0,.19-.78,1.13,1.13,0,0,0-.2-.73.62.62,0,0,0-.54-.26.64.64,0,0,0-.52.25,1,1,0,0,0-.2.62H1560a2.22,2.22,0,0,1,.28-1.1,2.06,2.06,0,0,1,.79-.76,2.39,2.39,0,0,1,1.13-.27,2.35,2.35,0,0,1,1.69.59,2.16,2.16,0,0,1,.61,1.63,1.89,1.89,0,0,1-.27,1,2,2,0,0,1-.73.7,1.6,1.6,0,0,1,.82.71,2.43,2.43,0,0,1-.39,2.78,2.42,2.42,0,0,1-1.74.63,2.23,2.23,0,0,1-1.63-.62,2.18,2.18,0,0,1-.63-1.63h1.52a1.12,1.12,0,0,0,.22.7.7.7,0,0,0,.56.29.75.75,0,0,0,.62-.29,1.22,1.22,0,0,0,.23-.77c0-.77-.3-1.16-.9-1.16h-.74Z"/><rect class="h" x="1774.33" y="731.35" width="26" height="21.27"/><rect class="x" x="1774.33" y="737.26" width="26" height="1.18"/><rect x="1774.33" y="731.35" width="15.36" height="5.91"/><rect class="y" x="1777.07" y="733.81" width="9.9" height="1"/><rect x="1792.28" y="733.81" width="5.51" height="1"/><path d="M1777.7,746.33v2.75h-1.58v-7.82h2.66a2.43,2.43,0,0,1,1.85.72,2.6,2.6,0,0,1,.69,1.87,2.45,2.45,0,0,1-.68,1.82,2.59,2.59,0,0,1-1.89.66Zm0-1.31h1.08a.85.85,0,0,0,.7-.3,1.32,1.32,0,0,0,.25-.86,1.53,1.53,0,0,0-.26-.93.78.78,0,0,0-.67-.35h-1.1Z"/><path d="M1785.6,749.08h-1.52v-6l-1.49.58v-1.27l2.85-1.17h.16Z"/><path d="M1792.37,745.85a4.39,4.39,0,0,1-.59,2.48,1.89,1.89,0,0,1-1.68.86,1.93,1.93,0,0,1-1.67-.83,4.32,4.32,0,0,1-.61-2.4v-1.47a4.39,4.39,0,0,1,.59-2.48,2.09,2.09,0,0,1,3.36,0,4.35,4.35,0,0,1,.6,2.43Zm-1.53-1.58a4.05,4.05,0,0,0-.18-1.39.6.6,0,0,0-.57-.46c-.49,0-.74.56-.75,1.69v1.95a4.15,4.15,0,0,0,.18,1.41.62.62,0,0,0,.58.46.58.58,0,0,0,.55-.43,3.87,3.87,0,0,0,.19-1.33Z"/><path d="M1797.39,746.13h.67v1.26h-.67v1.69h-1.52v-1.69h-2.59l-.07-1,2.66-5.15h1.52Zm-2.7,0h1.18v-2.62l0,.06Z"/><rect class="h" x="2007.97" y="731.35" width="26" height="21.27"/><rect class="x" x="2007.97" y="737.26" width="26" height="1.18"/><rect x="2007.97" y="731.35" width="15.36" height="5.91"/><rect class="y" x="2010.7" y="733.81" width="9.9" height="1"/><rect x="2025.92" y="733.81" width="5.52" height="1"/><path d="M2011.33,746.33v2.75h-1.58v-7.82h2.67a2.43,2.43,0,0,1,1.84.72,2.61,2.61,0,0,1,.7,1.87,2.42,2.42,0,0,1-.69,1.82,2.59,2.59,0,0,1-1.89.66Zm0-1.31h1.09a.83.83,0,0,0,.69-.3,1.26,1.26,0,0,0,.25-.86,1.53,1.53,0,0,0-.25-.93.81.81,0,0,0-.68-.35h-1.1Z"/><path d="M2019.24,749.08h-1.53v-6l-1.49.58v-1.27l2.86-1.17h.16Z"/><path d="M2026,745.85a4.39,4.39,0,0,1-.59,2.48,1.89,1.89,0,0,1-1.68.86,1.94,1.94,0,0,1-1.67-.83,4.32,4.32,0,0,1-.61-2.4v-1.47A4.39,4.39,0,0,1,2022,742a2.09,2.09,0,0,1,3.36,0,4.35,4.35,0,0,1,.6,2.43Zm-1.53-1.58a4.05,4.05,0,0,0-.18-1.39.6.6,0,0,0-.57-.46c-.48,0-.73.56-.75,1.69v1.95a4.15,4.15,0,0,0,.18,1.41.62.62,0,0,0,.58.46.58.58,0,0,0,.55-.43,3.63,3.63,0,0,0,.19-1.33Z"/><path d="M2027.17,745.24l.39-4h3.79v1.3h-2.54l-.14,1.68a1.57,1.57,0,0,1,.91-.3,1.77,1.77,0,0,1,1.49.69,3.16,3.16,0,0,1,.52,2,2.81,2.81,0,0,1-.62,1.89,2.1,2.1,0,0,1-1.67.72,2.36,2.36,0,0,1-1.14-.29,2.23,2.23,0,0,1-.83-.81,2.37,2.37,0,0,1-.31-1.19h1.5a1.52,1.52,0,0,0,.24.76.65.65,0,0,0,.53.27.63.63,0,0,0,.58-.36,2.24,2.24,0,0,0,.21-1.09,1.78,1.78,0,0,0-.25-1,.78.78,0,0,0-.68-.34.81.81,0,0,0-.67.3l-.1.13Z"/><path class="d" d="M652.09,680.89H790.91a12,12,0,0,1,12,12v57.34a0,0,0,0,1,0,0H640.09a0,0,0,0,1,0,0V692.89A12,12,0,0,1,652.09,680.89Z" transform="translate(196.92 -154.73) rotate(14.16)"/><path d="M796.07,728.17l-6.43-1.63a6,6,0,0,0-7.28,4.36l-2.1,8.31-121.73-30.7,2.1-8.32a6,6,0,0,0-4.35-7.29l-6.43-1.62a6,6,0,0,0-7.28,4.35l-8.49,33.64,157.86,39.82,8.48-33.64A6,6,0,0,0,796.07,728.17Z"/><polygon class="bi" points="596.75 775.35 593.14 783.19 608.95 787.17 612.55 779.3 596.75 775.35"/><path d="M653.86,810.74l-28.69-7.11L628,791.82l19,4.78a10,10,0,0,1,7.4,12Z"/><path d="M619,802.1,590.31,795l2.83-11.81,19,4.77A10,10,0,0,1,619.5,800Z"/><polygon class="h" points="634.15 706.16 611.17 706.16 611.17 744.03 611.17 744.03 596.75 775.35 617.9 780.64 634.15 744.03 634.15 744.03 634.15 706.16"/><polygon class="bj" points="634.15 706.16 611.17 706.16 611.17 744.03 611.17 744.03 596.75 775.35 617.9 780.64 634.15 744.03 634.15 744.03 634.15 706.16"/><path class="bi" d="M630,652.42a9,9,0,0,0-5-8.08,9,9,0,0,1-8.08,13,8.87,8.87,0,0,1-4-.93,9,9,0,0,0,6.48,4.89v3.67h4v-3.85A9,9,0,0,0,630,652.42Z"/><polygon class="y" points="634.15 706.16 611.17 706.16 626.21 782.71 650.28 788.22 634.15 706.16"/><polygon class="bi" points="626.21 782.71 628 791.82 645.84 796.32 644.42 786.88 626.21 782.71"/><path class="d" d="M638.32,684.32l-1.8-11a10,10,0,0,0-9.36-8.36v0H616.83a10,10,0,0,0-10,10l1,31.23h26.32l-3.71-21.84Z"/><polygon class="bi" points="636.99 730 646.36 732.36 638.32 684.32 628.99 684.32 636.99 730"/><path d="M625.87,648.3A7.24,7.24,0,1,0,612,652.42c0,7.35-12.16,8.57-12.16,21.21s20.57,13.2,20.57,0v-17A9,9,0,0,0,625.87,648.3Z"/><path class="bk" d="M823.86,699.37a8.82,8.82,0,0,1-3.36,2.12v11.07h-6V701.49a9,9,0,0,1-3.36-14.84Z"/><path d="M824.2,699a8.91,8.91,0,0,0,2.3-6,9,9,0,0,0-9-9,8.91,8.91,0,0,0-6,2.3l-5.4-5.4-.71.71,18.11,18.11.35-.36h0l.36-.35Z"/><polygon class="d" points="849.4 832.39 826.84 832.39 805.84 787.48 805.84 742.58 828.4 742.58 828.4 787.48 849.4 832.39"/><polygon class="bl" points="849.4 832.39 826.84 832.39 805.84 787.48 805.84 742.58 828.4 742.58 828.4 787.48 849.4 832.39"/><polygon class="d" points="828.5 742.58 805.84 742.58 783.18 832.39 805.84 832.39 828.5 742.58"/><path class="h" d="M781.5,832.39h24.34a0,0,0,0,1,0,0v12a0,0,0,0,1,0,0H773.5a0,0,0,0,1,0,0v-4A8,8,0,0,1,781.5,832.39Z"/><path class="h" d="M825.06,832.39H849.4a0,0,0,0,1,0,0v12a0,0,0,0,1,0,0H817.06a0,0,0,0,1,0,0v-4A8,8,0,0,1,825.06,832.39Z"/><path class="y" d="M828.5,714.92v27.65l-18,.12,4.34-17.2H803l2.59-10.29a12,12,0,0,1,11.64-9.06h2.53a8.77,8.77,0,0,1,8.78,8.78Z"/><polygon class="bk" points="802.96 725.49 791.96 769.09 803.84 769.09 814.84 725.49 802.96 725.49"/><rect class="ao" x="1106.67" y="644.39" width="200" height="200"/><rect class="x" x="1119.17" y="658.77" width="187.5" height="185.62"/><rect class="y" x="1106.67" y="686.75" width="200" height="1"/><rect class="y" x="1106.67" y="743.89" width="200" height="1"/><rect class="y" x="1106.67" y="801.03" width="200" height="1"/><rect class="y" x="1192.6" y="829.68" width="28.13" height="2"/><rect x="873.33" y="673.25" width="200" height="171.15"/><rect class="ao" x="873.33" y="644.39" width="200" height="28.85"/><rect class="x" x="885.22" y="658.77" width="188.11" height="14.48"/><rect class="y" x="873.33" y="653.42" width="200" height="1"/><rect class="y" x="959.27" y="662.58" width="28.13" height="2"/><rect class="aq" x="978.67" y="779.55" width="24.37" height="24.37"/><rect class="aw" x="962.56" y="803.91" width="40.48" height="40.48"/><rect class="h" x="978.5" y="803.91" width="8.59" height="11.44"/><rect class="bi" x="1003.03" y="777.43" width="66.97" height="66.97"/><rect class="bm" x="1003.03" y="777.43" width="66.97" height="66.97"/><polygon class="y" points="1042.92 737.26 1025.07 730.26 1024.7 731.19 1041.37 737.72 1004.41 737.72 1021.07 731.19 1020.7 730.26 1002.85 737.26 1003.03 737.72 1003.03 737.72 1003.03 777.43 1042.74 777.43 1042.74 737.72 1042.74 737.72 1042.92 737.26"/><rect class="ao" x="1340" y="644.39" width="200" height="200"/><rect class="x" x="1352.5" y="658.77" width="187.5" height="185.62"/><rect class="y" x="1340" y="686.75" width="200" height="1"/><rect class="y" x="1340" y="743.89" width="200" height="1"/><rect class="y" x="1340" y="801.03" width="200" height="1"/><rect class="y" x="1425.94" y="829.68" width="28.13" height="2"/><path class="aw" d="M1240.3,699.14a8.81,8.81,0,0,0-.53-3h-17a9,9,0,0,0,5.48,11.48V712h6v-4.33A9,9,0,0,0,1240.3,699.14Z"/><path class="bn" d="M1216.86,782.35h-19.73v14.94H1222a10,10,0,0,0,9.33-6.39l4-10.31-8.65-23.69Z"/><path class="bo" d="M1216.86,782.35h-19.73v14.94H1222a10,10,0,0,0,9.33-6.39l4-10.31-8.65-23.69Z"/><path class="aq" d="M1239.78,769.14l4.83-12.48h0a14.26,14.26,0,1,0-26.6,0l27.28,73.21,13.42-5.17Z"/><path d="M1244.66,732.46v7.11H1218V722a10,10,0,0,1,10-10h6.75a10,10,0,0,1,10,10Z"/><path d="M1247,824.63h17.22a10,10,0,0,1,10,10v4.52a0,0,0,0,1,0,0H1247a0,0,0,0,1,0,0V824.63A0,0,0,0,1,1247,824.63Z" transform="translate(-211.84 495.59) rotate(-20.56)"/><path d="M1183.25,782.35h13.88a0,0,0,0,1,0,0v16.5a10,10,0,0,1-10,10h-3.88a0,0,0,0,1,0,0v-26.5A0,0,0,0,1,1183.25,782.35Z"/><path d="M1231.3,690.14a9,9,0,0,0-8.48,6h17A9,9,0,0,0,1231.3,690.14Z"/><circle cx="1231.3" cy="684.03" r="6.29"/><polygon class="aw" points="1260.57 731.36 1244.31 731.36 1233.16 720.21 1227.7 725.68 1241.75 739.73 1263.57 739.73 1260.57 731.36"/><rect class="c" x="1291.89" y="788.26" width="40.02" height="42" transform="translate(-197.66 497.5) rotate(-20)"/><rect class="y" x="1281.7" y="772.44" width="20.97" height="20.97" transform="translate(-189.85 489.17) rotate(-20)"/><path class="aq" d="M1297.89,841l-40.76-112a2,2,0,0,1,3.76-1.36l39.39,108.22L1319.1,829a2,2,0,0,1,1.36,3.76Z"/><circle cx="1289.09" cy="831.39" r="12"/><circle class="y" cx="1289.09" cy="831.39" r="5.6"/><path class="h" d="M1874.53,832.51h23.13a0,0,0,0,1,0,0v5.88a6,6,0,0,1-6,6h-17.13a0,0,0,0,1,0,0V832.51A0,0,0,0,1,1874.53,832.51Z" transform="translate(3772.18 1676.9) rotate(-180)"/><polygon class="bi" points="1887.17 832.51 1897.74 832.51 1899.14 822.54 1888.6 822.54 1887.17 832.51"/><polygon class="x" points="1910.09 776.8 1895.56 776.8 1884.63 822.54 1899.14 822.54 1910.09 776.8"/><polygon class="bp" points="1910.09 776.8 1895.56 776.8 1884.63 822.54 1899.14 822.54 1910.09 776.8"/><path class="c" d="M1907.45,733.72a7.93,7.93,0,0,1,5.6,13.53l-11.2-11.2A7.86,7.86,0,0,1,1907.45,733.72Z"/><path class="bi" d="M1913.05,747.25l-3.73-3.73a2.67,2.67,0,0,0,.77-1.87,2.64,2.64,0,0,0-4.51-1.87l-3.73-3.73a7.92,7.92,0,0,0,3.6,13.26v2.52h4v-2.52A7.92,7.92,0,0,0,1913.05,747.25Z"/><path class="aq" d="M1895.56,751.72h23.77a0,0,0,0,1,0,0V776.8a0,0,0,0,1,0,0h-17.77a6,6,0,0,1-6-6V751.72A0,0,0,0,1,1895.56,751.72Z" transform="translate(3814.9 1528.53) rotate(-180)"/><path class="h" d="M1906.77,832.51h23.13a0,0,0,0,1,0,0v5.88a6,6,0,0,1-6,6h-17.13a0,0,0,0,1,0,0V832.51A0,0,0,0,1,1906.77,832.51Z" transform="translate(3836.66 1676.9) rotate(-180)"/><polygon class="x" points="1926.12 822.54 1911.75 822.54 1904.97 804.66 1904.97 776.8 1919.33 776.8 1919.33 804.66 1926.12 822.54"/><polygon class="bi" points="1915.71 822.54 1919.49 832.51 1929.9 832.51 1926.12 822.54 1915.71 822.54"/><rect class="y" x="1855.51" y="745.33" width="40.06" height="39.58"/><rect class="bq" x="1872.57" y="745.33" width="5.93" height="13.49"/><rect class="bi" x="1888.79" y="768.94" width="27.39" height="7.37" transform="translate(10.89 1571.55) rotate(-45)"/><circle class="c" cx="1958.06" cy="698.46" r="11.21"/><circle class="bi" cx="1985.67" cy="740.09" r="4.75"/><path class="b" d="M1942.43,744.84h31.27a10,10,0,0,0,8.61-14.94l-11-19h-26.47l-11,19A10,10,0,0,0,1942.43,744.84Z"/><path class="bq" d="M1944.37,749.82V832h14.93V761.13L1978.62,832h15.53L1973,749.82c-1.83-7.33-7.36-13.69-14.93-13.69A13.7,13.7,0,0,0,1944.37,749.82Z"/><path class="br" d="M1944.37,749.82V832h14.93V761.13L1978.62,832h15.53L1973,749.82c-1.83-7.33-7.36-13.69-14.93-13.69A13.7,13.7,0,0,0,1944.37,749.82Z"/><path class="y" d="M1935.93,831.95h23.37a0,0,0,0,1,0,0v6.44a6,6,0,0,1-6,6h-17.37a0,0,0,0,1,0,0V831.95A0,0,0,0,1,1935.93,831.95Z" transform="translate(3895.23 1676.34) rotate(-180)"/><path class="y" d="M1979.07,831.95h17.37a6,6,0,0,1,6,6v6.44a0,0,0,0,1,0,0h-23.37a0,0,0,0,1,0,0V831.95A0,0,0,0,1,1979.07,831.95Z"/><rect class="c" x="1955.35" y="722.89" width="30.33" height="30.33" transform="translate(3941.02 1476.1) rotate(-180)"/><rect class="bi" x="1944.83" y="735.33" width="10.52" height="9.51" transform="translate(3900.18 1480.17) rotate(-180)"/><path class="bi" d="M1966.78,698.46a8.7,8.7,0,0,0-2.58-6.18L1949.38,699a8.71,8.71,0,0,0,6.2,7.81v4.11h5v-4.11A8.72,8.72,0,0,0,1966.78,698.46Z"/><polygon class="bs" points="1955.35 716.89 1951.35 716.89 1940.83 735.33 1955.35 735.33 1955.35 716.89"/><rect class="aw" x="1623.57" y="712.12" width="56.27" height="56.27" transform="translate(3303.41 1480.5) rotate(-180)"/><rect class="bt" x="1623.57" y="712.12" width="56.27" height="56.27" transform="translate(3303.41 1480.5) rotate(-180)"/><path d="M1702.64,684a8.37,8.37,0,0,1,5.92,14.28l-11.83-11.83A8.34,8.34,0,0,1,1702.64,684Z"/><path class="bk" d="M1694.27,692.38a8.33,8.33,0,0,0,4.79,7.55v4.6h7.17v-4.6a8.12,8.12,0,0,0,2.33-1.64l-11.84-11.83A8.38,8.38,0,0,0,1694.27,692.38Z"/><path class="y" d="M1703.21,703.33h.93a9.56,9.56,0,0,1,9.56,9.57v26.29h-26.6l4.31-25.87A12,12,0,0,1,1703.21,703.33Z"/><polygon class="d" points="1664.99 831.24 1682.92 831.24 1705.03 739.19 1687.1 739.19 1664.99 831.24"/><polygon class="bu" points="1664.99 831.24 1682.92 831.24 1705.03 739.19 1687.1 739.19 1664.99 831.24"/><polygon class="d" points="1713.7 785.22 1713.4 739.19 1695.47 739.19 1695.77 785.22 1711.01 831.24 1728.94 831.24 1713.7 785.22"/><path class="y" d="M1655.62,831.24h27.3a0,0,0,0,1,0,0v5.15a8,8,0,0,1-8,8h-19.3a0,0,0,0,1,0,0V831.24A0,0,0,0,1,1655.62,831.24Z" transform="translate(3338.54 1675.63) rotate(-180)"/><path class="y" d="M1701.65,831.24h27.3a0,0,0,0,1,0,0v5.15a8,8,0,0,1-8,8h-19.3a0,0,0,0,1,0,0V831.24A0,0,0,0,1,1701.65,831.24Z" transform="translate(3430.59 1675.63) rotate(-180)"/><polygon class="bk" points="1679.84 768.38 1690.11 719.49 1700.45 719.49 1690.18 768.38 1679.84 768.38"/><path class="x" d="M1710.64,684.77v-1a8,8,0,0,0-16,0v1h-1.71v5.48h19.42v-5.48Z"/><path class="bi" d="M1594.71,702a8.37,8.37,0,0,0,5.66,5.79v5.12h4.79v-5.12a8.37,8.37,0,0,0,2.16-15,8.7,8.7,0,0,1,.31,2.23,8.36,8.36,0,0,1-12.92,7Z"/><path class="y" d="M1602.76,691.38a8.36,8.36,0,0,1,4.56,1.35,8.64,8.64,0,0,1,.31,2.23,8.36,8.36,0,0,1-12.92,7,8.23,8.23,0,0,1-.32-2.23A8.37,8.37,0,0,1,1602.76,691.38Z"/><path class="aq" d="M1595.62,742.78h22.68l7.34,35.92h-33.47l-.14-18A49.08,49.08,0,0,1,1595.62,742.78Z"/><path class="y" d="M1602.2,711.7h-.93a9.56,9.56,0,0,0-9.56,9.56v21.52h26.59L1614,721.69A12,12,0,0,0,1602.2,711.7Z"/><path class="aw" d="M1627.38,831.24h14.51a8,8,0,0,1,8,8v5.15a0,0,0,0,1,0,0h-22.51a0,0,0,0,1,0,0V831.24A0,0,0,0,1,1627.38,831.24Z"/><path class="aw" d="M1576.46,831.24h13.32a8,8,0,0,1,8,8v5.15a0,0,0,0,1,0,0h-21.32a0,0,0,0,1,0,0V831.24A0,0,0,0,1,1576.46,831.24Z"/><polygon class="bi" points="1623.53 768.38 1614.38 768.38 1604.76 721.26 1613.91 721.26 1623.53 768.38"/><circle class="y" cx="1591.2" cy="701.14" r="4.08"/><polygon class="y" points="1638.03 831.24 1627.27 831.24 1624.24 820.48 1635.49 820.48 1638.03 831.24"/><polygon class="bi" points="1625.64 778.7 1635.49 820.48 1624.24 820.48 1612.49 778.7 1625.64 778.7"/><polygon class="bi" points="1591.7 788.8 1592.17 778.7 1605.32 778.7 1604.86 788.8 1591.69 820.48 1580.33 820.48 1591.7 788.8"/><polygon class="bv" points="1625.64 778.7 1635.49 820.48 1624.24 820.48 1612.49 778.7 1625.64 778.7"/><polygon class="bw" points="1591.7 788.8 1592.17 778.7 1605.32 778.7 1604.86 788.8 1591.69 820.48 1580.33 820.48 1591.7 788.8"/><polygon class="y" points="1591.69 820.48 1587.22 831.24 1576.46 831.24 1580.33 820.48 1591.69 820.48"/><rect class="bi" x="904.1" y="741.89" width="22.8" height="89.92"/><rect class="bx" x="904.1" y="741.89" width="22.8" height="89.92"/><path class="aw" d="M900.49,831.81h30a6,6,0,0,1,6,6v5.58a0,0,0,0,1,0,0h-42a0,0,0,0,1,0,0v-5.58A6,6,0,0,1,900.49,831.81Z"/><path class="y" d="M942.41,718.17l-6.52,6.52a9.18,9.18,0,0,0-6.51-2.7v19.9H901.62V722a9.18,9.18,0,0,0-6.51,2.7l-6.52-6.52a18.41,18.41,0,0,1,13-5.39h27.76A18.41,18.41,0,0,1,942.41,718.17Z"/><path class="bi" d="M901.62,740.42a9.21,9.21,0,0,1-6.51-15.73l-6.52-6.52a18.43,18.43,0,0,0,13,31.46Z"/><path class="bi" d="M929.38,740.42a9.21,9.21,0,0,0,6.51-15.73l6.52-6.52a18.43,18.43,0,0,1-13,31.46Z"/><path class="bk" d="M927.44,697.06v15.72H903.56V697.06a11.94,11.94,0,0,1,23.88,0Z"/><polygon class="x" points="929.38 741.89 901.62 741.89 889.25 782.33 941.75 782.33 929.38 741.89"/><path class="bi" d="M923.93,699a8.65,8.65,0,0,1-6,6.32v7.43H913v-7.43a8.65,8.65,0,0,1-6-6.32l8.43-8.43Z"/><rect class="aw" x="896.73" y="735.71" width="37.54" height="21.46"/><rect class="by" x="896.73" y="735.71" width="37.54" height="21.46"/><rect x="915" y="782.32" width="1" height="61.07"/><polygon points="316.07 724.69 342.95 724.69 342.95 688.34 316.07 688.34 312.05 705.86 316.07 705.86 316.07 724.69"/><path class="c" d="M347.49,665.13a9.5,9.5,0,0,0-6.72,16.21l13.44-13.43A9.48,9.48,0,0,0,347.49,665.13Z"/><path class="bi" d="M357,674.63a9.46,9.46,0,0,0-2.78-6.72L350,672.1a3.58,3.58,0,1,0-5.06,5.06l-4.19,4.18a9.22,9.22,0,0,0,2.72,1.89v11.1h8v-11.1A9.5,9.5,0,0,0,357,674.63Z"/><rect class="aw" x="250.76" y="764.94" width="37.91" height="35.12"/><rect class="bz" x="250.76" y="764.94" width="37.91" height="35.12"/><rect class="c" x="208.09" y="758.53" width="42.67" height="41.53"/><rect class="bk" x="250.76" y="744.1" width="20.84" height="20.84"/><rect class="aq" x="201.76" y="800.06" width="93.17" height="18.06"/><polygon class="c" points="362.9 736.3 343.03 736.3 328.43 736.3 328.43 780.1 309.65 819.66 327.05 827.92 347.69 784.43 347.69 754.72 366.66 829.63 385.33 824.91 362.9 736.3"/><path class="h" d="M368,825.79h20.56a9,9,0,0,1,9,9v5.51a0,0,0,0,1,0,0H368a0,0,0,0,1,0,0V825.79A0,0,0,0,1,368,825.79Z" transform="translate(-192.7 119.39) rotate(-14.2)"/><path class="h" d="M305.39,824.85h18.3a9,9,0,0,1,9,9v4.68a0,0,0,0,1,0,0h-27.3a0,0,0,0,1,0,0V824.85A0,0,0,0,1,305.39,824.85Z" transform="translate(387.59 -56.45) rotate(25.4)"/><circle class="bi" cx="388.63" cy="734.31" r="5.69"/><path class="x" d="M378.46,711.39H360.69V736.3H328.43V709.23h-4.75l4.89-14.36a8,8,0,0,1,7.89-6.53H354a13.61,13.61,0,0,1,10.8,5.31Z"/><polygon points="364.23 705.88 361.01 705.88 352.99 688.36 356.2 688.36 364.23 705.88"/><circle class="aq" cx="376.06" cy="698.12" r="8"/><rect class="h" x="390.44" y="669.35" width="7.09" height="65.34" transform="translate(188.57 -76.35) rotate(14.52)"/><rect x="382.97" y="669.35" width="7.09" height="65.34" transform="translate(188.33 -74.48) rotate(14.52)"/><rect class="aw" x="360.69" y="698.26" width="38.04" height="38.04"/><polygon points="392.98 706.51 391.21 706.51 391.21 710.67 388.28 710.67 388.28 706.51 386.52 706.51 389.75 702.67 392.98 706.51"/><circle class="y" cx="375.25" cy="833.85" r="2.81"/><circle class="y" cx="312.46" cy="828.23" r="2.81"/><path d="M328.35,724.26l-3.05-2.59,8-9.41A18.87,18.87,0,0,0,337.8,700V688.36h4V700a23,23,0,0,1-5.45,14.82Z"/><path class="bi" d="M334.19,709.23H323.68l-11.6,34a6.43,6.43,0,1,0,9.29,3.59Z"/><path class="ca" d="M325.15,749.17H305.38v9.22h8.51l-19.22,58.84H201.76v2h94.36L316,758.39h9.16Zm-2,7.22H307.38v-5.22h15.77Z"/><circle class="ca" cx="279.47" cy="831.07" r="12.84"/><circle class="y" cx="279.47" cy="831.07" r="6.42"/><circle class="ca" cx="219.65" cy="831.07" r="12.84"/><circle class="y" cx="219.65" cy="831.07" r="6.42"/><circle class="ca" cx="295.39" cy="818.23" r="2.41"/><rect class="h" x="226.15" y="758.53" width="7.85" height="8.95"/><polygon class="cb" points="347.69 754.72 366.66 829.63 385.33 824.91 362.9 736.3 347.49 736.52 347.69 754.72"/><rect class="c" x="531.27" y="796.32" width="47.6" height="47.6"/><rect x="520.38" y="822.15" width="21.77" height="21.77"/><path d="M416.19,207.18a17.21,17.21,0,1,1-34.41,0Z"/><path d="M411.19,207.18a14.22,14.22,0,0,1-20.11-20.11Z"/><circle cx="416.19" cy="207.18" r="6.36"/><rect x="416.19" y="206.18" width="12.31" height="2"/><polygon points="370.5 214.46 386.78 207.18 370.5 207.18 370.5 214.46"/><path d="M343,249.85a17.21,17.21,0,0,1-34.42,0Z"/><path d="M338,249.85a14.22,14.22,0,1,1-20.11-20.11Z"/><circle cx="342.96" cy="249.85" r="6.36"/><rect x="342.96" y="248.85" width="12.31" height="2"/><polygon points="297.27 257.13 313.54 249.85 297.27 249.85 297.27 257.13"/><polygon class="aw" points="2668.39 749.48 2647.68 749.48 2627.68 828.27 2648.39 828.27 2668.39 749.48"/><polygon class="cc" points="2668.39 749.48 2647.68 749.48 2627.68 828.27 2648.39 828.27 2668.39 749.48"/><rect class="aw" x="2660.46" y="749.47" width="19.7" height="78.79"/><path class="h" d="M2693.29,726.92l-8.79,8.79-4.34-4.33v18.1h-32.79V713.8h26.51a15.13,15.13,0,0,1,10.72,4.44Z"/><rect class="h" x="2639.35" y="713.8" width="8.03" height="13.68"/><path class="bi" d="M2634.89,713.8V702.14H2637a1.35,1.35,0,0,0,1.27-1.78,1.37,1.37,0,0,0-1.33-.9h-2v-7.59h-9.81v23.34a7.13,7.13,0,0,0,7.13,7.13h7.14V713.8Z"/><rect x="2669.08" y="727.73" width="5.44" height="1"/><rect x="2638.85" y="713.79" width="1" height="13.68"/><path d="M2660.83,828.27h19.33a0,0,0,0,1,0,0v16.12a0,0,0,0,1,0,0h-29.33a0,0,0,0,1,0,0v-6.12A10,10,0,0,1,2660.83,828.27Z"/><path d="M2626,828.27h19.33a0,0,0,0,1,0,0v16.12a0,0,0,0,1,0,0H2616a0,0,0,0,1,0,0v-6.12A10,10,0,0,1,2626,828.27Z"/><path d="M2671.69,700.69a8.84,8.84,0,0,1-2.62,6.3l-12.61-12.61-.38-.38a3.56,3.56,0,0,1,5-5l2.88,2.89A8.91,8.91,0,0,1,2671.69,700.69Z"/><path class="bi" d="M2669.08,707l-4.4-4.4a2.7,2.7,0,1,0-3.82-3.82l-4.4-4.4a8.9,8.9,0,0,0,2.74,14.47v4.95l3.57,3.56,3.57-3.56v-4.94A9.16,9.16,0,0,0,2669.08,707Z"/><polygon points="2666.69 714.15 2665.98 713.44 2662.77 716.66 2659.55 713.44 2658.85 714.15 2662.27 717.57 2662.27 724.2 2663.27 724.2 2663.27 717.57 2666.69 714.15"/><path class="bi" d="M2699.43,733.06l-6.14-6.14-7,7,4.43,4.43-10.54,11.11h0a6,6,0,1,0,6,6c0-.17,0-.34,0-.51l13.29-13.07A6.24,6.24,0,0,0,2699.43,733.06Z"/><rect x="2682.68" y="730.82" width="12.44" height="1" transform="translate(270.44 2115.53) rotate(-45)"/><polygon class="aq" points="2340.44 751.91 2340.44 814.78 2038.93 814.78 2038.93 743.28 2050.8 680.01 2201.03 680.01 2267.03 743.28 2340.44 751.91"/><rect class="x" x="2038.93" y="785.54" width="10.62" height="13.37"/><polygon points="2201.03 671.45 2050.8 671.45 2050.8 673.45 2071.38 673.45 2071.38 680.01 2073.38 680.01 2073.38 673.45 2178.45 673.45 2178.45 680.01 2180.45 680.01 2180.45 673.45 2201.03 673.45 2201.03 671.45"/><rect class="d" x="2031.38" y="798.9" width="316.61" height="15.88"/><polygon class="d" points="2127.51 778.86 2076.09 778.86 2062.5 814.78 2141.11 814.78 2127.51 778.86"/><circle cx="2101.8" cy="814.78" r="29.13"/><circle class="y" cx="2101.8" cy="814.78" r="14.57"/><path class="cd" d="M2112.1,825.08a14.57,14.57,0,0,1-20.6-20.6Z"/><polygon class="d" points="2311.09 778.86 2259.66 778.86 2246.07 814.78 2324.68 814.78 2311.09 778.86"/><circle cx="2285.38" cy="814.78" r="29.13"/><circle class="y" cx="2285.38" cy="814.78" r="14.57"/><path class="ce" d="M2295.68,825.08a14.57,14.57,0,0,1-20.6-20.6Z"/><polygon points="2250.98 743.28 2049.55 743.28 2060.34 688.53 2193.68 688.53 2250.98 743.28"/><polygon class="d" points="2240.6 743.28 2193.68 698.45 2058.38 698.45 2049.55 743.28 2240.6 743.28"/><polygon class="cf" points="2240.6 743.28 2193.68 698.45 2058.38 698.45 2049.55 743.28 2240.6 743.28"/><polygon class="aq" points="1939.37 667.87 1995.77 667.87 2050.8 680.01 1939.37 680.01 1939.37 667.87"/><rect class="aq" x="2191.68" y="687.53" width="4" height="56.75"/><rect x="2250.98" y="727.49" width="16.05" height="15.79"/><rect class="aq" x="2116.37" y="688.53" width="8.87" height="55.75"/><rect x="2340.44" y="772.17" width="7.55" height="21.34"/><rect class="cg" x="2050.5" y="750.68" width="200.48" height="8.2"/><circle class="bi" cx="2444.58" cy="753.81" r="5.07"/><path class="y" d="M2431.13,719l-10,10-3.94-3.94v17.76h-34V714.87a9.73,9.73,0,0,1,9.73-9.72h18.25a14.59,14.59,0,0,1,10.31,4.27Z"/><rect x="2383.23" y="742.81" width="34.01" height="88.21"/><rect x="2380.19" y="822.26" width="40.09" height="8.76"/><path class="bq" d="M2383.23,831H2422a8,8,0,0,1,8,8v5.37a0,0,0,0,1,0,0h-46.77a0,0,0,0,1,0,0V831A0,0,0,0,1,2383.23,831Z"/><path class="y" d="M2417.43,844.39h-1v-3.64a9.24,9.24,0,0,0-9.22-9.23h-7.48v-72.9h1v71.9h6.48a10.24,10.24,0,0,1,10.22,10.23Z"/><rect class="bk" x="2417.39" y="708.54" width="45.27" height="45.27"/><rect class="ch" x="2417.39" y="708.54" width="45.27" height="45.27"/><path class="bi" d="M2428.32,758.88a4.84,4.84,0,0,1-3.43-1.43l-31.63-31.62,6.88-6.87,31.62,31.62a4.87,4.87,0,0,1-3.44,8.3Z"/><path d="M2401.23,684a8.5,8.5,0,0,0-6.85,13.53l11.88-11.88A8.49,8.49,0,0,0,2401.23,684Z"/><path class="bi" d="M2406.26,685.66l-2.56,2.56-1.4,1.4a2.37,2.37,0,0,0-1.07-.25,2.5,2.5,0,0,0-2.5,2.5,2.37,2.37,0,0,0,.25,1.07l-4.6,4.6a8.53,8.53,0,0,0,3.21,2.65v5l3.64,2.44,3.65-2.44V700.2a8.5,8.5,0,0,0,4.71-6.1,9.1,9.1,0,0,0,.15-1.58A8.49,8.49,0,0,0,2406.26,685.66Z"/><rect class="bq" y="843.39" width="2880" height="2"/></svg>